<svg width="129" height="32" viewBox="0 0 129 32" fill="none" xmlns="http://www.w3.org/2000/svg"><path d="M43.26 22V11.5H47.55C48.79 11.5 49.77 11.835 50.49 12.505C51.21 13.175 51.57 14.06 51.57 15.16C51.57 16.33 51.17 17.24 50.37 17.89C49.57 18.53 48.555 18.85 47.325 18.85H45.57V22H43.26ZM45.57 16.795H47.4C47.97 16.795 48.415 16.645 48.735 16.345C49.065 16.045 49.23 15.655 49.23 15.175C49.23 14.665 49.065 14.275 48.735 14.005C48.405 13.725 47.945 13.585 47.355 13.585H45.57V16.795ZM55.173 22.15C54.383 22.15 53.723 21.93 53.193 21.49C52.673 21.05 52.413 20.44 52.413 19.66C52.413 18.81 52.703 18.17 53.283 17.74C53.873 17.31 54.663 17.095 55.653 17.095C56.323 17.095 56.978 17.205 57.618 17.425V17.29C57.618 16.31 57.043 15.82 55.893 15.82C55.203 15.82 54.463 15.965 53.673 16.255L53.103 14.515C54.083 14.085 55.123 13.87 56.223 13.87C57.433 13.87 58.338 14.17 58.938 14.77C59.518 15.35 59.808 16.205 59.808 17.335V22H57.603V21.13C56.993 21.81 56.183 22.15 55.173 22.15ZM55.863 20.575C56.393 20.575 56.823 20.445 57.153 20.185C57.483 19.915 57.648 19.575 57.648 19.165V18.76C57.218 18.56 56.733 18.46 56.193 18.46C55.693 18.46 55.303 18.56 55.023 18.76C54.753 18.95 54.618 19.23 54.618 19.6C54.618 19.9 54.733 20.14 54.963 20.32C55.193 20.49 55.493 20.575 55.863 20.575ZM61.77 24.4V13.96H64.05V15.115C64.69 14.245 65.525 13.81 66.555 13.81C67.555 13.81 68.415 14.185 69.135 14.935C69.855 15.685 70.215 16.705 70.215 17.995C70.215 19.275 69.855 20.29 69.135 21.04C68.425 21.78 67.565 22.15 66.555 22.15C65.555 22.15 64.72 21.75 64.05 20.95V24.4H61.77ZM64.575 19.6C64.955 20.01 65.42 20.215 65.97 20.215C66.52 20.215 66.985 20.01 67.365 19.6C67.745 19.18 67.935 18.635 67.935 17.965C67.935 17.315 67.745 16.785 67.365 16.375C66.985 15.955 66.52 15.745 65.97 15.745C65.42 15.745 64.955 15.955 64.575 16.375C64.205 16.785 64.02 17.325 64.02 17.995C64.02 18.645 64.205 19.18 64.575 19.6ZM75.7021 22.18C74.4821 22.18 73.4771 21.795 72.6871 21.025C71.8971 20.245 71.5021 19.235 71.5021 17.995C71.5021 16.825 71.8771 15.835 72.6271 15.025C73.3771 14.215 74.3271 13.81 75.4771 13.81C76.7471 13.81 77.7171 14.23 78.3871 15.07C79.0571 15.91 79.3921 16.945 79.3921 18.175C79.3921 18.295 79.3821 18.495 79.3621 18.775H73.7671C73.8771 19.285 74.1021 19.675 74.4421 19.945C74.7821 20.215 75.2121 20.35 75.7321 20.35C76.4421 20.35 77.0921 20.075 77.6821 19.525L78.9871 20.68C78.1771 21.68 77.0821 22.18 75.7021 22.18ZM73.7371 17.35H77.1721C77.1021 16.83 76.9171 16.415 76.6171 16.105C76.3271 15.795 75.9471 15.64 75.4771 15.64C75.0171 15.64 74.6321 15.795 74.3221 16.105C74.0221 16.405 73.8271 16.82 73.7371 17.35ZM81.0913 22V13.96H83.3713V15.58C83.8913 14.35 84.7463 13.76 85.9363 13.81V16.195H85.8163C85.0363 16.195 84.4313 16.435 84.0013 16.915C83.5813 17.385 83.3713 18.09 83.3713 19.03V22H81.0913ZM87.6008 22V11.5H89.9108V15.655H94.1708V11.5H96.4808V22H94.1708V17.785H89.9108V22H87.6008ZM102.567 22.18C101.347 22.18 100.342 21.795 99.5523 21.025C98.7623 20.245 98.3673 19.235 98.3673 17.995C98.3673 16.825 98.7423 15.835 99.4923 15.025C100.242 14.215 101.192 13.81 102.342 13.81C103.612 13.81 104.582 14.23 105.252 15.07C105.922 15.91 106.257 16.945 106.257 18.175C106.257 18.295 106.247 18.495 106.227 18.775H100.632C100.742 19.285 100.967 19.675 101.307 19.945C101.647 20.215 102.077 20.35 102.597 20.35C103.307 20.35 103.957 20.075 104.547 19.525L105.852 20.68C105.042 21.68 103.947 22.18 102.567 22.18ZM100.602 17.35H104.037C103.967 16.83 103.782 16.415 103.482 16.105C103.192 15.795 102.812 15.64 102.342 15.64C101.882 15.64 101.497 15.795 101.187 16.105C100.887 16.405 100.692 16.82 100.602 17.35ZM108.062 22V11.05H110.342V22H108.062ZM112.483 24.4V13.96H114.763V15.115C115.403 14.245 116.238 13.81 117.268 13.81C118.268 13.81 119.128 14.185 119.848 14.935C120.568 15.685 120.928 16.705 120.928 17.995C120.928 19.275 120.568 20.29 119.848 21.04C119.138 21.78 118.278 22.15 117.268 22.15C116.268 22.15 115.433 21.75 114.763 20.95V24.4H112.483ZM115.288 19.6C115.668 20.01 116.133 20.215 116.683 20.215C117.233 20.215 117.698 20.01 118.078 19.6C118.458 19.18 118.648 18.635 118.648 17.965C118.648 17.315 118.458 16.785 118.078 16.375C117.698 15.955 117.233 15.745 116.683 15.745C116.133 15.745 115.668 15.955 115.288 16.375C114.918 16.785 114.733 17.325 114.733 17.995C114.733 18.645 114.918 19.18 115.288 19.6Z" fill="#392E66"></path><rect width="32" height="32" rx="10" fill="url(#paint0_linear)"></rect><path d="M11.6092 21V9.8H16.4092C17.8385 9.8 18.9692 10.152 19.8012 10.856C20.6439 11.5493 21.0652 12.52 21.0652 13.768C21.0652 15.048 20.6225 16.04 19.7372 16.744C18.8519 17.448 17.6892 17.8 16.2492 17.8H14.7132V21H11.6092ZM14.7132 15.368H16.1852C16.7399 15.368 17.1719 15.2347 17.4812 14.968C17.8012 14.7013 17.9612 14.3387 17.9612 13.88C17.9612 13.4 17.8012 13.0373 17.4812 12.792C17.1719 12.536 16.7345 12.408 16.1692 12.408H14.7132V15.368Z" fill="white"></path><defs><linearGradient id="paint0_linear" x1="16" y1="0" x2="16" y2="32" gradientUnits="userSpaceOnUse"><stop stop-color="#4E3D95"></stop><stop offset="1" stop-color="#3A2E60"></stop></linearGradient></defs></svg>