<svg xmlns="http://www.w3.org/2000/svg"><g fill="none" fill-rule="evenodd"><path d="M6.952 4.386c0-2.26 2.392-4.162 5.72-4.386h5.72-5.148 24.597c.34 0 .456.002.572 0-3.156.132-5.355 2.073-5.148 4.386v18.013c0 3.179-2.772 5.044-5.72 5.17-3.684-.12-6.183-1.951-6.292-4.314H6.952V4.385z" fill="#FFBA16"/><path d="M14.331 24.426H.031c0 2.259 2.408 4.162 5.72 4.386H25.2c.338 0 2.153-.003 2.27 0-4.018 0-7.401-2.073-7.418-4.386h-5.72z" fill="#FFCF5C"/><path d="M38 18.89V9.07h4.142c.45 0 .865.094 1.246.283.38.189.709.438.984.747.275.308.49.659.647 1.05.156.393.234.787.234 1.183 0 .415-.074.819-.22 1.21-.147.392-.354.74-.62 1.045a3.044 3.044 0 0 1-.963.733 2.775 2.775 0 0 1-1.239.277H39.9v3.291H38zm1.9-4.966h2.2c.349 0 .64-.143.874-.429.234-.286.351-.673.351-1.162 0-.249-.037-.472-.11-.67a1.632 1.632 0 0 0-.29-.505 1.15 1.15 0 0 0-.419-.312 1.225 1.225 0 0 0-.488-.103h-2.12v3.18zm10.049-4.855h1.679l3.715 9.82H53.39l-.908-2.448h-3.413l-.895 2.448H46.22l3.73-9.82zm2.188 6.03l-1.349-3.858-1.404 3.859h2.753zm5.494 3.79V9.07h4.142c.45 0 .865.095 1.246.284.38.189.709.438.984.747.275.308.49.659.647 1.05.156.393.234.787.234 1.183 0 .415-.074.819-.22 1.21-.147.392-.354.74-.62 1.045a3.044 3.044 0 0 1-.963.733 2.775 2.775 0 0 1-1.239.277H59.53v3.291h-1.9zm1.9-4.965h2.201c.349 0 .64-.143.874-.429.234-.286.35-.673.35-1.162 0-.249-.036-.472-.11-.67a1.632 1.632 0 0 0-.288-.505 1.15 1.15 0 0 0-.42-.312 1.225 1.225 0 0 0-.489-.103H59.53v3.18zm14.673 3.292v1.673h-6.785V9.07h6.66v1.674h-4.761v2.365h4.115v1.549h-4.115v2.559h4.886zm2.7 1.673V9.07h4.321c.45 0 .865.095 1.246.284.38.189.709.438.984.747.275.308.49.659.647 1.05a3.278 3.278 0 0 1-.24 2.918 2.73 2.73 0 0 1-1.288 1.128l2.23 3.693H82.67l-1.995-3.291h-1.872v3.291h-1.899zm1.9-4.965h2.38a1 1 0 0 0 .489-.125 1.25 1.25 0 0 0 .392-.338c.11-.143.197-.312.261-.505.065-.194.097-.401.097-.623 0-.23-.037-.442-.11-.636a1.662 1.662 0 0 0-.296-.505 1.34 1.34 0 0 0-.427-.332 1.103 1.103 0 0 0-.489-.117h-2.298v3.18zm14.287-2.282a2.348 2.348 0 0 0-.35-.263 4.257 4.257 0 0 0-.62-.325 5.316 5.316 0 0 0-.791-.27 3.44 3.44 0 0 0-.867-.11c-.523 0-.913.096-1.17.29-.257.194-.385.466-.385.816 0 .203.048.371.144.505.096.134.236.251.42.353.183.101.415.193.695.276.28.083.603.17.97.263.477.13.91.267 1.3.415.39.148.72.332.992.553a2.3 2.3 0 0 1 .626.796c.147.308.22.689.22 1.14 0 .526-.099.976-.296 1.35a2.494 2.494 0 0 1-.798.905 3.46 3.46 0 0 1-1.156.505 5.776 5.776 0 0 1-1.37.159c-.734 0-1.458-.11-2.174-.332a6.7 6.7 0 0 1-1.927-.94l.84-1.646c.082.083.231.19.447.325.216.133.47.267.764.4.293.134.62.247.977.34.358.092.725.138 1.101.138 1.046 0 1.569-.337 1.569-1.01a.83.83 0 0 0-.179-.54 1.518 1.518 0 0 0-.51-.386 4.86 4.86 0 0 0-.797-.305c-.312-.092-.661-.193-1.046-.304a8.862 8.862 0 0 1-1.218-.422 3.2 3.2 0 0 1-.86-.54 2.021 2.021 0 0 1-.517-.719 2.502 2.502 0 0 1-.172-.975c0-.498.092-.94.276-1.327.183-.388.438-.71.763-.969a3.454 3.454 0 0 1 1.136-.587A4.67 4.67 0 0 1 90.518 9a5.37 5.37 0 0 1 1.899.325 7.06 7.06 0 0 1 1.514.768l-.84 1.549z" fill="#000"/><path d="M22.098 10.954a5.954 5.954 0 0 1 0 .337v.011c-.001.033-.001.033-.004.039.016.083.04.16.072.233.069.155.162.288.286.41a1.388 1.388 0 0 0 .997.394 1.39 1.39 0 0 0 .998-.394c.124-.122.217-.255.286-.41a1.08 1.08 0 0 0-.005-.878 1.285 1.285 0 0 0-.28-.411 1.402 1.402 0 0 0-.999-.394 1.392 1.392 0 0 0-.998.393 1.285 1.285 0 0 0-.354.64l.001.03zm-5.196.368v-.011a5.196 5.196 0 0 1 0-.35v-.014c0-.018 0-.018.003-.008a1.285 1.285 0 0 0-.356-.655 1.402 1.402 0 0 0-.998-.393 1.39 1.39 0 0 0-.998.393c-.12.12-.213.253-.281.411a1.08 1.08 0 0 0-.005.88c.07.154.162.287.286.41a1.388 1.388 0 0 0 .998.393 1.39 1.39 0 0 0 .998-.394c.123-.122.216-.255.285-.41.031-.07.054-.142.07-.22l-.002-.032zm9.528 5.566c.713-1.017 1.234-1.92 1.605-2.797.382-.903.574-1.889.574-2.957v-.002c0-1.498-.453-2.662-1.357-3.497l-.018-.04c-.9-.806-2.173-1.216-3.785-1.216-.8 0-1.525.123-2.169.366a4.935 4.935 0 0 0-.597.275 5.39 5.39 0 0 1 1.121 2.01 2.792 2.792 0 0 1 1.645-.515 2.795 2.795 0 0 1 1.98.794c.246.243.439.524.577.842a2.443 2.443 0 0 1 0 1.978c-.139.31-.331.588-.577.83a2.787 2.787 0 0 1-1.98.795 2.787 2.787 0 0 1-2.258-1.118 2.67 2.67 0 0 1-.298-.507 2.52 2.52 0 0 1-.209-.995c0-.096.007-.195.02-.285-.052-1.298-.464-2.33-1.236-3.101l-.007-.007a3.699 3.699 0 0 0-.409-.356 4.255 4.255 0 0 0-.392-.266l-.079-.045c-.81-.464-1.824-.698-3.036-.698-.809 0-1.537.121-2.174.361-.646.244-1.194.577-1.631.994-.46.438-.81.94-1.038 1.497a4.99 4.99 0 0 0-.397 1.906c0 .744.16 1.46.462 2.162a4.294 4.294 0 0 0 1.22 1.6c.502.42 1.107.708 1.819.872.346.079.723.116 1.146.116v-.018h.001c.35 0 .731-.043 1.214-.13l.307-.056-2.9 3.944h3.014l1.943-2.736.19-.27c.071-.102.128-.183.18-.261.076-.11.143-.212.205-.31a5.597 5.597 0 0 1-1.677-2.21 6.035 6.035 0 0 1-.222-.606 2.79 2.79 0 0 1-1.656.524 2.788 2.788 0 0 1-1.98-.796 2.691 2.691 0 0 1-.577-.83 2.443 2.443 0 0 1 0-1.978 2.65 2.65 0 0 1 .577-.842 2.788 2.788 0 0 1 1.98-.795 2.795 2.795 0 0 1 1.98.795 2.683 2.683 0 0 1 .577.842c.096.221.158.45.188.706a5.978 5.978 0 0 0 0 .567c.03.68.168 1.305.413 1.874a4.2 4.2 0 0 0 1.176 1.603l.012.009.017.013a3.961 3.961 0 0 0 .948.572c.258.113.537.203.843.273.345.079.722.116 1.147.116a6.9 6.9 0 0 0 1.214-.131l.308-.056-2.902 3.927h3.014l1.944-2.736zM20.785 5.451C21.581 5.15 22.477 5 23.45 5c1.98 0 3.58.547 4.752 1.629C29.395 7.733 30 9.248 30 11.13c0 1.245-.229 2.415-.681 3.484-.418.987-1.003 2.015-1.747 3.076l-1.983 2.808-.341.453-.099.049h-6.408l.15-.2 1.309-1.755 1.404-1.887a6.077 6.077 0 0 1-1.304-.41c-.184.297-.387.602-.626.942l-1.984 2.808-.34.453-.1.049h-6.407l.149-.2 1.31-1.754 1.403-1.885a6.101 6.101 0 0 1-.213-.044c-.92-.211-1.729-.602-2.402-1.163a5.597 5.597 0 0 1-1.56-2.117C9.178 13.02 9 12.11 9 11.134c0-.866.153-1.68.455-2.421a5.667 5.667 0 0 1 1.34-1.973 6.134 6.134 0 0 1 2.092-1.29c.795-.298 1.692-.45 2.664-.45 1.592 0 2.94.355 4.018 1.058.375-.24.781-.443 1.216-.607z" fill="#FFF" fill-rule="nonzero"/></g></svg>