<svg fill="none" xmlns="http://www.w3.org/2000/svg" viewBox="0 0 81 28"><path d="M0 23.68l1.603-4.168c1.603 1.004 3.373 1.506 5.31 1.506 1.002 0 1.848-.233 2.538-.7.69-.49 1.035-1.168 1.035-2.032 0-.654-.234-1.226-.701-1.716-.468-.49-1.247-1.04-2.338-1.647-3.094-1.728-4.642-3.806-4.642-6.235 0-2.335.835-4.192 2.505-5.57 1.692-1.401 3.807-2.102 6.345-2.102 2.115 0 3.885.386 5.31 1.156l-1.503 4.204c-1.224-.7-2.616-1.04-4.174-1.016-1.091 0-1.937.245-2.538.736-.602.467-.902 1.039-.902 1.716 0 .63.256 1.18.768 1.647.534.467 1.37 1.039 2.505 1.716 2.983 1.611 4.475 3.69 4.475 6.235 0 2.523-.869 4.484-2.605 5.885-1.737 1.378-3.919 2.067-6.546 2.067-2.85-.023-4.998-.584-6.445-1.681z" fill="#000C94"/><path d="M15.328 24.976l4.175-23.19c1.513-.397 3.473-.595 5.877-.595 2.583 0 4.575.513 5.978 1.541 1.625 1.144 2.438 2.826 2.438 5.044 0 2.78-1.013 4.986-3.04 6.621-1.803 1.471-4.207 2.207-7.213 2.207h-.734a75.02 75.02 0 00-.702-.07 3.229 3.229 0 00-.534-.07l-1.536 8.512h-4.709zm8.249-19.617l-1.27 6.971c.557.117 1.18.175 1.87.175 1.404 0 2.55-.408 3.44-1.226.891-.84 1.336-1.868 1.336-3.082 0-1.985-1.135-2.978-3.406-2.978-.78 0-1.436.047-1.97.14z" fill="#009DDF"/><path fill-rule="evenodd" clip-rule="evenodd" d="M19.695 1.978l-4.098 22.765h4.255l1.502-8.323c.02-.11.112-.19.219-.19.131 0 .323.026.564.072.238.023.466.046.683.069h.723c2.972 0 5.323-.728 7.077-2.158v-.001c1.97-1.589 2.953-3.726 2.953-6.436 0-2.148-.781-3.753-2.34-4.85l-.003-.002c-1.35-.99-3.291-1.5-5.85-1.5-2.322 0-4.215.186-5.685.554zm-.247-.418c1.539-.404 3.518-.603 5.932-.603 2.605 0 4.65.518 6.104 1.582 1.69 1.192 2.534 2.95 2.534 5.237 0 2.849-1.042 5.125-3.125 6.806-1.853 1.511-4.31 2.255-7.35 2.255h-.757a73.855 73.855 0 00-.719-.073 5.326 5.326 0 00-.312-.052l-1.5 8.308a.226.226 0 01-.218.19h-4.709a.219.219 0 01-.171-.085.242.242 0 01-.048-.192l4.175-23.19a.23.23 0 01.165-.183zm4.092 3.569c.55-.096 1.22-.143 2.007-.143 1.16 0 2.073.253 2.697.798.632.553.932 1.372.932 2.413 0 1.283-.474 2.373-1.41 3.256l-.002.002c-.938.861-2.14 1.284-3.586 1.284-.702 0-1.34-.06-1.914-.18a.233.233 0 01-.175-.272l1.269-6.971a.228.228 0 01.182-.187zm.226.436l-1.198 6.578c.485.086 1.02.129 1.61.129 1.358 0 2.45-.395 3.292-1.167.845-.798 1.26-1.763 1.26-2.908 0-.944-.267-1.614-.77-2.054-.512-.447-1.303-.69-2.413-.69-.698 0-1.29.038-1.781.112z" fill="#009DDF"/><path d="M72.637 16.413h-3.09l1.115-6.225-2.833-9.032h3.306l.923 3.87c.272 1.208.458 2.129.558 2.762h.043c.644-1.222 1.137-2.15 1.48-2.784l2.169-3.848H80l-6.246 8.964-1.117 6.293z" fill="#000C94"/><path fill-rule="evenodd" clip-rule="evenodd" d="M67.649 1.019a.22.22 0 01.18-.097h3.306c.102 0 .19.073.216.177l.923 3.871v.003c.199.88.352 1.61.46 2.19.514-.973.918-1.731 1.212-2.274l.002-.004 2.168-3.848a.22.22 0 01.192-.115H80c.084 0 .16.05.198.128a.243.243 0 01-.018.243l-6.217 8.922-1.107 6.24a.226.226 0 01-.219.192h-3.09a.219.219 0 01-.172-.085.242.242 0 01-.047-.192l1.105-6.166-2.815-8.975a.243.243 0 01.03-.21zm.488.37l2.737 8.726a.245.245 0 01.007.116l-1.066 5.949h2.637l1.082-6.103a.239.239 0 01.04-.095L79.56 1.39h-3.126l-2.103 3.732c-.342.633-.835 1.56-1.478 2.78a.221.221 0 01-.195.12h-.043a.226.226 0 01-.22-.194c-.099-.626-.283-1.54-.555-2.745l-.88-3.693h-2.824z" fill="#000C94"/><path d="M53.878 16.273l2.7-14.932A22.597 22.597 0 0160.616 1c2.304 0 4.068.554 5.292 1.662 1.281 1.107 1.922 2.708 1.922 4.802 0 1.457-.267 2.807-.8 4.052-.532 1.229-1.26 2.23-2.18 3.004-1.599 1.366-3.924 2.049-6.977 2.049-1.598 0-2.93-.099-3.995-.296zm5.42-12.542l-1.835 10.107c.374.045.828.068 1.36.068 1.786 0 3.161-.592 4.126-1.776 1.008-1.198 1.511-2.746 1.511-4.643 0-1.23-.323-2.177-.971-2.845-.648-.683-1.606-1.024-2.873-1.024-.518 0-.957.038-1.317.113z" fill="#000C94"/><path fill-rule="evenodd" clip-rule="evenodd" d="M56.767 1.544L54.14 16.082c1.01.168 2.254.253 3.734.253 3.025 0 5.292-.677 6.836-1.996l.001-.001c.892-.749 1.598-1.72 2.118-2.918.519-1.213.779-2.53.779-3.956 0-2.04-.621-3.568-1.841-4.622a.098.098 0 01-.004-.004c-1.17-1.058-2.873-1.605-5.146-1.605-1.37 0-2.653.104-3.849.311zm-.228-.433a22.81 22.81 0 014.077-.345c2.334 0 4.157.56 5.435 1.717 1.342 1.161 2.001 2.834 2.001 4.981 0 1.488-.272 2.871-.818 4.147v.001c-.546 1.26-1.294 2.291-2.245 3.09-1.653 1.412-4.036 2.1-7.116 2.1-1.605 0-2.951-.099-4.034-.3a.222.222 0 01-.144-.096.243.243 0 01-.036-.177l2.7-14.931a.228.228 0 01.18-.187zm2.716 2.391a6.71 6.71 0 011.361-.118c1.303 0 2.326.351 3.03 1.092.7.723 1.037 1.739 1.037 3.01 0 1.943-.517 3.548-1.566 4.797-1.016 1.245-2.458 1.856-4.293 1.856-.538 0-1.001-.023-1.387-.07a.22.22 0 01-.153-.093.242.242 0 01-.04-.182L59.08 3.688a.228.228 0 01.175-.186zm.234.43l-1.762 9.698c.314.028.68.042 1.097.042 1.734 0 3.042-.572 3.956-1.694l.002-.002c.965-1.149 1.456-2.638 1.456-4.49 0-1.185-.312-2.066-.905-2.678l-.002-.002c-.593-.624-1.484-.955-2.715-.955-.438 0-.814.028-1.127.081z" fill="#000C94"/><path d="M43.396 7.167l-.527 2.795h-5.25l-.681 3.766h5.909l-.505 2.84h-9.095L36.06 1h8.765l-.527 2.841h-5.58l-.615 3.326h5.294z" fill="#000C94"/><path fill-rule="evenodd" clip-rule="evenodd" d="M35.84.956c.02-.11.112-.19.219-.19h8.765c.067 0 .13.032.172.085.042.054.06.125.047.194l-.528 2.84a.226.226 0 01-.218.19H38.9l-.53 2.859h5.025c.067 0 .13.031.172.085.043.054.06.125.047.194l-.528 2.795a.226.226 0 01-.218.188h-5.066l-.596 3.298h5.64c.066 0 .129.03.171.084.042.054.06.124.048.192l-.505 2.842a.226.226 0 01-.22.19h-9.094a.219.219 0 01-.171-.084.242.242 0 01-.048-.193L35.84.956zm.403.277l-2.727 15.102h8.64l.423-2.374h-5.641a.219.219 0 01-.172-.085.242.242 0 01-.047-.192l.68-3.765c.02-.11.113-.19.22-.19h5.067l.44-2.328h-5.024a.219.219 0 01-.172-.085.242.242 0 01-.047-.193l.615-3.326c.02-.11.112-.19.219-.19h5.396l.44-2.374h-8.31z" fill="#000C94"/><path d="M53.786 7.167l-.528 2.795h-5.25l-.68 3.766h5.909l-.506 2.84h-9.094L46.449 1h8.765l-.528 2.841h-5.58l-.614 3.326h5.294z" fill="#000C94"/><path fill-rule="evenodd" clip-rule="evenodd" d="M46.23.956c.02-.11.112-.19.219-.19h8.765c.066 0 .13.032.172.085.042.054.059.125.046.194l-.527 2.84a.226.226 0 01-.218.19H49.29l-.529 2.859h5.025c.066 0 .13.031.172.085.042.054.06.125.046.194l-.527 2.795a.226.226 0 01-.218.188h-5.066l-.597 3.298h5.64c.067 0 .13.03.172.084.042.054.06.124.047.192l-.505 2.842a.226.226 0 01-.219.19h-9.094a.219.219 0 01-.172-.084.242.242 0 01-.047-.193L46.23.956zm.403.277l-2.727 15.102h8.64l.423-2.374h-5.642a.219.219 0 01-.171-.085.242.242 0 01-.047-.192l.68-3.765c.02-.11.112-.19.22-.19h5.067l.439-2.328h-5.023a.219.219 0 01-.172-.085.242.242 0 01-.047-.193l.615-3.326c.02-.11.112-.19.219-.19h5.396l.44-2.374h-8.31z" fill="#000C94"/><path d="M26.742 24.524h-1.607l.037-.653c.016-.298.028-.494.036-.588h-.024c-.487.921-1.157 1.382-2.009 1.382-.536 0-.97-.2-1.303-.602-.333-.4-.499-.925-.499-1.574 0-.546.085-1.07.256-1.574.178-.511.434-.976.767-1.395.34-.418.791-.755 1.351-1.01.56-.256 1.19-.384 1.887-.384.698 0 1.356.102 1.973.307l-.621 3.276c-.187 1.04-.268 1.979-.244 2.815zm-1.375-3.506l.267-1.446a2.566 2.566 0 00-.474-.052c-.536 0-.999.282-1.388.845-.382.563-.573 1.156-.573 1.779 0 .315.061.567.183.755.122.187.3.281.536.281.292 0 .572-.179.84-.537.276-.367.479-.909.609-1.625z" fill="#009DDF"/><path fill-rule="evenodd" clip-rule="evenodd" d="M26.955 24.74a.29.29 0 01-.213.095h-1.607a.29.29 0 01-.216-.097.32.32 0 01-.08-.232l.013-.242a2.271 2.271 0 01-1.677.712c-.616 0-1.134-.235-1.527-.708-.39-.47-.572-1.072-.572-1.779 0-.58.09-1.14.273-1.678v-.003c.191-.545.464-1.041.819-1.487l.002-.003c.375-.46.864-.822 1.459-1.094l.118.286c-.56.256-1.01.593-1.351 1.01a4.72 4.72 0 00-.767 1.395 4.873 4.873 0 00-.256 1.574c0 .649.166 1.173.5 1.574.332.401.766.602 1.302.602.687 0 1.255-.3 1.705-.898.108-.144.21-.306.304-.484h.024v.013a59.282 59.282 0 00-.035.575l-.038.653h1.607a10.634 10.634 0 01-.004-.311c.001-.756.084-1.59.248-2.504l.62-3.276a6.223 6.223 0 00-1.972-.307c-.698 0-1.327.128-1.887.384l-.118-.286c.602-.275 1.272-.41 2.005-.41.726 0 1.414.107 2.062.322a.313.313 0 01.202.358l-.62 3.274c-.184 1.023-.262 1.938-.239 2.747a.32.32 0 01-.084.226zm-1.88-3.782l.208-1.121a1.647 1.647 0 00-.123-.005c-.418 0-.799.212-1.147.715-.35.516-.517 1.046-.517 1.597 0 .277.054.46.131.58.061.094.143.145.29.145.164 0 .367-.097.607-.418v-.001c.235-.311.425-.798.55-1.49l.001-.002zm-1.303-.593c.39-.563.852-.844 1.388-.844.056 0 .116.002.18.008.091.009.19.023.294.043l-.268 1.446c-.13.716-.332 1.258-.608 1.625-.268.358-.548.537-.84.537a.598.598 0 01-.536-.281c-.122-.188-.183-.44-.183-.755 0-.623.191-1.216.573-1.779z" fill="#009DDF"/><path d="M29.4 27h-1.794l1.184-6.331c.108-.585.224-1.403.349-2.454h1.607l-.112.953h.024c.515-.695 1.167-1.042 1.956-1.042.631 0 1.117.224 1.458.674.34.449.51 1.012.51 1.69 0 1.12-.332 2.09-.996 2.912-.665.814-1.512 1.22-2.541 1.22-.466 0-.84-.084-1.122-.254h-.037L29.4 27zm.997-5.403l-.224 1.347c.216.195.49.293.822.293.465 0 .863-.276 1.196-.827.34-.55.51-1.144.51-1.78 0-.28-.066-.517-.199-.712-.125-.203-.32-.305-.586-.305-.34 0-.651.183-.934.547-.282.356-.477.835-.585 1.437z" fill="#009DDF"/><path fill-rule="evenodd" clip-rule="evenodd" d="M29.692 27.06a.3.3 0 01-.292.252h-1.794a.292.292 0 01-.229-.114.323.323 0 01-.062-.258l1.183-6.33v-.001c.107-.575.222-1.384.346-2.433a.302.302 0 01.295-.273h1.607a.29.29 0 01.222.106.321.321 0 01.072.244l-.011.096a2.521 2.521 0 011.585-.535c.706 0 1.284.256 1.69.792.39.514.575 1.15.575 1.885 0 1.19-.355 2.232-1.067 3.112v.002c-.722.883-1.652 1.329-2.767 1.329-.347 0-.66-.044-.935-.14l-.418 2.265zM29.4 27h-1.794l1.184-6.331c.108-.585.224-1.403.349-2.454h1.607l-.113.953h.025c.1-.135.207-.258.318-.367a2.254 2.254 0 011.638-.675c.631 0 1.117.224 1.458.674.34.449.51 1.012.51 1.69 0 1.12-.332 2.09-.996 2.912-.665.814-1.512 1.22-2.541 1.22-.342 0-.635-.045-.878-.137a1.51 1.51 0 01-.244-.117h-.037L29.4 27zm2.54-4.756l.002-.003c.31-.502.462-1.037.462-1.61a.914.914 0 00-.144-.531l-.008-.013c-.06-.1-.153-.162-.336-.162-.224 0-.458.115-.703.431l-.003.003c-.24.304-.42.728-.521 1.293l-.192 1.153c.133.078.296.12.498.12.33 0 .646-.186.945-.681zm-1.768.7l.225-1.347c.108-.602.303-1.081.585-1.437.283-.364.594-.547.934-.547.266 0 .461.102.586.306.133.194.2.432.2.712 0 .635-.17 1.229-.511 1.78-.333.55-.731.826-1.196.826-.332 0-.607-.098-.823-.293z" fill="#009DDF"/><path d="M40.084 22.947l.124 1.362c-.636.341-1.392.511-2.268.511-.851 0-1.5-.236-1.946-.707-.447-.48-.67-1.149-.67-2.005 0-.663.137-1.292.41-1.886.28-.603.693-1.1 1.239-1.494a3.127 3.127 0 011.884-.602c.62 0 1.124.174 1.512.524.397.35.595.816.595 1.402 0 1.502-1.314 2.218-3.942 2.148.017.27.083.49.199.655.24.332.628.498 1.165.498.603 0 1.17-.135 1.698-.406zm-.793-2.909a.458.458 0 00-.186-.38c-.116-.104-.273-.157-.471-.157-.38 0-.698.136-.955.406a1.96 1.96 0 00-.483.918c.719.008 1.248-.044 1.587-.158.338-.122.508-.332.508-.629z" fill="#009DDF"/><path fill-rule="evenodd" clip-rule="evenodd" d="M38.857 18.282c-.674 0-1.272.192-1.8.575-.525.378-.92.855-1.19 1.433a4.307 4.307 0 00-.394 1.819c0 .826.214 1.451.626 1.895.41.433 1.015.66 1.84.66.817 0 1.519-.15 2.112-.447l-.095-1.038a3.82 3.82 0 01-1.57.33c-.566 0-1.007-.176-1.284-.56l-.001-.002c-.137-.196-.209-.446-.227-.737a.16.16 0 01.041-.118.145.145 0 01.111-.047c1.306.034 2.26-.128 2.884-.468.31-.168.534-.379.682-.628.147-.25.224-.546.224-.897 0-.543-.182-.965-.542-1.283h-.001c-.356-.321-.824-.487-1.416-.487zm-1.968.318c.58-.42 1.237-.63 1.968-.63.647 0 1.188.183 1.608.561.433.382.648.894.648 1.52 0 .4-.088.757-.269 1.062-.18.305-.45.551-.797.74-.66.36-1.618.524-2.858.506.028.168.08.3.15.403.203.28.54.436 1.047.436.581 0 1.125-.13 1.633-.39a.142.142 0 01.138.003c.042.025.07.07.075.121l.124 1.363a.157.157 0 01-.08.153c-.662.354-1.442.528-2.336.528-.877 0-1.57-.243-2.052-.753v-.001c-.48-.517-.712-1.229-.712-2.113 0-.687.141-1.34.423-1.955a3.939 3.939 0 011.29-1.554zm.685 1.198a1.406 1.406 0 011.06-.452c.22 0 .414.058.564.191a.615.615 0 01.241.502.746.746 0 01-.162.48.99.99 0 01-.446.296h-.003c-.363.122-.912.174-1.634.165a.146.146 0 01-.115-.059.162.162 0 01-.028-.131c.081-.37.256-.7.521-.99l.002-.002zm.212.218a1.83 1.83 0 00-.393.654c.613-.003 1.057-.055 1.343-.15a.698.698 0 00.315-.202.426.426 0 00.091-.28.3.3 0 00-.134-.262c-.082-.073-.2-.119-.374-.119-.342 0-.622.12-.848.36z" fill="#009DDF"/><path d="M42.792 24.509h-1.679l.641-3.715c.032-.17.129-1.013.292-2.528h1.457c0 .026-.016.204-.047.536-.023.324-.043.57-.058.74h.035c.466-.944 1.072-1.416 1.818-1.416.14 0 .245.004.315.012l-.326 1.788a1.957 1.957 0 00-.269-.013c-.932 0-1.526.758-1.783 2.273l-.396 2.323z" fill="#009DDF"/><path fill-rule="evenodd" clip-rule="evenodd" d="M43.064 24.56a.28.28 0 01-.273.24h-1.678a.272.272 0 01-.213-.105.3.3 0 01-.06-.238l.641-3.715.001-.003c.028-.156.124-.982.288-2.506a.282.282 0 01.275-.257h1.457c.153 0 .277.13.277.29 0 .03-.006.1-.013.18l-.008.095c.412-.457.908-.706 1.493-.706.142 0 .26.004.346.015.077.01.146.051.192.117a.302.302 0 01.048.226l-.326 1.787a.278.278 0 01-.313.233 1.76 1.76 0 00-.227-.01c-.383 0-.687.15-.932.463-.254.324-.455.837-.579 1.57l-.396 2.324zm.392-5.758a89.187 89.187 0 00.046-.536h-1.457c-.163 1.515-.26 2.358-.291 2.528l-.641 3.715h1.678l.397-2.324c.256-1.514.85-2.272 1.783-2.272.124 0 .214.004.268.013l.326-1.787a2.614 2.614 0 00-.28-.013h-.034c-.604 0-1.116.309-1.536.927-.1.146-.194.31-.283.49h-.035l.002-.018a24.176 24.176 0 00.046-.573l.01-.15z" fill="#009DDF"/></svg>