<svg fill="none" xmlns="http://www.w3.org/2000/svg" viewBox="0 0 331 78"><path fill-rule="evenodd" clip-rule="evenodd" d="M0 39.023C0 17.45 17.462 0 39 0s39 17.45 39 39.023C78 60.552 60.538 78 39 78S0 60.552 0 39.023zm3.466 0c0 19.58 15.939 35.51 35.534 35.51 19.596 0 35.533-15.93 35.533-35.51C74.533 19.395 58.596 3.466 39 3.466c-19.595 0-35.534 15.93-35.534 35.555zm14.278-7.051s-.513-.128-.593-.518c-.08-.39.328-.779.328-.779l30.609-6.959s.569.141.652.487c.084.346-.367.694-.367.694l-30.63 7.075zm1.737 6.925s-.513-.128-.593-.518c-.079-.39.328-.78.328-.78l30.61-6.958s.568.141.651.487c.084.346-.367.694-.367.694l-30.629 7.075zm1.562 7.626s-.513-.128-.593-.517c-.08-.39.328-.78.328-.78l16.705-3.958s.569.142.652.487c.084.346-.367.694-.367.694l-16.725 4.074zm-7.06-24.612a3.5 3.5 0 00-2.628 4.195l.077.336a50585.974 50585.974 0 012.583 11.246c.714 3.108 2.338 10.112 3.464 14.964a5.246 5.246 0 006.292 3.925l30.19-6.974a5.249 5.249 0 003.929-6.318 3861.78 3861.78 0 01-3.481-14.863l-1.723-7.498-.862-3.748-.078-.34a3.5 3.5 0 00-4.192-2.626L13.982 21.91zm46.9 27.244L46.948 61.804l.007.008a2.625 2.625 0 00-.175.147c-1.323 1.2-1.52 3.134-.441 4.32 1.075 1.184 3.022 1.173 4.345-.027.094-.088.183-.18.269-.272L64.77 53.433l-3.888-4.278zm7.326-2.666l-1.478 3.227-1.413 3.305-1.947-2.14-1.96-2.159 3.443-1.07 3.355-1.163z" fill="#286BB8"/><path d="M110.85 48.673v3.706H93v-23.8h17.374v3.706H97.42v6.188h11.492v3.638H97.42v6.562h13.43zM123.155 52.719a18.33 18.33 0 01-5.338-.782c-1.7-.521-3.048-1.213-4.046-2.074l1.53-3.434c.975.77 2.165 1.405 3.57 1.904 1.428.476 2.856.714 4.284.714 1.768 0 3.083-.283 3.944-.85.884-.567 1.326-1.315 1.326-2.244 0-.68-.249-1.235-.748-1.666-.476-.453-1.088-.805-1.836-1.054-.748-.25-1.768-.533-3.06-.85-1.813-.43-3.286-.861-4.42-1.292a7.489 7.489 0 01-2.89-2.006c-.793-.93-1.19-2.176-1.19-3.74 0-1.315.352-2.505 1.054-3.57.726-1.088 1.802-1.95 3.23-2.584 1.451-.635 3.219-.952 5.304-.952 1.451 0 2.879.181 4.284.544 1.406.363 2.618.884 3.638 1.564l-1.394 3.434a13.728 13.728 0 00-3.264-1.394 12.205 12.205 0 00-3.298-.476c-1.745 0-3.048.295-3.91.884-.838.59-1.258 1.371-1.258 2.346 0 .68.238 1.235.714 1.666.499.43 1.122.77 1.87 1.02s1.768.533 3.06.85c1.768.408 3.219.839 4.352 1.292a7.156 7.156 0 012.89 2.006c.816.907 1.224 2.13 1.224 3.672a6.196 6.196 0 01-1.088 3.57c-.702 1.065-1.779 1.915-3.23 2.55-1.45.635-3.218.952-5.304.952zM144.538 52.719a18.33 18.33 0 01-5.338-.782c-1.7-.521-3.049-1.213-4.046-2.074l1.53-3.434c.975.77 2.165 1.405 3.57 1.904 1.428.476 2.856.714 4.284.714 1.768 0 3.083-.283 3.944-.85.884-.567 1.326-1.315 1.326-2.244 0-.68-.249-1.235-.748-1.666-.476-.453-1.088-.805-1.836-1.054-.748-.25-1.768-.533-3.06-.85-1.813-.43-3.287-.861-4.42-1.292a7.481 7.481 0 01-2.89-2.006c-.793-.93-1.19-2.176-1.19-3.74 0-1.315.351-2.505 1.054-3.57.725-1.088 1.802-1.95 3.23-2.584 1.451-.635 3.219-.952 5.304-.952 1.451 0 2.879.181 4.284.544 1.405.363 2.618.884 3.638 1.564l-1.394 3.434a13.763 13.763 0 00-3.264-1.394 12.21 12.21 0 00-3.298-.476c-1.745 0-3.049.295-3.91.884-.839.59-1.258 1.371-1.258 2.346 0 .68.238 1.235.714 1.666.499.43 1.122.77 1.87 1.02s1.768.533 3.06.85c1.768.408 3.219.839 4.352 1.292a7.163 7.163 0 012.89 2.006c.816.907 1.224 2.13 1.224 3.672a6.203 6.203 0 01-1.088 3.57c-.703 1.065-1.779 1.915-3.23 2.55-1.451.635-3.219.952-5.304.952zM173.979 46.871h-11.9l-2.346 5.508h-4.556l10.71-23.8h4.352l10.744 23.8h-4.624l-2.38-5.508zm-1.462-3.468l-4.488-10.404-4.454 10.404h8.942zM192.85 43.981v8.398h-4.42v-8.33l-9.35-15.47h4.726l6.97 11.594 7.038-11.594h4.352l-9.316 15.402z" fill="#000"/><path d="M215.302 28.647c2.108 0 3.933.351 5.474 1.054 1.564.703 2.765 1.7 3.604 2.992s1.258 2.822 1.258 4.59c0 1.745-.419 3.275-1.258 4.59-.839 1.292-2.04 2.29-3.604 2.992-1.541.68-3.366 1.02-5.474 1.02h-4.794v6.562H205v-23.8h10.302zm-.306 12.75c1.655 0 2.913-.351 3.774-1.054.861-.725 1.292-1.745 1.292-3.06 0-1.337-.431-2.357-1.292-3.06-.861-.725-2.119-1.088-3.774-1.088h-4.488v8.262h4.488zM244.734 52.447l-4.59-6.63h-5.066v6.63h-5.508v-23.8h10.302c2.108 0 3.933.351 5.474 1.054 1.564.703 2.766 1.7 3.604 2.992.839 1.292 1.258 2.822 1.258 4.59 0 1.768-.43 3.298-1.292 4.59-.838 1.27-2.04 2.244-3.604 2.924l5.338 7.65h-5.916zm-.102-15.164c0-1.337-.43-2.357-1.292-3.06-.861-.725-2.119-1.088-3.774-1.088h-4.488v8.296h4.488c1.655 0 2.913-.363 3.774-1.088.862-.725 1.292-1.745 1.292-3.06zM266.098 52.855c-2.47 0-4.703-.533-6.698-1.598-1.972-1.065-3.524-2.527-4.658-4.386-1.11-1.881-1.666-3.99-1.666-6.324 0-2.335.556-4.431 1.666-6.29 1.134-1.881 2.686-3.355 4.658-4.42 1.995-1.065 4.228-1.598 6.698-1.598 2.471 0 4.692.533 6.664 1.598 1.972 1.065 3.525 2.539 4.658 4.42 1.134 1.859 1.7 3.955 1.7 6.29s-.566 4.443-1.7 6.324c-1.133 1.859-2.686 3.32-4.658 4.386-1.972 1.065-4.193 1.598-6.664 1.598zm0-4.692c1.406 0 2.675-.317 3.808-.952a6.945 6.945 0 002.652-2.72c.658-1.156.986-2.47.986-3.944 0-1.473-.328-2.788-.986-3.944a6.712 6.712 0 00-2.652-2.686c-1.133-.657-2.402-.986-3.808-.986-1.405 0-2.674.329-3.808.986a6.958 6.958 0 00-2.686 2.686c-.634 1.156-.952 2.47-.952 3.944 0 1.473.318 2.788.952 3.944a7.206 7.206 0 002.686 2.72c1.134.635 2.403.952 3.808.952z" fill="#286BB8"/><path d="M280.641 52.942c-.454 0-.84-.15-1.161-.448a1.56 1.56 0 01-.48-1.166c0-.48.153-.869.46-1.167a1.67 1.67 0 011.181-.447c.467 0 .854.149 1.161.447.32.298.48.687.48 1.167 0 .466-.16.855-.48 1.166-.32.299-.707.448-1.161.448zM291.06 53c-1.414 0-2.695-.298-3.843-.894a6.939 6.939 0 01-2.681-2.509c-.641-1.063-.961-2.262-.961-3.597s.327-2.534.981-3.597a6.793 6.793 0 012.682-2.49c1.147-.608 2.428-.913 3.842-.913 1.147 0 2.195.194 3.142.583a6.41 6.41 0 012.402 1.692l-1.682 1.536c-1.014-1.063-2.261-1.594-3.742-1.594-.961 0-1.821.207-2.582.622a4.418 4.418 0 00-1.781 1.692c-.427.726-.64 1.549-.64 2.469 0 .92.213 1.743.64 2.47a4.554 4.554 0 001.781 1.71c.761.402 1.621.603 2.582.603 1.481 0 2.728-.538 3.742-1.614l1.682 1.556a6.373 6.373 0 01-2.422 1.692c-.947.389-1.995.583-3.142.583zM305.367 53c-1.427 0-2.715-.298-3.862-.894-1.147-.61-2.048-1.446-2.702-2.509-.653-1.076-.98-2.275-.98-3.597s.327-2.515.98-3.578a6.724 6.724 0 012.702-2.508c1.147-.61 2.435-.914 3.862-.914 1.428 0 2.716.305 3.863.914 1.147.596 2.048 1.426 2.702 2.489.654 1.063.98 2.262.98 3.597s-.326 2.534-.98 3.597c-.654 1.063-1.555 1.9-2.702 2.509-1.147.596-2.435.894-3.863.894zm0-2.217c.934 0 1.775-.2 2.522-.602a4.589 4.589 0 001.761-1.712c.427-.738.641-1.562.641-2.469 0-.907-.214-1.724-.641-2.45a4.411 4.411 0 00-1.761-1.711c-.747-.415-1.588-.622-2.522-.622-.933 0-1.774.207-2.521.622a4.411 4.411 0 00-1.761 1.711c-.427.726-.641 1.543-.641 2.45 0 .907.214 1.73.641 2.47a4.589 4.589 0 001.761 1.71c.747.402 1.588.603 2.521.603zM328.538 52.806l-.02-9.023-4.603 7.467h-1.16l-4.603-7.35v8.906h-2.482V39.195h2.141l5.564 9.022 5.464-9.023h2.141l.02 13.612h-2.462z" fill="#000"/></svg>