<svg fill="none" xmlns="http://www.w3.org/2000/svg" viewBox="0 0 135 70"><rect width="135" height="69.98" rx="10" fill="url(#a)"/><path d="m21 46.17 1.884-4.81c1.883 1.16 3.963 1.739 6.238 1.739 1.178 0 2.172-.27 2.983-.808.81-.566 1.216-1.348 1.216-2.345 0-.754-.274-1.414-.824-1.98-.55-.566-1.465-1.2-2.747-1.9-3.636-1.994-5.454-4.392-5.454-7.195 0-2.694.981-4.836 2.943-6.426 1.988-1.617 4.473-2.425 7.455-2.425 2.486 0 4.565.444 6.24 1.333l-1.766 4.85c-1.439-.808-3.074-1.198-4.905-1.171-1.282 0-2.276.282-2.982.848-.707.54-1.06 1.2-1.06 1.98 0 .728.301 1.362.903 1.9.628.54 1.609 1.2 2.943 1.981 3.505 1.86 5.258 4.258 5.258 7.195 0 2.91-1.02 5.173-3.06 6.79-2.041 1.59-4.605 2.385-7.692 2.385-3.348-.027-5.873-.674-7.573-1.94Z" fill="#000C94"/><path d="m39.01 47.665 4.905-26.757c1.78-.458 4.081-.687 6.907-.687 3.034 0 5.375.593 7.023 1.778 1.91 1.32 2.865 3.26 2.865 5.82 0 3.207-1.19 5.753-3.57 7.64-2.12 1.697-4.945 2.546-8.477 2.546H47.8a89.319 89.319 0 0 0-.824-.08 3.854 3.854 0 0 0-.628-.081l-1.805 9.821h-5.532Zm9.693-22.634-1.491 8.043a10.93 10.93 0 0 0 2.197.202c1.648 0 2.995-.472 4.042-1.415 1.046-.97 1.57-2.155 1.57-3.556 0-2.29-1.335-3.436-4.003-3.436-.916 0-1.688.054-2.315.162Z" fill="#009DDF"/><path fill-rule="evenodd" clip-rule="evenodd" d="m44.142 21.128-4.816 26.268h5l1.766-9.603a.264.264 0 0 1 .257-.22c.154 0 .379.031.663.084.28.026.546.052.801.079h.85c3.492 0 6.255-.84 8.316-2.49 2.314-1.834 3.47-4.3 3.47-7.427 0-2.478-.918-4.33-2.75-5.596l-.003-.003c-1.587-1.142-3.868-1.73-6.874-1.73-2.728 0-4.953.215-6.68.638Zm-.29-.482c1.808-.465 4.133-.695 6.97-.695 3.061 0 5.462.597 7.171 1.826 1.988 1.375 2.979 3.402 2.979 6.042 0 3.287-1.225 5.913-3.672 7.853-2.178 1.744-5.065 2.603-8.636 2.603H47.8a88.793 88.793 0 0 0-.87-.085 6.502 6.502 0 0 0-.368-.06l-1.761 9.585a.264.264 0 0 1-.258.22h-5.532a.258.258 0 0 1-.202-.098.276.276 0 0 1-.055-.222l4.905-26.757a.267.267 0 0 1 .193-.212Zm4.808 4.119c.647-.111 1.434-.166 2.358-.166 1.364 0 2.436.292 3.17.922.742.637 1.094 1.582 1.094 2.784 0 1.48-.557 2.738-1.656 3.757l-.003.002c-1.102.994-2.515 1.481-4.214 1.481-.824 0-1.575-.068-2.248-.207a.27.27 0 0 1-.206-.315l1.49-8.043a.266.266 0 0 1 .215-.215Zm.265.503-1.407 7.59c.569.099 1.2.149 1.891.149 1.596 0 2.878-.456 3.868-1.347.993-.92 1.482-2.034 1.482-3.355 0-1.09-.315-1.863-.907-2.37-.6-.516-1.53-.797-2.834-.797a14.5 14.5 0 0 0-2.093.13Z" fill="#009DDF"/><path d="M106.349 37.785h-3.632l1.312-7.183-3.33-10.422h3.884l1.085 4.466c.319 1.393.538 2.456.656 3.187h.05c.757-1.41 1.337-2.482 1.74-3.213l2.548-4.44H115l-7.34 10.343-1.311 7.262Z" fill="#000C94"/><path fill-rule="evenodd" clip-rule="evenodd" d="M100.488 20.022a.259.259 0 0 1 .212-.112h3.884c.12 0 .224.084.254.204l1.084 4.467.001.003c.233 1.016.413 1.859.54 2.528a272.77 272.77 0 0 1 1.424-2.625l.003-.004 2.547-4.44a.26.26 0 0 1 .225-.133H115a.26.26 0 0 1 .233.148c.045.09.037.199-.022.28l-7.304 10.295-1.301 7.2a.264.264 0 0 1-.257.22h-3.632a.26.26 0 0 1-.201-.097.276.276 0 0 1-.056-.221l1.299-7.115-3.308-10.356a.278.278 0 0 1 .037-.242Zm.573.427 3.216 10.068c.014.043.017.09.009.134l-1.253 6.864h3.099l1.272-7.041a.259.259 0 0 1 .046-.11l7.035-9.915h-3.674l-2.47 4.306c-.403.73-.982 1.8-1.738 3.208a.26.26 0 0 1-.229.14h-.05a.264.264 0 0 1-.258-.226c-.116-.722-.333-1.777-.652-3.167l-1.034-4.26h-3.319Z" fill="#000C94"/><path d="m84.306 37.623 3.172-17.23C88.95 20.132 90.53 20 92.223 20c2.707 0 4.78.64 6.218 1.917 1.505 1.278 2.258 3.125 2.258 5.542 0 1.68-.313 3.239-.939 4.675-.626 1.418-1.48 2.573-2.563 3.466-1.878 1.576-4.61 2.364-8.197 2.364-1.877 0-3.442-.114-4.694-.341Zm6.37-14.471-2.158 11.66c.44.053.973.08 1.599.08 2.098 0 3.713-.684 4.847-2.05 1.184-1.383 1.776-3.168 1.776-5.357 0-1.418-.38-2.512-1.142-3.283-.76-.788-1.886-1.182-3.375-1.182-.609 0-1.125.044-1.548.132Z" fill="#000C94"/><path fill-rule="evenodd" clip-rule="evenodd" d="m87.701 20.628-3.088 16.774c1.187.194 2.648.292 4.388.292 3.554 0 6.218-.78 8.031-2.303l.002-.001c1.048-.864 1.877-1.984 2.488-3.367.61-1.399.916-2.92.916-4.564 0-2.354-.73-4.117-2.163-5.334l-.005-.004c-1.374-1.22-3.376-1.852-6.046-1.852-1.61 0-3.118.12-4.523.36Zm-.267-.5c1.488-.265 3.085-.398 4.79-.398 2.742 0 4.883.647 6.385 1.981 1.577 1.34 2.352 3.27 2.352 5.748 0 1.716-.32 3.312-.962 4.785v.001c-.642 1.453-1.52 2.643-2.637 3.565-1.943 1.63-4.743 2.423-8.361 2.423-1.887 0-3.468-.114-4.74-.345a.261.261 0 0 1-.17-.112.276.276 0 0 1-.042-.204l3.172-17.228a.265.265 0 0 1 .212-.216Zm3.19 2.76c.445-.093.98-.137 1.6-.137 1.53 0 2.733.405 3.56 1.26.823.834 1.218 2.006 1.218 3.474 0 2.24-.607 4.093-1.84 5.534-1.193 1.437-2.888 2.142-5.045 2.142-.632 0-1.175-.027-1.629-.08a.26.26 0 0 1-.18-.11.275.275 0 0 1-.046-.209l2.157-11.66a.266.266 0 0 1 .205-.215Zm.275.496-2.07 11.19c.37.032.798.048 1.288.048 2.039 0 3.575-.66 4.648-1.954l.003-.004c1.135-1.325 1.711-3.043 1.711-5.179 0-1.368-.366-2.385-1.064-3.09l-.002-.003c-.696-.72-1.743-1.102-3.19-1.102-.515 0-.956.032-1.324.094Z" fill="#000C94"/><path d="m71.99 27.116-.62 3.225h-6.168l-.8 4.345h6.943l-.594 3.278H60.065L63.37 20h10.3l-.62 3.278h-6.557l-.722 3.838h6.22Z" fill="#000C94"/><path fill-rule="evenodd" clip-rule="evenodd" d="M63.112 19.95a.264.264 0 0 1 .257-.22h10.3c.078 0 .152.036.201.099.05.062.07.143.055.222l-.62 3.279a.264.264 0 0 1-.256.218h-6.34l-.622 3.299h5.904c.078 0 .152.036.202.098.05.063.07.145.054.224l-.62 3.225a.264.264 0 0 1-.256.217H65.42l-.701 3.805h6.627c.078 0 .152.036.201.098.05.061.07.142.056.221l-.593 3.278a.264.264 0 0 1-.257.22H60.065a.259.259 0 0 1-.201-.097.275.275 0 0 1-.056-.222l3.304-17.964Zm.474.32-3.205 17.424h10.153l.496-2.739h-6.628a.259.259 0 0 1-.202-.097.275.275 0 0 1-.055-.222l.8-4.345a.264.264 0 0 1 .257-.22h5.954l.516-2.685H65.77a.259.259 0 0 1-.202-.098.275.275 0 0 1-.055-.223l.723-3.838a.264.264 0 0 1 .257-.218h6.34l.518-2.74h-9.765Z" fill="#000C94"/><path d="m84.198 27.116-.62 3.225h-6.169l-.8 4.345h6.943l-.593 3.278H72.272L75.576 20h10.3l-.62 3.278H78.7l-.723 3.838h6.22Z" fill="#000C94"/><path fill-rule="evenodd" clip-rule="evenodd" d="M75.32 19.95a.264.264 0 0 1 .257-.22h10.299c.078 0 .152.036.202.099.05.062.07.143.054.222l-.619 3.279a.264.264 0 0 1-.257.218h-6.34l-.622 3.299h5.904c.078 0 .152.036.202.098.05.063.07.145.055.224l-.62 3.225a.264.264 0 0 1-.256.217h-5.953l-.7 3.805h6.627c.077 0 .151.036.2.098.05.061.071.142.057.221l-.594 3.278a.264.264 0 0 1-.257.22H72.273a.259.259 0 0 1-.202-.097.275.275 0 0 1-.055-.222L75.32 19.95Zm.473.32-3.205 17.424h10.154l.496-2.739h-6.629a.259.259 0 0 1-.201-.097.275.275 0 0 1-.056-.222l.8-4.345a.264.264 0 0 1 .257-.22h5.954l.516-2.685h-5.902a.259.259 0 0 1-.202-.098.275.275 0 0 1-.055-.223l.723-3.838a.264.264 0 0 1 .257-.218h6.34l.518-2.74h-9.765Z" fill="#000C94"/><path d="M52.422 47.142h-1.889l.043-.753c.02-.344.034-.57.043-.679h-.028c-.573 1.063-1.36 1.595-2.36 1.595-.63 0-1.14-.232-1.532-.694-.39-.463-.586-1.068-.586-1.816 0-.63.1-1.236.3-1.817.21-.59.51-1.127.902-1.609.4-.482.93-.871 1.588-1.166.658-.296 1.397-.443 2.217-.443.82 0 1.593.118 2.318.354l-.73 3.78c-.22 1.2-.315 2.284-.286 3.248Zm-1.617-4.045.315-1.669c-.21-.04-.396-.059-.558-.059-.63 0-1.173.325-1.63.975-.45.65-.673 1.333-.673 2.052 0 .364.071.655.214.871.143.217.353.325.63.325.343 0 .672-.207.987-.62.324-.424.563-1.049.715-1.875Z" fill="#009DDF"/><path fill-rule="evenodd" clip-rule="evenodd" d="M52.672 47.392a.344.344 0 0 1-.25.11h-1.889a.344.344 0 0 1-.253-.113.366.366 0 0 1-.095-.268l.016-.279a2.693 2.693 0 0 1-1.97.822c-.725 0-1.333-.272-1.795-.817-.457-.542-.672-1.238-.672-2.053a5.9 5.9 0 0 1 .32-1.936l.002-.003c.223-.63.544-1.202.96-1.716l.004-.004c.44-.53 1.015-.948 1.713-1.262l.14.33c-.658.295-1.188.684-1.588 1.166a5.414 5.414 0 0 0-.902 1.61c-.2.58-.3 1.186-.3 1.816 0 .748.195 1.353.587 1.816.39.462.9.694 1.53.694.808 0 1.475-.346 2.004-1.037.127-.166.246-.352.357-.558h.028l-.001.016a58.297 58.297 0 0 0-.042.664l-.043.752h1.889a11.187 11.187 0 0 1-.005-.36c.002-.871.099-1.834.291-2.888l.73-3.78a7.434 7.434 0 0 0-2.318-.354c-.82 0-1.56.147-2.217.443l-.14-.33c.708-.317 1.496-.473 2.357-.473.853 0 1.661.123 2.423.372a.36.36 0 0 1 .237.412l-.73 3.778c-.215 1.181-.307 2.237-.28 3.17a.365.365 0 0 1-.098.26Zm-2.21-4.364.245-1.294a1.975 1.975 0 0 0-.145-.006c-.49 0-.938.245-1.347.825-.41.596-.607 1.208-.607 1.843 0 .32.063.531.154.669.072.108.168.168.34.168.193 0 .432-.113.714-.483.276-.36.5-.922.647-1.72v-.002Zm-1.53-.684c.457-.65 1-.975 1.63-.975.067 0 .137.003.212.01.107.01.222.026.346.05l-.315 1.668c-.152.826-.39 1.451-.715 1.875-.315.413-.644.62-.987.62-.277 0-.486-.108-.63-.325-.143-.217-.214-.507-.214-.871 0-.719.224-1.403.672-2.053Z" fill="#009DDF"/><path d="M55.545 50h-2.107l1.39-7.306c.127-.675.264-1.619.41-2.832h1.888l-.131 1.1h.029c.605-.801 1.37-1.202 2.298-1.202.741 0 1.312.259 1.712.777.4.519.6 1.169.6 1.951 0 1.291-.39 2.411-1.17 3.36-.781.939-1.776 1.408-2.986 1.408-.547 0-.986-.098-1.318-.293h-.044l-.57 3.036Zm1.171-6.235-.263 1.555c.254.225.576.337.966.337.547 0 1.015-.318 1.405-.953.4-.636.6-1.32.6-2.054 0-.323-.078-.597-.234-.822-.146-.235-.376-.352-.688-.352-.4 0-.766.21-1.098.63-.331.412-.56.964-.688 1.659Z" fill="#009DDF"/><path fill-rule="evenodd" clip-rule="evenodd" d="M55.888 50.07a.352.352 0 0 1-.342.29h-2.108a.345.345 0 0 1-.27-.13.368.368 0 0 1-.072-.298l1.39-7.305c.125-.663.26-1.598.406-2.807a.353.353 0 0 1 .346-.315h1.888c.1 0 .196.044.262.121s.097.18.085.282l-.014.111a2.998 2.998 0 0 1 1.863-.617c.83 0 1.509.296 1.985.913.458.593.676 1.327.676 2.175 0 1.373-.417 2.576-1.253 3.592l-.002.001c-.847 1.02-1.94 1.534-3.25 1.534a3.38 3.38 0 0 1-1.099-.161l-.49 2.613ZM55.546 50h-2.108l1.39-7.305c.127-.675.264-1.619.41-2.832h1.888l-.131 1.1h.029c.118-.156.242-.297.373-.423a2.674 2.674 0 0 1 1.925-.78c.741 0 1.312.26 1.712.778.4.518.6 1.169.6 1.951 0 1.291-.39 2.41-1.17 3.36-.781.938-1.776 1.408-2.986 1.408-.402 0-.746-.053-1.032-.159a1.8 1.8 0 0 1-.286-.134h-.043L55.546 50Zm2.983-5.488.003-.003a3.42 3.42 0 0 0 .544-1.858c0-.261-.063-.459-.17-.613a.316.316 0 0 1-.01-.015c-.07-.114-.179-.187-.394-.187-.264 0-.539.133-.827.498l-.002.004c-.284.35-.494.84-.613 1.492l-.226 1.33c.157.09.348.139.585.139.388 0 .76-.216 1.11-.787Zm-2.076.809.264-1.556c.126-.694.356-1.246.688-1.657.331-.42.697-.631 1.097-.631.313 0 .542.117.688.352.156.225.234.499.234.822 0 .733-.2 1.418-.6 2.053-.39.636-.858.954-1.405.954-.39 0-.712-.113-.966-.337Z" fill="#009DDF"/><path d="m68.1 45.323.145 1.572c-.748.393-1.636.59-2.665.59-1 0-1.763-.273-2.287-.817-.524-.554-.786-1.325-.786-2.313 0-.766.16-1.491.48-2.177.33-.695.816-1.27 1.457-1.723a3.721 3.721 0 0 1 2.213-.695c.729 0 1.321.201 1.778.604.466.404.699.943.699 1.618 0 1.733-1.544 2.56-4.632 2.479.02.312.097.564.233.756.281.383.738.574 1.37.574.708 0 1.373-.156 1.995-.468Zm-.933-3.356a.525.525 0 0 0-.218-.439c-.136-.12-.32-.181-.554-.181-.446 0-.82.156-1.121.469-.291.312-.48.665-.568 1.058.845.01 1.466-.05 1.864-.182.398-.14.597-.383.597-.725Z" fill="#009DDF"/><path fill-rule="evenodd" clip-rule="evenodd" d="M66.657 39.941a3.55 3.55 0 0 0-2.115.664 4.208 4.208 0 0 0-1.399 1.654 4.893 4.893 0 0 0-.463 2.098c0 .954.253 1.675.737 2.187.481.5 1.192.763 2.162.763.959 0 1.784-.175 2.48-.517l-.11-1.197c-.58.253-1.196.38-1.846.38-.665 0-1.182-.203-1.508-.646l-.001-.002c-.161-.227-.246-.515-.267-.85a.183.183 0 0 1 .049-.137.171.171 0 0 1 .13-.055c1.534.04 2.656-.147 3.389-.539.363-.194.627-.437.8-.725.174-.288.264-.63.264-1.035 0-.627-.214-1.114-.637-1.48l-.002-.001c-.418-.37-.967-.562-1.663-.562Zm-2.313.368a3.893 3.893 0 0 1 2.313-.727c.76 0 1.395.211 1.89.647.508.44.76 1.032.76 1.755 0 .462-.103.872-.315 1.225-.213.352-.528.635-.937.854-.776.415-1.902.603-3.358.584.032.193.093.346.177.465.238.322.633.502 1.23.502.682 0 1.321-.15 1.918-.45a.17.17 0 0 1 .162.004.18.18 0 0 1 .088.14l.146 1.572a.18.18 0 0 1-.094.177c-.777.408-1.694.609-2.745.609-1.03 0-1.843-.281-2.41-.87h-.002c-.564-.597-.836-1.418-.836-2.439 0-.793.166-1.545.498-2.255a4.566 4.566 0 0 1 1.515-1.793Zm.805 1.382a1.666 1.666 0 0 1 1.246-.522c.26 0 .487.067.662.22.185.144.284.342.284.58a.85.85 0 0 1-.19.554 1.164 1.164 0 0 1-.525.341l-.003.001c-.427.14-1.071.2-1.92.19a.173.173 0 0 1-.135-.068.184.184 0 0 1-.033-.151c.095-.428.3-.809.612-1.143l.002-.002Zm.249.252c-.214.23-.367.481-.461.754.72-.003 1.242-.063 1.578-.173a.822.822 0 0 0 .37-.233.485.485 0 0 0 .107-.322.344.344 0 0 0-.158-.303c-.096-.085-.235-.137-.44-.137-.401 0-.73.138-.996.414Z" fill="#009DDF"/><path d="M71.28 47.125H69.31l.753-4.287c.036-.196.15-1.168.342-2.916h1.712c0 .03-.018.236-.055.619-.027.373-.05.657-.068.854h.041c.548-1.09 1.26-1.635 2.137-1.635.164 0 .287.005.37.015l-.384 2.062a2.34 2.34 0 0 0-.315-.015c-1.096 0-1.794.874-2.096 2.622l-.465 2.681Z" fill="#009DDF"/><path fill-rule="evenodd" clip-rule="evenodd" d="M71.6 47.185a.328.328 0 0 1-.32.276h-1.972a.321.321 0 0 1-.25-.12.342.342 0 0 1-.07-.275l.753-4.286v-.003c.034-.18.147-1.133.34-2.892a.329.329 0 0 1 .323-.297h1.712c.18 0 .325.15.325.335 0 .035-.007.115-.015.207l-.01.11c.484-.527 1.067-.814 1.754-.814.167 0 .306.005.407.017.09.01.172.06.225.134.054.076.074.17.057.262l-.383 2.062a.326.326 0 0 1-.368.268 2.121 2.121 0 0 0-.267-.01c-.45 0-.807.173-1.094.533-.3.374-.535.965-.68 1.812h-.001l-.466 2.681Zm.46-6.643.028-.284c.018-.202.028-.314.028-.335h-1.712c-.192 1.748-.306 2.72-.343 2.917l-.753 4.286h1.972l.466-2.68c.301-1.749 1-2.623 2.095-2.623.146 0 .251.005.315.015l.384-2.062a3.128 3.128 0 0 0-.329-.015h-.04c-.71 0-1.312.357-1.806 1.07a4.681 4.681 0 0 0-.331.565h-.042l.002-.02a29.03 29.03 0 0 0 .054-.661l.013-.173Z" fill="#009DDF"/><defs><linearGradient id="a" x1="67.5" y1="0" x2="67.5" y2="69.98" gradientUnits="userSpaceOnUse"><stop stop-color="#fff"/><stop offset="1" stop-color="#fff"/></linearGradient></defs></svg>