<svg fill="none" xmlns="http://www.w3.org/2000/svg" viewBox="0 0 135 80"><rect width="135" height="79.744" rx="10" fill="#F4F7FF"/><path d="M48.183 43.147v1.32h-6.31v-8.473h6.142v1.32h-4.58v2.202h4.063v1.295h-4.062v2.336h4.747ZM52.53 44.588a6.44 6.44 0 0 1-1.887-.279c-.6-.185-1.077-.431-1.43-.738l.54-1.222c.345.274.766.5 1.263.677.504.17 1.01.255 1.514.255.625 0 1.09-.101 1.394-.303.313-.202.469-.468.469-.799a.75.75 0 0 0-.265-.593 1.704 1.704 0 0 0-.649-.375 14.52 14.52 0 0 0-1.081-.303 12.911 12.911 0 0 1-1.563-.46 2.647 2.647 0 0 1-1.021-.714c-.28-.33-.42-.775-.42-1.331 0-.468.124-.892.372-1.271.256-.387.637-.694 1.142-.92.512-.226 1.137-.339 1.874-.339.513 0 1.018.065 1.515.194.497.129.925.314 1.286.556l-.493 1.223a4.835 4.835 0 0 0-1.154-.496c-.4-.113-.789-.17-1.166-.17-.617 0-1.077.105-1.382.315-.296.21-.444.488-.444.835 0 .242.084.44.252.593.176.154.397.275.66.363.265.089.626.19 1.083.303.624.145 1.137.299 1.538.46.4.153.741.391 1.021.714.289.323.433.759.433 1.307 0 .468-.128.892-.384 1.271-.249.38-.63.682-1.142.908-.513.226-1.138.339-1.875.339ZM60.089 44.588a6.44 6.44 0 0 1-1.887-.279c-.601-.185-1.078-.431-1.43-.738l.54-1.222c.345.274.766.5 1.262.677.505.17 1.01.255 1.515.255.625 0 1.09-.101 1.394-.303.312-.202.468-.468.468-.799a.75.75 0 0 0-.264-.593 1.703 1.703 0 0 0-.649-.375 14.52 14.52 0 0 0-1.082-.303 12.895 12.895 0 0 1-1.562-.46 2.646 2.646 0 0 1-1.022-.714c-.28-.33-.42-.775-.42-1.331 0-.468.124-.892.372-1.271.257-.387.637-.694 1.142-.92.513-.226 1.138-.339 1.875-.339.513 0 1.018.065 1.514.194.497.129.926.314 1.286.556l-.493 1.223a4.849 4.849 0 0 0-1.153-.496c-.4-.113-.79-.17-1.166-.17-.617 0-1.078.105-1.382.315-.297.21-.445.488-.445.835 0 .242.084.44.252.593.177.154.397.275.662.363.264.089.625.19 1.081.303.625.145 1.138.299 1.538.46.401.153.742.391 1.022.714.288.323.433.759.433 1.307 0 .468-.129.892-.385 1.271-.248.38-.629.682-1.142.908-.513.226-1.138.339-1.874.339ZM70.496 42.506H66.29l-.83 1.96h-1.61l3.786-8.472h1.538l3.798 8.473h-1.635l-.841-1.961Zm-.517-1.235-1.586-3.703-1.575 3.703h3.161ZM77.168 41.477v2.99h-1.562V41.5L72.3 35.994h1.67l2.464 4.127 2.488-4.127h1.538l-3.293 5.483Z" fill="#181B22"/><path d="M85.103 36.018c.746 0 1.39.125 1.935.375.553.25.978.605 1.274 1.065.297.46.445 1.005.445 1.634 0 .621-.148 1.166-.445 1.634-.296.46-.72.815-1.274 1.065-.544.242-1.19.363-1.935.363H83.41v2.336h-1.947v-8.472h3.641Zm-.108 4.538c.585 0 1.03-.125 1.334-.375.305-.258.457-.621.457-1.09 0-.475-.152-.838-.457-1.088-.304-.259-.749-.388-1.334-.388H83.41v2.941h1.586ZM95.506 44.49l-1.623-2.36h-1.79v2.36h-1.948v-8.472h3.642c.745 0 1.39.125 1.935.375.553.25.978.605 1.274 1.065.296.46.445 1.005.445 1.634 0 .63-.153 1.174-.457 1.634-.296.452-.721.799-1.274 1.04l1.887 2.724h-2.091Zm-.037-5.398c0-.476-.151-.84-.456-1.09-.305-.258-.75-.387-1.334-.387h-1.587v2.954h1.587c.585 0 1.03-.13 1.334-.388.304-.258.456-.621.456-1.09ZM103.059 44.636c-.873 0-1.662-.19-2.368-.569a4.277 4.277 0 0 1-1.646-1.561c-.392-.67-.589-1.42-.589-2.251 0-.832.197-1.578.589-2.24.4-.67.95-1.194 1.646-1.573.706-.38 1.495-.569 2.368-.569.873 0 1.659.19 2.356.569.697.38 1.246.904 1.646 1.573.401.662.601 1.408.601 2.24 0 .83-.2 1.581-.601 2.25a4.269 4.269 0 0 1-1.646 1.562c-.697.38-1.483.57-2.356.57Zm0-1.67c.497 0 .946-.113 1.346-.34.401-.233.713-.556.937-.967.233-.412.349-.88.349-1.404 0-.525-.116-.993-.349-1.404a2.378 2.378 0 0 0-.937-.957 2.617 2.617 0 0 0-1.346-.35 2.62 2.62 0 0 0-1.346.35c-.4.226-.717.545-.949.957-.225.411-.337.88-.337 1.404 0 .524.112.992.337 1.404.232.411.549.734.949.968.401.226.849.339 1.346.339Z" fill="#286BB8"/><path fill-rule="evenodd" clip-rule="evenodd" d="M9 39.712c0-7.68 6.172-13.892 13.785-13.892 7.614 0 13.786 6.212 13.786 13.892 0 7.664-6.172 13.876-13.785 13.876C15.171 53.588 9 47.376 9 39.712Zm1.225 0c0 6.97 5.634 12.642 12.56 12.642 6.927 0 12.56-5.671 12.56-12.642 0-6.987-5.633-12.658-12.56-12.658-6.926 0-12.56 5.671-12.56 12.658Zm5.047-2.51s-.181-.045-.21-.184c-.028-.139.117-.278.117-.278l10.819-2.477s.2.05.23.173c.03.124-.13.248-.13.248l-10.826 2.518Zm.614 2.465s-.181-.045-.21-.184c-.027-.139.117-.277.117-.277l10.819-2.478s.201.05.23.174c.03.123-.13.247-.13.247l-10.826 2.518Zm.552 2.715s-.181-.045-.21-.184c-.027-.139.117-.277.117-.277l5.905-1.41s.2.05.23.174c.03.123-.13.247-.13.247l-5.912 1.45Zm-2.496-8.761a1.246 1.246 0 0 0-.928 1.493l.027.12.304 1.334c.21.92.446 1.956.61 2.669.252 1.106.825 3.6 1.223 5.327a1.854 1.854 0 0 0 2.224 1.397l10.672-2.482a1.869 1.869 0 0 0 1.389-2.25c-.402-1.718-.98-4.188-1.23-5.29l-.61-2.67-.304-1.334-.028-.12a1.237 1.237 0 0 0-1.482-.936L13.942 33.62Zm16.579 9.698-4.926 4.503.003.003a.879.879 0 0 0-.063.052c-.467.427-.537 1.116-.155 1.538.38.422 1.068.418 1.536-.01a1.84 1.84 0 0 0 .095-.096l4.884-4.467-1.374-1.523Zm2.59-.95-.523 1.15-.5 1.176-.688-.762-.692-.768 1.216-.38 1.186-.415Z" fill="#286BB8"/><path d="M108.199 44.667a.578.578 0 0 1-.41-.16.558.558 0 0 1-.17-.415c0-.17.054-.31.163-.415a.586.586 0 0 1 .417-.16c.165 0 .302.054.411.16a.543.543 0 0 1 .169.415.557.557 0 0 1-.58.575ZM111.881 44.687c-.5 0-.952-.106-1.358-.318a2.458 2.458 0 0 1-.948-.893 2.45 2.45 0 0 1-.34-1.28c0-.476.116-.903.347-1.282.231-.378.547-.673.948-.886a2.834 2.834 0 0 1 1.358-.325c.406 0 .776.07 1.111.208.335.138.618.339.849.602l-.595.547a1.749 1.749 0 0 0-1.322-.568c-.34 0-.644.074-.913.222a1.565 1.565 0 0 0-.63.602 1.72 1.72 0 0 0-.226.88c0 .327.076.62.226.878.151.259.361.462.63.61.269.142.573.214.913.214.523 0 .964-.192 1.322-.575l.595.554a2.256 2.256 0 0 1-.856.602 2.882 2.882 0 0 1-1.111.208ZM116.938 44.687c-.504 0-.96-.106-1.365-.318a2.443 2.443 0 0 1-.955-.893 2.432 2.432 0 0 1-.347-1.28c0-.472.116-.896.347-1.275.231-.383.549-.68.955-.892a2.848 2.848 0 0 1 1.365-.326c.505 0 .96.109 1.365.325.406.213.724.508.956.886.23.379.346.806.346 1.281 0 .475-.116.902-.346 1.28-.232.38-.55.677-.956.894-.405.212-.86.318-1.365.318Zm0-.79c.33 0 .627-.07.891-.214.265-.147.472-.35.623-.609.151-.263.227-.556.227-.879 0-.323-.076-.614-.227-.872a1.56 1.56 0 0 0-.623-.61 1.793 1.793 0 0 0-.891-.22c-.33 0-.627.073-.891.22a1.566 1.566 0 0 0-.623.61c-.151.258-.226.549-.226.872 0 .323.075.616.226.88.151.258.359.46.623.608.264.143.561.215.891.215ZM125.13 44.619l-.007-3.212-1.627 2.658h-.41l-1.627-2.616v3.17h-.878v-4.846h.757l1.967 3.212 1.931-3.212h.757L126 44.62h-.87Z" fill="#181B22"/></svg>