<svg width="24" height="24" viewBox="0 0 24 24" fill="none" xmlns="http://www.w3.org/2000/svg">
<circle cx="12" cy="12" r="12" transform="rotate(-90 12 12)" fill="#E2E9F4"/>
<path d="M16.8 12C16.8 11.66 16.6848 11.3748 16.4544 11.1444C16.224 10.914 15.9392 10.7992 15.6 10.8L11.76 10.8L12.84 9.72C13.06 9.5 13.17 9.22 13.17 8.88C13.17 8.54 13.06 8.26 12.84 8.04C12.62 7.82 12.34 7.71 12 7.71C11.66 7.71 11.38 7.82 11.16 8.04L8.04 11.16C7.92 11.28 7.8352 11.41 7.7856 11.55C7.736 11.69 7.7108 11.84 7.71 12C7.71 12.16 7.7352 12.31 7.7856 12.45C7.836 12.59 7.9208 12.72 8.04 12.84L11.16 15.96C11.38 16.18 11.66 16.29 12 16.29C12.34 16.29 12.62 16.18 12.84 15.96C13.06 15.74 13.17 15.46 13.17 15.12C13.17 14.78 13.06 14.5 12.84 14.28L11.76 13.2L15.6 13.2C15.94 13.2 16.2252 13.0848 16.4556 12.8544C16.686 12.624 16.8008 12.3392 16.8 12ZM24 12C24 13.66 23.6848 15.22 23.0544 16.68C22.424 18.14 21.5692 19.41 20.49 20.49C19.41 21.57 18.14 22.4248 16.68 23.0544C15.22 23.684 13.66 23.9992 12 24C10.34 24 8.78 23.6848 7.32 23.0544C5.86 22.424 4.59 21.5692 3.51 20.49C2.43 19.41 1.5752 18.14 0.9456 16.68C0.316 15.22 0.000799548 13.66 -5.24537e-07 12C-5.97098e-07 10.34 0.315199 8.78 0.945599 7.32C1.576 5.86 2.4308 4.59 3.51 3.51C4.59 2.43 5.86 1.5748 7.32 0.944402C8.78 0.314003 10.34 -0.000799631 12 1.38281e-06C13.66 1.31025e-06 15.22 0.3152 16.68 0.945602C18.14 1.576 19.41 2.4308 20.49 3.51C21.57 4.59 22.4252 5.86 23.0556 7.32C23.686 8.78 24.0008 10.34 24 12ZM21.6 12C21.6 9.34 20.6652 7.0748 18.7956 5.2044C16.926 3.334 14.6608 2.3992 12 2.4C9.34 2.4 7.0748 3.3348 5.2044 5.2044C3.334 7.074 2.3992 9.3392 2.4 12C2.4 14.66 3.3348 16.9252 5.2044 18.7956C7.074 20.666 9.3392 21.6008 12 21.6C14.66 21.6 16.9252 20.6652 18.7956 18.7956C20.666 16.926 21.6008 14.6608 21.6 12Z" fill="#294C68"/>
</svg>
