<svg width="66" height="103" viewBox="0 0 66 103" fill="none" xmlns="http://www.w3.org/2000/svg">
<path d="M22.8941 74.7408H42.9858L48.5668 60.3183L62.3334 47.375V20.0092C51.1713 7.43566 25.2009 -11.7204 10.6159 12.2432C-3.96924 36.2068 9.99574 54.2781 18.8014 60.3183L22.8941 74.7408Z" fill="#F2E1A5"/>
<path fill-rule="evenodd" clip-rule="evenodd" d="M29.1404 0.317809C24.1758 0.943492 19.2823 2.67354 15.3042 5.20918C10.4877 8.27916 6.10703 13.1785 3.48142 18.4321C-2.18614 29.7716 -0.853823 43.3752 6.89389 53.2753C7.58066 54.1528 9.48386 56.2172 11.1232 57.8627C14.4046 61.156 15.4156 62.5911 16.5138 65.5131C17.7532 68.8108 17.8419 69.542 17.941 77.2594L18.031 84.2901H16.2041C14.7679 84.2901 14.208 84.3761 13.5871 84.6916C12.699 85.1432 11.991 86.2922 11.991 87.2819C11.991 88.2716 12.699 89.4206 13.5871 89.8722C14.362 90.2661 14.7305 90.2737 33.0086 90.2737C51.2868 90.2737 51.6553 90.2661 52.4301 89.8722C53.3335 89.4129 54.0281 88.265 54.0231 87.24C54.0185 86.3283 53.2596 85.1009 52.4281 84.6599C51.8933 84.3765 51.2978 84.2901 49.876 84.2901H48.0212V78.3209C48.0212 70.4246 48.3091 68.4745 50.0131 64.827C51.1711 62.3484 52.5559 60.4665 55.6765 57.1315C60.3988 52.0841 62.1998 49.3811 63.921 44.7572C68.3788 32.7831 65.5354 19.2556 56.6631 10.226C51.7318 5.20719 45.8991 2.04886 39.1078 0.720105C36.6403 0.23743 31.4431 0.0276055 29.1404 0.317809ZM37.8897 6.60316C40.4737 7.0992 42.6773 7.85412 45.0668 9.06241C52.7178 12.9314 57.9974 19.9631 59.5439 28.3437C61.2087 37.3661 58.3151 46.1841 51.5262 52.7766C48.5883 55.6296 46.0892 59.068 44.5173 62.42C43.2266 65.172 42.7088 67.1037 42.0899 71.4753L41.998 72.1235H39.0047H36.0112V62.2991V52.4747L41.4375 47.0908C44.422 44.1298 47.1243 41.3079 47.4426 40.8202C48.973 38.4751 47.0875 35.7934 44.2751 36.3158C43.6223 36.4369 42.79 37.1776 38.2614 41.6679L33.0052 46.8792L27.8527 41.7623C25.0187 38.9478 22.4464 36.55 22.1365 36.4337C20.7251 35.9037 19.1936 36.4458 18.4496 37.7387C17.8325 38.8114 17.8701 39.7408 18.5747 40.8202C18.893 41.3079 21.5952 44.1298 24.5797 47.0908L30.0061 52.4747V62.2991V72.1235H27.0158H24.0257L23.9096 71.1761C23.2424 65.7297 21.9938 62.0833 19.5357 58.404C18.5939 56.9946 17.3176 55.5335 15.0421 53.2597C9.89521 48.1168 7.80605 44.4531 6.46453 38.2166C5.9641 35.8914 5.9587 30.6549 6.45392 28.1763C8.08549 20.0108 13.2616 13.0038 20.4943 9.16991C23.3359 7.66365 26.3486 6.72801 29.7277 6.30238C31.581 6.06882 35.9435 6.22958 37.8897 6.60316ZM42.0162 81.1986V84.2901H33.0086H24.0011V81.1986V78.1071H33.0086H42.0162V81.1986ZM25.5546 96.6686C24.7095 97.1131 24.0011 98.2899 24.0011 99.2491C24.0011 100.239 24.7091 101.388 25.5972 101.839C26.3418 102.218 26.7674 102.241 33.0086 102.241C39.2499 102.241 39.6754 102.218 40.4201 101.839C41.3082 101.388 42.0162 100.239 42.0162 99.2491C42.0162 98.2594 41.3082 97.1103 40.4201 96.6588C39.674 96.2796 39.2597 96.2577 32.9666 96.2661C26.7279 96.2744 26.2552 96.3 25.5546 96.6686Z" fill="#294C68"/>
</svg>
