<svg width="29" height="24" viewBox="0 0 29 24" fill="none" xmlns="http://www.w3.org/2000/svg">
<path d="M24.2684 10.7925C24.2684 10.2642 23.8105 9.81132 23.2763 9.81132H7.25C6.71579 9.81132 6.25789 10.2642 6.25789 10.7925C6.25789 11.3208 6.71579 11.7736 7.25 11.7736H23.2763C23.8105 11.7736 24.2684 11.3208 24.2684 10.7925ZM7.25 13.6604C6.71579 13.6604 6.25789 14.1132 6.25789 14.6415C6.25789 15.1698 6.71579 15.6226 7.25 15.6226H13.8895C14.4237 15.6226 14.8816 15.1698 14.8816 14.6415C14.8816 14.1132 14.4237 13.6604 13.8895 13.6604H7.25ZM17.9342 8C18.4684 8 18.9263 7.54717 18.9263 7.01887C18.9263 6.49057 18.4684 6.03774 17.9342 6.03774H11.8289C11.2947 6.03774 10.8368 6.49057 10.8368 7.01887C10.8368 7.54717 11.2947 8 11.8289 8H17.9342ZM27.4737 0H1.52632C0.686842 0 0 0.679245 0 1.50943V20.3774C0 21.2075 0.686842 21.8868 1.52632 21.8868H16.0263V18.8679H5.34211C5.34211 17.5849 4.35 16.6038 3.05263 16.6038V5.28302C4.35 5.28302 5.34211 4.30189 5.34211 3.01887H23.6579C23.6579 4.30189 24.65 5.28302 25.9474 5.28302V16.6038C24.65 16.6038 23.6579 17.5849 23.6579 18.8679V21.8868H27.4737C28.3132 21.8868 29 21.2075 29 20.3774V1.50943C29 0.679245 28.3132 0 27.4737 0Z" fill="#173042"/>
<path d="M17.9342 20.4528V23.6226C17.9342 23.849 18.0869 23.9245 18.2395 23.9245C18.3158 23.9245 18.3921 23.9245 18.4685 23.849L19.6132 23.0189C19.6895 22.9434 19.7658 22.9434 19.8421 22.9434C19.9184 22.9434 19.9948 22.9434 20.0711 23.0189L21.2158 23.849C21.2921 23.9245 21.3685 23.9245 21.4448 23.9245C21.5974 23.9245 21.75 23.7736 21.75 23.6226V20.4528C21.1395 20.7547 20.529 20.9057 19.8421 20.9057C19.1553 20.9057 18.5448 20.7547 17.9342 20.4528ZM19.8421 19.0189C21.2921 19.0189 22.5132 17.8113 22.5132 16.3773C22.5132 14.9434 21.2921 13.7358 19.8421 13.7358C18.3921 13.7358 17.1711 14.9434 17.1711 16.3773C17.1711 17.8113 18.3921 19.0189 19.8421 19.0189Z" fill="#173042"/>
</svg>
