<svg width="35" height="23" viewBox="0 0 35 23" fill="none" xmlns="http://www.w3.org/2000/svg">
<path d="M34.9229 6.69901L28.5242 0.074419C28.37 -0.0744483 28.1388 -0.0744483 27.9846 0.074419L25.2863 2.53073C25.1322 2.6796 25.1322 2.9029 25.2863 3.05177L31.6079 9.67636C31.7621 9.82523 31.9934 9.82523 32.1476 9.67636L34.8458 7.22005C35 7.07118 35 6.84788 34.9229 6.69901ZM32.533 7.44335C32.2247 7.74109 31.685 7.74109 31.3766 7.44335C31.0683 7.14562 31.0683 6.62458 31.3766 6.32685C31.685 6.02911 32.2247 6.02911 32.533 6.32685C32.9185 6.62458 32.8414 7.14562 32.533 7.44335ZM6.62995 1.04206C6.47576 0.893189 6.24449 0.893189 6.0903 1.11649L0.0770859 8.55986C-0.0770991 8.70872 -6.58388e-06 8.93202 0.154178 9.08089L3.08369 11.3139C3.23788 11.4628 3.46916 11.3883 3.62334 11.2395L9.63656 3.7961C9.79074 3.64723 9.71365 3.42393 9.55946 3.27507L6.62995 1.04206ZM3.77753 8.78316C3.46916 9.15533 2.92951 9.22976 2.62114 8.93202C2.23568 8.63429 2.15858 8.11325 2.46695 7.81552C2.77532 7.44335 3.31497 7.36892 3.62334 7.66665C4.0088 7.88995 4.0859 8.41099 3.77753 8.78316Z" fill="#173042"/>
<path d="M26.1344 16.0032L19.5044 11.0161L18.2709 12.0582C16.5749 13.5469 15.033 13.919 13.8767 13.919C13.5683 13.919 13.337 13.919 13.0286 13.8446C11.5639 13.6213 10.4846 12.6537 10.022 11.8349C9.40529 10.9417 9.63657 9.75076 10.4075 9.00642L15.1101 4.83814C14.5705 4.39154 13.8767 4.24267 13.2599 4.24267C12.3348 4.24267 11.4097 4.61484 10.793 5.43361L6.16741 11.2394C5.78194 11.686 5.62776 12.2815 5.70485 12.877L6.01322 15.1844C6.09031 15.7799 6.39868 16.3009 6.86124 16.6731L14.956 22.7767C15.1872 22.9255 15.4185 23 15.7269 23C16.0352 23 16.4207 22.8511 16.652 22.6278L17.0374 22.2556C17.5 21.7346 17.5 20.9902 16.8833 20.5436L18.2709 21.6601C18.5022 21.8834 18.8106 21.9579 19.0419 21.9579C19.3502 21.9579 19.6586 21.809 19.8899 21.5857L20.2753 21.2135C20.815 20.6925 20.815 19.8737 20.1982 19.4271L21.2004 20.2459C21.4317 20.4692 21.7401 20.5436 21.9714 20.5436C22.2797 20.5436 22.5881 20.3948 22.8194 20.1715L23.2049 19.7993C23.7445 19.2783 23.6674 18.4595 23.1278 18.0129L23.8216 18.5339C24.0529 18.7572 24.3612 18.8317 24.6696 18.8317C25.0551 18.8317 25.3634 18.6828 25.5947 18.3851L26.1344 17.7152C26.7511 17.1941 26.674 16.4498 26.1344 16.0032ZM29.3722 10.0485L23.8216 4.5404C23.5903 4.3171 23.2819 4.16824 22.8965 4.0938L20.0441 3.79607C19.5815 3.72163 19.1189 3.8705 18.8106 4.16824L18.1167 4.76371L11.7181 10.4207C11.641 10.4951 11.4868 10.644 11.641 10.8673L11.7181 10.9417C11.9493 11.3883 12.5661 11.9838 13.4912 12.1326C14.5705 12.2815 15.804 11.8349 17.0374 10.7928L19.4273 8.70869L26.9824 14.3656L29.3722 12.2071C29.9119 11.6116 29.9119 10.644 29.3722 10.0485Z" fill="#173042"/>
</svg>
