<svg width="27" height="27" viewBox="0 0 27 27" fill="none" xmlns="http://www.w3.org/2000/svg">
<rect width="27" height="27" fill="#E5E5E5"/>
<g clip-path="url(#clip0_2619_3662)">
<rect width="1440" height="9942" transform="translate(-461 -2839)" fill="white"/>
<rect x="-312.5" y="-112.5" width="852" height="175" rx="15.5" fill="url(#paint0_linear_2619_3662)" stroke="#6D8AA9"/>
<g clip-path="url(#clip1_2619_3662)">
<path d="M21.4615 12.4615H20.4231C19.8692 12.4615 19.3846 12.9462 19.3846 13.5C19.3846 14.0538 19.8692 14.5385 20.4231 14.5385H21.4615C22.0154 14.5385 22.5 14.0538 22.5 13.5C22.5 12.9462 22.0154 12.4615 21.4615 12.4615ZM13.5 19.3846C12.9462 19.3846 12.4615 19.8692 12.4615 20.4231V21.4615C12.4615 22.0154 12.9462 22.5 13.5 22.5C14.0538 22.5 14.5385 22.0154 14.5385 21.4615V20.4231C14.5385 19.8692 14.0538 19.3846 13.5 19.3846ZM6.57692 12.4615H5.53846C4.98462 12.4615 4.5 12.9462 4.5 13.5C4.5 14.0538 4.98462 14.5385 5.53846 14.5385H6.57692C7.13077 14.5385 7.61538 14.0538 7.61538 13.5C7.61538 12.9462 7.13077 12.4615 6.57692 12.4615ZM13.5 4.5C12.9462 4.5 12.4615 4.98462 12.4615 5.53846V6.57692C12.4615 7.13077 12.9462 7.61538 13.5 7.61538C14.0538 7.61538 14.5385 7.13077 14.5385 6.57692V5.53846C14.5385 4.98462 14.0538 4.5 13.5 4.5Z" fill="#173042"/>
<path d="M13.5 0C6.02308 0 0 6.02308 0 13.5C0 20.9769 6.02308 27 13.5 27C20.9769 27 27 20.9769 27 13.5C27 6.02308 20.9769 0 13.5 0ZM13.5 23.5385C7.96154 23.5385 3.46154 19.0385 3.46154 13.5C3.46154 7.96154 7.96154 3.46154 13.5 3.46154C19.0385 3.46154 23.5385 7.96154 23.5385 13.5C23.5385 19.0385 19.0385 23.5385 13.5 23.5385ZM18 7.75385L13.9154 11.8385C13.7769 11.8385 13.6385 11.7692 13.5 11.7692C13.2923 11.7692 13.0846 11.8385 12.8769 11.9077L9.69231 8.72308C9.27692 8.30769 8.65385 8.30769 8.23846 8.72308C7.82308 9.13846 7.82308 9.76154 8.23846 10.1769L11.4923 13.4308C11.4923 13.5692 11.4231 13.7077 11.4231 13.8462C11.4231 15.0231 12.3231 15.9231 13.5 15.9231C14.6769 15.9231 15.5769 15.0231 15.5769 13.8462C15.5769 13.6385 15.5077 13.4308 15.4385 13.2231L19.4538 9.20769C19.8692 8.79231 19.8692 8.16923 19.4538 7.75385C19.1077 7.33846 18.4154 7.33846 18 7.75385Z" fill="#173042"/>
</g>
</g>
<defs>
<linearGradient id="paint0_linear_2619_3662" x1="-297.599" y1="-113" x2="261.032" y2="296.809" gradientUnits="userSpaceOnUse">
<stop stop-color="#E9F1FF"/>
<stop offset="1" stop-color="#F8FFE3"/>
</linearGradient>
<clipPath id="clip0_2619_3662">
<rect width="1440" height="9942" fill="white" transform="translate(-461 -2839)"/>
</clipPath>
<clipPath id="clip1_2619_3662">
<rect width="27" height="27" fill="white"/>
</clipPath>
</defs>
</svg>
