<svg fill="none" xmlns="http://www.w3.org/2000/svg" viewBox="0 0 135 80"><rect width="135" height="79.744" rx="10" fill="#F4F7FF"/><path d="M22.193 35.625h1.062L25.3 43.74l2.356-8.116h1.035l2.343 8.116 2.045-8.116h1.062l-2.447 9.526h-1.113l-2.408-8.09-2.42 8.09H24.64l-2.447-9.526ZM34.981 38.24h.777l.246 1.203c.336-.405.699-.72 1.087-.945a2.515 2.515 0 0 1 1.281-.336c.233 0 .45.021.648.065v1.048a9.086 9.086 0 0 0-.751-.065c-.458 0-.855.082-1.191.246-.328.164-.686.427-1.074.79v4.905H34.98V38.24ZM40.276 37.01a.24.24 0 0 1-.155-.052.241.241 0 0 1-.052-.155v-1.01c0-.138.07-.207.207-.207h.725c.13 0 .195.069.195.207v1.01c0 .138-.065.207-.195.207h-.724Zm-.155 1.23h1.023v6.911H40.12V38.24ZM45.214 45.151c-.682 0-1.182-.172-1.502-.517-.319-.354-.47-.928-.453-1.722l.04-3.831h-1.101v-.66l1.113-.182.168-1.928h.79v1.928h1.993v.842H44.27v3.831c0 .526.1.889.298 1.087.198.19.448.298.75.324l.842.078v.75h-.945ZM50.122 45.23c-.742 0-1.32-.109-1.734-.324-.406-.216-.7-.579-.88-1.088-.182-.509-.273-1.22-.273-2.136 0-.923.091-1.64.272-2.148.19-.51.492-.867.906-1.075.415-.207.989-.31 1.722-.31.63 0 1.135.069 1.514.207.38.138.66.375.842.712.18.328.272.785.272 1.372 0 .587-.173 1.014-.518 1.281-.337.26-.82.389-1.45.389h-2.537c.009.595.07 1.057.181 1.385.112.319.32.556.622.712.302.146.737.22 1.307.22h2.226v.62c-.466.061-.88.104-1.242.13-.363.035-.773.052-1.23.052Zm.583-3.793c.396 0 .686-.074.867-.22.18-.147.271-.402.271-.764 0-.578-.129-.975-.388-1.191-.25-.224-.69-.337-1.32-.337-.5 0-.885.074-1.152.22-.268.147-.457.397-.57.751-.112.354-.168.867-.168 1.54h2.46ZM54.303 35.625h3.793c1.656 0 2.485 1.014 2.485 3.042 0 1.19-.25 2.01-.75 2.459-.493.449-1.088.673-1.787.673-.25 0-.669-.013-1.256-.039-.586-.034-1.07-.065-1.45-.09v3.481h-1.035v-9.526Zm3.611 5.255c1.088 0 1.631-.733 1.631-2.2 0-1.416-.513-2.123-1.54-2.123h-2.666v4.323h2.575ZM63.254 45.23c-.518 0-.94-.156-1.269-.467-.319-.31-.478-.733-.478-1.268v-.492c0-.561.18-1.006.543-1.334.371-.327.91-.491 1.618-.491h2.343v-.855c0-.466-.13-.81-.388-1.035-.25-.224-.717-.337-1.398-.337h-2.149v-.608a15.019 15.019 0 0 1 2.524-.207c.837 0 1.45.172 1.838.518.397.336.596.875.596 1.618v4.88h-.79l-.194-.79c-.06.052-.25.15-.57.298a7.62 7.62 0 0 1-1.074.4c-.406.113-.79.17-1.152.17Zm.453-.765c.233 0 .518-.043.854-.129.337-.086.639-.177.906-.272.276-.095.458-.16.544-.194v-2.175l-2.11.091c-.475.017-.824.134-1.048.35-.216.215-.324.509-.324.88v.31c0 .397.112.686.337.868.233.18.513.271.841.271ZM68.767 38.24h.828l.195.711c.276-.198.625-.38 1.048-.543a3.216 3.216 0 0 1 1.217-.26c.845 0 1.467.333 1.864.997.405.665.608 1.51.608 2.537 0 1.183-.203 2.072-.608 2.667-.397.595-1.019.893-1.864.893a3.95 3.95 0 0 1-1.152-.181c-.389-.121-.76-.28-1.114-.48v3.638h-1.022v-9.98Zm3.003 6.135c1.156 0 1.734-.898 1.734-2.693 0-.906-.163-1.579-.491-2.019-.328-.44-.743-.66-1.243-.66-.362 0-.703.056-1.023.168-.319.104-.638.242-.957.415v4.232c.655.371 1.316.557 1.98.557ZM78.697 45.23c-.743 0-1.32-.109-1.735-.324-.406-.216-.699-.579-.88-1.088-.181-.509-.272-1.22-.272-2.136 0-.923.09-1.64.272-2.148.19-.51.492-.867.906-1.075.414-.207.988-.31 1.722-.31.63 0 1.134.069 1.514.207.38.138.66.375.841.712.181.328.272.785.272 1.372 0 .587-.172 1.014-.518 1.281-.336.26-.82.389-1.45.389h-2.536c.008.595.069 1.057.18 1.385.113.319.32.556.622.712.302.146.738.22 1.307.22h2.227v.62c-.466.061-.88.104-1.243.13-.362.035-.772.052-1.23.052Zm.582-3.793c.397 0 .686-.074.867-.22.181-.147.272-.402.272-.764 0-.578-.13-.975-.388-1.191-.25-.224-.69-.337-1.32-.337-.501 0-.885.074-1.152.22-.268.147-.458.397-.57.751-.112.354-.168.867-.168 1.54h2.459ZM82.865 38.24h.776l.246 1.203c.337-.405.7-.72 1.088-.945a2.515 2.515 0 0 1 1.28-.336c.234 0 .45.021.648.065v1.048a9.09 9.09 0 0 0-.75-.065c-.458 0-.855.082-1.192.246-.327.164-.686.427-1.074.79v4.905h-1.022V38.24ZM88.018 37.54c0-.673.18-1.16.543-1.462.363-.302.807-.453 1.333-.453l.725.013c.207.008.656.021 1.347.038a31.14 31.14 0 0 1 1.915.078v.816h-3.74c-.346 0-.613.099-.803.297-.19.19-.285.466-.285.829v2.472l4.259.065v.79l-4.259.064v4.064h-1.035v-7.61ZM97.57 45.23c-.707 0-1.277-.1-1.708-.299-.432-.198-.755-.552-.971-1.061-.207-.518-.31-1.247-.31-2.188 0-.949.107-1.678.323-2.187.215-.518.535-.872.958-1.061.422-.19.992-.285 1.708-.285.708 0 1.277.1 1.709.297.431.19.755.544.971 1.062.215.509.323 1.234.323 2.174 0 .941-.108 1.67-.323 2.188-.216.51-.54.863-.971 1.061-.423.199-.993.298-1.709.298Zm0-.842c.475 0 .846-.06 1.113-.181.276-.13.488-.389.635-.777.146-.388.22-.97.22-1.748 0-.776-.074-1.354-.22-1.734-.138-.388-.346-.643-.622-.764-.276-.13-.651-.194-1.126-.194-.483 0-.863.065-1.139.194-.267.121-.474.376-.621.764-.138.38-.207.958-.207 1.734 0 .777.069 1.36.207 1.748.147.388.354.647.621.776.276.121.656.182 1.14.182ZM102.102 38.24h.777l.246 1.203c.337-.405.699-.72 1.087-.945a2.52 2.52 0 0 1 1.282-.336c.233 0 .448.021.647.065v1.048a9.086 9.086 0 0 0-.751-.065c-.457 0-.854.082-1.191.246-.328.164-.686.427-1.074.79v4.905h-1.023V38.24Z" fill="#000"/><path d="M107.268 45.362a.241.241 0 0 1-.156-.052.243.243 0 0 1-.051-.155v-1.036c0-.138.069-.207.207-.207h.569c.138 0 .207.07.207.207v1.036c0 .138-.069.207-.207.207h-.569ZM109.639 38.437h.802l.22.764c.863-.587 1.726-.88 2.589-.88.414 0 .773.094 1.075.284.31.181.552.427.724.738a5.93 5.93 0 0 1 1.321-.712c.526-.207 1.014-.31 1.462-.31.717 0 1.256.22 1.618.66.363.44.544 1.01.544 1.708v4.66h-1.023v-4.582c0-.449-.133-.812-.401-1.088-.259-.284-.613-.427-1.061-.427-.371 0-.76.07-1.165.207-.397.138-.781.32-1.152.544.086.276.129.535.129.777v4.569h-1.022v-4.582c0-.449-.13-.812-.389-1.088-.25-.284-.599-.427-1.048-.427a3.43 3.43 0 0 0-1.113.168c-.32.104-.682.272-1.088.505v5.424h-1.022v-6.912ZM124.359 45.426c-.742 0-1.32-.107-1.734-.323-.406-.216-.699-.578-.88-1.087-.182-.51-.272-1.221-.272-2.136 0-.924.09-1.64.272-2.149.189-.509.491-.867.906-1.074.414-.207.988-.31 1.721-.31.63 0 1.135.068 1.515.206a1.5 1.5 0 0 1 .841.712c.181.328.272.785.272 1.372 0 .587-.173 1.014-.518 1.282-.337.259-.82.388-1.45.388h-2.537c.009.595.069 1.057.181 1.385.113.32.32.557.622.712.302.147.738.22 1.307.22h2.226v.621c-.466.06-.88.104-1.242.13-.363.034-.772.051-1.23.051Zm.583-3.792c.397 0 .686-.073.867-.22.181-.147.272-.401.272-.764 0-.578-.13-.975-.389-1.19-.25-.225-.69-.337-1.32-.337-.5 0-.884.073-1.152.22-.267.147-.457.397-.569.75-.113.354-.169.868-.169 1.54h2.46Z" fill="#DCD318"/><path fill-rule="evenodd" clip-rule="evenodd" d="M18.517 32.252c0 .027-.165.045-.405.045-.24 0-.404.018-.404.045 0 .025-.12.045-.27.045-.15 0-.27.02-.27.045 0 .024-.1.045-.224.045s-.225.02-.225.045c0 .024-.06.045-.135.045-.074 0-.135.02-.135.044 0 .025-.08.046-.18.046-.098 0-.18.02-.18.044 0 .025-.06.045-.134.045-.074 0-.135.02-.135.045 0 .025-.04.045-.09.045-.05 0-.09.02-.09.045 0 .025-.06.045-.134.045-.075 0-.135.02-.135.045 0 .025-.04.045-.09.045-.05 0-.09.02-.09.045 0 .025-.04.045-.09.045-.05 0-.09.02-.09.045 0 .025-.04.045-.09.045-.05 0-.09.02-.09.045 0 .025-.04.045-.09.045-.049 0-.09.02-.09.045 0 .024-.035.045-.08.045-.043 0-.108.04-.144.09-.036.049-.096.09-.135.09-.038 0-.1.04-.135.09-.035.049-.092.09-.125.09s-.159.1-.28.224c-.12.123-.24.225-.267.225-.064 0-.9.838-.9.902 0 .028-.061.107-.136.176-.074.07-.134.15-.134.18s-.061.11-.135.18c-.074.069-.135.158-.135.198 0 .04-.02.071-.045.071-.025 0-.045.04-.045.09 0 .05-.02.09-.045.09-.025 0-.045.036-.045.08 0 .044-.04.11-.09.145a.245.245 0 0 0-.09.19c0 .068-.02.124-.045.124-.024 0-.045.041-.045.09 0 .05-.02.09-.044.09-.025 0-.045.04-.045.09 0 .05-.02.09-.045.09-.025 0-.045.06-.045.135 0 .074-.02.135-.045.135-.025 0-.045.08-.045.18 0 .098-.02.18-.045.18-.025 0-.045.08-.045.18 0 .098-.02.179-.045.179-.025 0-.045.12-.045.27 0 .15-.02.27-.045.27-.028 0-.045.269-.045.718 0 .45.017.72.045.72.025 0 .045.12.045.269 0 .24.01.27.09.27.06 0 .09-.03.09-.09 0-.05.02-.09.045-.09.024 0 .045-.04.045-.09 0-.05.02-.09.045-.09.024 0 .045-.04.045-.09 0-.05.02-.09.045-.09.024 0 .044-.04.044-.09 0-.049.02-.09.045-.09.025 0 .045-.04.045-.09 0-.049.02-.09.045-.09.025 0 .045-.035.045-.08 0-.043.04-.108.09-.144.05-.035.09-.1.09-.145 0-.044.02-.08.045-.08.025 0 .045-.036.045-.08 0-.044.04-.109.09-.144.05-.036.09-.101.09-.145 0-.044.02-.08.045-.08.024 0 .045-.036.045-.08 0-.044.04-.11.09-.145.049-.035.09-.096.09-.135 0-.038.04-.099.09-.134.049-.036.09-.093.09-.127s.06-.119.134-.188c.074-.07.135-.15.135-.179 0-.029.08-.13.18-.226.098-.095.18-.195.18-.223 0-.028.12-.17.269-.316.148-.145.27-.286.27-.313 0-.026.171-.22.381-.43.21-.209.403-.38.43-.38.026 0 .167-.122.312-.27.146-.148.288-.27.317-.27.028 0 .108-.06.178-.135.069-.074.15-.134.18-.134s.11-.061.18-.135c.069-.074.158-.135.197-.135.04 0 .072-.02.072-.045 0-.025.036-.045.08-.045.044 0 .109-.04.145-.09.035-.05.096-.09.134-.09.039 0 .1-.04.135-.09.036-.05.101-.09.145-.09.044 0 .08-.02.08-.044 0-.025.04-.045.09-.045.05 0 .09-.02.09-.045 0-.025.04-.045.09-.045.05 0 .09-.02.09-.045 0-.025.04-.045.09-.045.049 0 .09-.02.09-.045 0-.025.04-.045.09-.045.049 0 .09-.02.09-.045 0-.025.06-.045.134-.045.074 0 .135-.02.135-.045 0-.025.06-.045.135-.045.074 0 .134-.02.134-.045 0-.024.04-.045.09-.045.05 0 .09.02.09.045 0 .025-.04.045-.09.045-.05 0-.09.02-.09.045 0 .025-.04.045-.09.045-.049 0-.09.02-.09.045 0 .025-.04.045-.09.045-.049 0-.09.02-.09.045 0 .025-.04.045-.089.045-.05 0-.09.02-.09.045 0 .024-.036.045-.08.045-.044 0-.109.04-.145.09-.035.049-.096.09-.134.09-.039 0-.1.04-.135.09-.036.049-.093.09-.127.09s-.119.06-.188.134c-.07.074-.15.135-.178.135-.029 0-.15.101-.271.225-.12.123-.24.224-.267.224-.063 0-1.351 1.288-1.351 1.35 0 .027-.122.168-.27.313-.148.146-.27.288-.27.316 0 .028-.08.129-.18.224-.098.095-.18.196-.18.225 0 .03-.06.11-.134.18-.074.068-.135.15-.135.179 0 .03-.06.11-.135.18-.074.069-.135.154-.135.188s-.04.09-.09.126c-.049.036-.09.096-.09.135 0 .039-.04.1-.09.135-.049.036-.09.096-.09.135 0 .038-.04.099-.089.135-.05.035-.09.096-.09.134 0 .039-.04.1-.09.135-.05.036-.09.096-.09.135 0 .039-.04.1-.09.135-.049.035-.09.096-.09.135 0 .038-.04.099-.09.135-.049.035-.09.1-.09.144 0 .044-.02.08-.044.08-.025 0-.045.04-.045.09 0 .05-.02.09-.045.09-.025 0-.045.04-.045.09 0 .05-.02.09-.045.09-.025 0-.045.04-.045.09 0 .05-.02.09-.045.09-.024 0-.045.04-.045.09 0 .049-.02.09-.045.09-.024 0-.045.04-.045.09 0 .049-.02.09-.045.09-.024 0-.045.04-.045.089 0 .05-.02.09-.044.09-.025 0-.045.04-.045.09 0 .05-.02.09-.045.09-.025 0-.045.04-.045.09 0 .049-.02.09-.045.09-.025 0-.045.04-.045.09 0 .049-.02.09-.045.09-.025 0-.045.06-.045.134 0 .074-.02.135-.045.135-.025 0-.045.04-.045.09 0 .05-.02.09-.045.09-.025 0-.045.06-.045.135 0 .074-.02.134-.045.134-.024 0-.045.04-.045.09 0 .05-.02.09-.045.09-.024 0-.045.06-.045.135 0 .074-.02.135-.044.135-.025 0-.046.08-.046.18 0 .098-.02.18-.044.18-.025 0-.045.06-.045.134 0 .074-.02.135-.045.135-.025 0-.045.08-.045.18 0 .099.02.18.045.18.024 0 .045-.032.045-.071 0-.04.08-.149.18-.244.098-.095.18-.196.18-.225 0-.028.08-.13.179-.224.099-.096.18-.197.18-.225 0-.029.08-.13.18-.225.098-.095.18-.196.18-.225 0-.028.08-.13.18-.224.098-.095.179-.196.179-.223 0-.075.301-.362.38-.362.038 0 .07-.02.07-.045 0-.024.06-.044.134-.044.074 0 .135-.02.135-.046 0-.024.06-.044.135-.044.074 0 .135-.02.135-.045 0-.025.06-.045.134-.045.075 0 .135-.02.135-.045 0-.025.06-.045.135-.045.074 0 .135-.02.135-.045 0-.025.06-.045.135-.045.074 0 .135-.02.135-.045 0-.025.04-.045.09-.045.049 0 .09-.02.09-.045 0-.025.04-.045.09-.045.049 0 .09-.02.09-.045 0-.025.06-.045.134-.045.074 0 .135-.02.135-.045 0-.024.04-.045.09-.045.05 0 .09-.02.09-.045 0-.024.036-.044.08-.044.044 0 .109-.041.144-.09.036-.05.101-.09.145-.09.044 0 .08-.02.08-.045 0-.025.04-.045.09-.045.05 0 .09-.02.09-.045 0-.025.036-.045.08-.045.044 0 .109-.04.144-.09.036-.05.097-.09.135-.09.039 0 .1-.04.135-.09.036-.05.093-.09.127-.09s.118-.06.188-.134c.069-.075.15-.135.178-.135.029 0 .15-.101.271-.225.12-.124.24-.225.267-.225.064 0 .902-.838.902-.9 0-.028.1-.148.225-.268.123-.12.224-.243.224-.271 0-.03.06-.11.135-.179.074-.069.135-.154.135-.188s.04-.09.09-.126c.05-.036.09-.101.09-.145 0-.044.02-.08.045-.08.024 0 .044-.036.044-.08 0-.044.041-.11.09-.145.05-.035.09-.1.09-.145 0-.044.02-.08.045-.08.025 0 .045-.04.045-.09 0-.049.02-.09.045-.09.025 0 .045-.04.045-.09 0-.049.02-.089.045-.089.025 0 .045-.04.045-.09 0-.082-.03-.09-.36-.09-.21 0-.36-.019-.36-.045 0-.025-.134-.045-.314-.045s-.314-.019-.314-.045c0-.024.04-.045.09-.045.049 0 .09-.02.09-.045 0-.024.1-.044.224-.044s.225-.02.225-.045c0-.025.06-.045.135-.045.074 0 .134-.02.134-.045 0-.025.041-.045.09-.045.05 0 .09-.02.09-.045 0-.025.04-.045.09-.045.05 0 .09-.02.09-.045 0-.025.031-.045.069-.045.084 0 .38-.289.38-.37 0-.033.041-.089.09-.124a.245.245 0 0 0 .09-.19c0-.069.02-.125.045-.125.025 0 .045-.06.045-.135 0-.074.02-.135.045-.135.025 0 .045-.04.045-.09 0-.049.02-.09.045-.09.025 0 .045-.04.045-.09 0-.049.02-.09.045-.09.025 0 .045-.04.045-.09 0-.049.02-.089.045-.089.024 0 .045-.036.045-.08 0-.044.04-.11.09-.145.05-.035.09-.1.09-.145 0-.043.02-.08.044-.08.025 0 .045-.032.045-.071 0-.04.061-.129.135-.198.074-.07.135-.15.135-.18s.06-.11.135-.18c.161-.15.187-.36.045-.36-.05 0-.09-.02-.09-.044 0-.028-.21-.045-.54-.045-.329 0-.539-.018-.539-.045 0-.028-.24-.045-.629-.045-.39 0-.63.017-.63.045ZM8.36 35.398c0 .025-.032.045-.071.045-.09 0-.2.108-.2.199 0 .039-.02.07-.044.07-.03 0-.045 1.604-.045 4.72 0 3.116.015 4.719.045 4.719.025 0 .045.032.045.07 0 .091.108.2.199.2.039 0 .07.02.07.044 0 .03 1.574.045 4.63.045s4.629-.015 4.629-.044c0-.025.031-.046.07-.046.109 0 .29-.208.29-.334 0-.063.02-.115.044-.115.03 0 .045-.884.045-2.562 0-2.868.019-2.728-.314-2.382-.095.1-.197.18-.226.18-.029 0-.11.06-.179.135-.069.074-.148.135-.176.135-.028 0-.141.09-.252.2l-.2.202v3.283H9.258v-3.711c0-4.324-.082-3.84.648-3.84.49 0 .52-.005.52-.09 0-.049.02-.09.045-.09.025 0 .045-.04.045-.09 0-.049.02-.089.045-.089.024 0 .045-.06.045-.135 0-.074.02-.135.045-.135.024 0 .045-.04.045-.09 0-.049.02-.09.045-.09.024 0 .044-.04.044-.09 0-.049.02-.09.046-.09.024 0 .044-.04.044-.09 0-.049.02-.089.045-.089.025 0 .045-.02.045-.045 0-.029-.464-.045-1.303-.045s-1.303.016-1.303.045Z" fill="#DCD318"/></svg>