<svg fill="none" xmlns="http://www.w3.org/2000/svg" viewBox="0 0 520 311"><g clip-path="url(#a)"><path fill-rule="evenodd" clip-rule="evenodd" d="M403.187 216.883h44.571c23.976 0 43.628 19.652 43.628 43.628s-19.652 43.628-43.628 43.628H70.669C31.838 304.139 0 272.302 0 233.469S31.837 162.8 70.67 162.8c16.429 0 29.871-13.442 29.871-29.872 0-16.429-13.442-29.871-29.871-29.871H34.745c-17.058 0-31.05-13.993-31.05-31.05-.079-17.138 13.913-31.13 31.05-31.13h45.436c6.682 0 12.106-5.424 12.106-12.106 0-6.682-5.424-12.106-12.106-12.106h-8.018c-4.56 0-8.332-3.773-8.332-8.332C63.83 3.773 67.604 0 72.163 0h52.59c11.084 0 12.341 13.05 40.326 13.05h64.853c5.974 0 10.927 4.873 10.927 10.926 0 5.974-4.874 10.927-10.927 10.927h-10.455c-8.647 0-15.801 7.074-15.801 15.8 0 8.647 7.075 15.8 15.801 15.8h31.444c42.527 0 48.502 11.084 55.969 33.174 7.468 22.089 46.144 23.897 46.144 23.897h52.904c13.049 0 23.819 10.691 23.819 23.818 0 13.049-10.691 23.819-23.819 23.819h-2.751c-12.578 0-22.876 10.298-22.876 22.875 0 12.499 10.298 22.797 22.876 22.797ZM48.737 16.665c4.639 0 8.333-3.773 8.333-8.332C57.07 3.773 53.376 0 48.738 0c-4.638 0-8.333 3.773-8.333 8.333a8.287 8.287 0 0 0 8.333 8.332Z" fill="#E1E8F6"/><path fill-rule="evenodd" clip-rule="evenodd" d="M362.86 304.611c4.559-6.524 13.993-17.451 32.073-28.299 28.613-17.137 50.31-39.933 40.798-53.376-9.355-13.206-51.332 12.263-86.156 76.094 5.188 2.673 9.591 4.481 13.285 5.581Z" fill="#B4C5E6"/><path fill-rule="evenodd" clip-rule="evenodd" d="M357.279 298.795c.786-.079 2.908 0 5.66.786.157.079.393-.079.471-.236.079-.157-.078-.393-.236-.471a19.367 19.367 0 0 0-5.424-.786c.629-1.022 1.258-2.123 1.887-3.145 1.258 0 5.345-.078 6.839 0 .236 0 .393-.157.393-.314 0-.236-.157-.393-.314-.393-1.415-.079-4.874 0-6.446 0a562.34 562.34 0 0 0 3.458-5.582c1.258 0 5.031.158 9.198.708.236 0 .393-.079.393-.315 0-.235-.079-.393-.315-.393-3.773-.55-7.31-.628-8.883-.707 1.18-1.808 2.359-3.537 3.538-5.267 1.651 0 7.153.157 13.128 1.022.235 0 .393-.079.393-.314 0-.236-.079-.393-.315-.393-5.581-.787-10.691-.944-12.734-1.022 1.572-2.201 3.065-4.402 4.637-6.446 1.73-.079 9.041-.236 14.465 1.493.157.079.393-.078.471-.236.079-.157-.078-.393-.236-.471-5.109-1.651-11.712-1.651-14.149-1.572 1.886-2.516 3.773-4.874 5.581-7.154 2.358.157 12.027.865 16.508 4.088.157.078.393.078.472-.079.078-.157.078-.393-.079-.471-4.402-3.066-13.285-3.931-16.351-4.167a281.797 281.797 0 0 1 5.817-6.76c1.73.393 9.04 2.201 15.958 5.66.157.078.393 0 .472-.157.078-.158 0-.394-.158-.472-6.524-3.302-13.363-5.031-15.721-5.581 1.1-1.258 2.279-2.437 3.38-3.616 1.651.314 8.804 1.965 18.237 6.524.157.079.393 0 .472-.157.078-.157 0-.393-.157-.472-8.805-4.245-15.644-5.974-17.923-6.524 2.672-2.673 5.266-5.188 7.703-7.39 2.123.708 12.814 4.324 18.474 7.94.157.079.393.079.471-.079.079-.157.079-.393-.078-.471-5.424-3.459-15.329-6.918-18.238-7.861 1.494-1.258 2.909-2.516 4.245-3.616 1.808.629 10.141 3.537 17.687 7.939.157.079.393.079.472-.157.078-.157.078-.393-.157-.472-7.154-4.166-14.936-6.996-17.373-7.86 3.223-2.595 6.367-4.874 9.197-6.682 1.808.393 9.905 2.437 15.958 5.974.157.079.393.079.472-.157.078-.157.078-.393-.158-.472-5.581-3.223-12.813-5.188-15.486-5.896 1.18-.786 2.28-1.493 3.381-2.122 1.415.157 6.839.865 13.756 3.537.157.079.393 0 .472-.235.078-.158 0-.393-.236-.472-5.896-2.28-10.769-3.144-12.971-3.459 8.726-5.031 14.15-6.289 14.15-6.289.315-.078.472-.393.393-.628-.078-.315-.393-.472-.629-.393 0 0-2.437.55-6.524 2.436 1.1-1.415 2.751-3.38 3.144-3.694.157-.079.236-.315.157-.472a.377.377 0 0 0-.471-.157c-.629.393-3.302 3.773-4.245 4.952-1.651.786-3.616 1.73-5.66 2.987l3.616-7.153c.079-.157 0-.393-.157-.472a.378.378 0 0 0-.472.158l-4.088 8.096c-1.415.865-2.987 1.808-4.638 2.83l3.852-8.49a.377.377 0 0 0-.157-.471c-.157-.079-.393 0-.472.157l-4.323 9.512a118.085 118.085 0 0 0-7.704 5.66l3.38-8.805c.079-.157 0-.393-.235-.471-.158-.079-.393 0-.472.236l-3.773 9.904c-1.258 1.022-2.516 2.044-3.774 3.145l2.83-7.94c.079-.157 0-.393-.235-.472-.158-.078-.393 0-.472.236l-3.302 9.119a195.147 195.147 0 0 0-7.389 6.996l2.122-7.704c.079-.157-.078-.393-.235-.471-.158-.079-.393.078-.472.236l-2.515 8.961c-1.022 1.022-2.044 2.123-3.066 3.223l1.179-5.896c0-.157-.079-.393-.315-.393-.235-.078-.393.079-.393.315l-1.415 7.075c-1.886 2.043-3.773 4.244-5.738 6.603l1.101-6.603c0-.236-.079-.393-.315-.393s-.393.078-.393.314l-1.336 7.782c-1.73 2.044-3.381 4.245-5.11 6.525l.708-5.817c0-.236-.079-.393-.315-.393s-.393.078-.393.314l-.865 7.075c-1.493 2.044-2.987 4.088-4.559 6.289v-5.267c0-.236-.157-.393-.393-.393-.236 0-.393.157-.393.393l-.079 6.367a134.755 134.755 0 0 0-3.301 4.953l-.551-4.481c0-.236-.235-.315-.393-.315-.235 0-.314.236-.314.393l.707 5.346c-1.021 1.572-2.043 3.144-3.065 4.795l-.551-2.908c0-.236-.235-.315-.393-.315-.235 0-.314.236-.314.393l.707 3.695c-.786 1.258-1.493 2.515-2.279 3.773l-1.179-2.358c-.079-.157-.315-.236-.472-.157-.157.078-.236.314-.157.471l1.415 2.83c-.629 1.022-1.258 2.123-1.887 3.223.315.157.708.315 1.022.472.708-1.101 1.258-2.123 1.887-3.066Z" fill="#fff"/><path fill-rule="evenodd" clip-rule="evenodd" d="M357.672 308.306c4.873-3.066 13.363-7.153 26.255-8.962 21.853-3.144 41.427-12.105 39.934-24.054-1.415-11.555-32.466-7.075-71.063 24.212l4.874 8.804Z" fill="#9FB2D9"/><path fill-rule="evenodd" clip-rule="evenodd" d="M417.965 277.02c.393 0 .786-.314.707-.786 0-.393-.314-.786-.786-.708 0 0-2.436 0-6.603.551l3.538-2.437a.513.513 0 0 0-.551-.865l-5.345 3.616c-1.965.315-4.166.786-6.603 1.337l3.773-3.616c.236-.158.236-.472 0-.708-.157-.236-.472-.236-.707 0l-5.031 4.795c-2.516.629-5.267 1.494-8.176 2.516l3.145-3.223c.157-.236.157-.551 0-.708-.236-.157-.551-.157-.708 0l-4.559 4.717a133.306 133.306 0 0 0-9.512 4.087l2.673-3.38c.157-.236.157-.55-.079-.707-.236-.157-.55-.157-.707.078l-3.931 5.031c-3.066 1.573-6.289 3.381-9.512 5.503l1.101-2.358c.079-.236 0-.551-.236-.629-.236-.079-.55 0-.629.236l-1.808 3.773c-2.437 1.651-4.952 3.38-7.389 5.345l1.022-2.358c.079-.236 0-.55-.236-.629-.236-.078-.55 0-.629.236l-1.729 4.088c-1.179 1.022-2.437 2.044-3.616 3.065l.707 1.337c1.179-1.101 2.437-2.123 3.616-3.066 1.258.079 4.167.314 5.424 1.022.236.157.551 0 .708-.236.157-.236 0-.55-.236-.707-1.101-.551-3.302-.865-4.795-1.022.943-.786 1.886-1.494 2.83-2.201 1.179.236 4.166.786 6.21 1.886a.51.51 0 0 0 .707-.157.51.51 0 0 0-.157-.707c-1.729-.944-4.088-1.573-5.581-1.887a129.967 129.967 0 0 1 5.896-4.009c1.65.707 6.917 2.908 9.04 4.638.235.157.55.157.707-.079.157-.236.157-.55-.078-.707-1.966-1.572-6.446-3.616-8.647-4.481 2.043-1.336 4.166-2.515 6.131-3.616 1.651.629 7.075 2.83 10.691 5.66.236.157.55.157.707-.079.158-.236.158-.55-.078-.707-3.223-2.516-7.861-4.56-10.141-5.503a52.612 52.612 0 0 1 2.987-1.493c1.73.55 7.547 2.594 12.971 6.524.236.157.55.079.707-.078.158-.236.079-.551-.078-.708-4.717-3.459-9.826-5.424-12.263-6.289 3.537-1.65 6.996-3.065 10.219-4.166 1.887 1.179 9.276 5.817 12.577 8.883.236.157.551.157.708 0 .157-.236.157-.55 0-.708-2.987-2.83-9.433-6.996-12.027-8.647 2.437-.786 4.716-1.493 6.839-2.043 1.729 1.336 8.096 6.131 9.511 7.467.236.158.551.158.708-.078.157-.236.157-.55-.079-.708-1.336-1.179-6.682-5.266-8.961-6.996a69.452 69.452 0 0 1 7.468-1.493c1.572 1.336 5.266 4.559 6.131 5.424.157.157.55.157.708 0 .157-.158.157-.551 0-.708-.786-.786-3.774-3.38-5.503-4.952 4.245-.472 6.839-.472 6.839-.472Z" fill="#B4C5E6"/><path fill-rule="evenodd" clip-rule="evenodd" d="M285.901 241.566a175.831 175.831 0 0 1-.471-12.735c0-4.166.236-8.175.55-12.106 1.258-14.464 4.795-26.963 10.062-37.653 5.66-11.556 13.364-20.989 22.482-28.457 8.411-6.918 18.002-12.263 28.299-16.036 11.006-4.088 22.876-6.446 34.824-7.311 4.009-.314 8.097-.393 12.185-.393 4.166 0 8.254.236 12.341.629.472.078.865.236 1.18.629.314.314.393.786.393 1.258v.078c-.158 1.572-3.852 35.846-20.517 66.818-16.901 31.286-47.009 59.271-100.07 46.93-.393-.079-.707-.315-.943-.551a5.833 5.833 0 0 1-.315-1.1Zm120.115-111.389c-1.965.786-10.14 4.087-21.617 10.533 4.48.786 14.621 2.673 19.102 4.167 1.572-7.311 2.279-12.578 2.515-14.7Zm-2.83 16.272c-5.267-1.73-18.945-4.088-20.988-4.481-5.66 3.302-12.106 7.311-18.945 12.184l35.531 9.355c1.887-6.21 3.302-12.027 4.402-17.058Zm-4.873 18.63-36.79-9.669c-6.367 4.559-12.97 9.826-19.731 15.879 7.311 2.201 42.135 12.892 48.031 15.879 3.537-7.546 6.288-15.093 8.49-22.089Zm-9.119 23.504c-5.974-3.066-44.414-14.778-48.738-16.115-5.345 4.874-10.769 10.22-16.115 16.115l54.791 17.451c.078 0 .157.079.157.079a125.74 125.74 0 0 0 6.446-10.769c1.258-2.201 2.358-4.481 3.459-6.761Zm-10.848 18.945-55.184-17.608c-4.166 4.638-8.175 9.511-12.184 14.778 8.883 2.987 54.633 17.216 54.79 17.294.158.079.236.079.315.157 4.559-4.48 8.647-9.433 12.263-14.621Zm-13.521 15.879c-4.874-1.493-47.637-14.857-54.869-17.294a219.47 219.47 0 0 0-9.826 14.386c10.769 5.345 47.087 14.778 47.165 14.778.236.079.393.157.472.393 6.367-3.38 12.027-7.546 17.058-12.263Zm-18.788 13.206c-5.817-1.493-36.867-9.826-46.693-14.699-2.044 3.301-3.931 6.681-5.818 10.14 4.167 1.651 22.718 8.726 34.746 9.983.314 0 .629.236.707.551a75.488 75.488 0 0 0 17.058-5.975Zm-20.752 6.604c-12.263-1.887-29.086-8.412-32.623-9.827a267.574 267.574 0 0 0-4.167 8.176c13.836 3.144 26.02 3.459 36.79 1.651Zm-37.733-3.302c1.258-2.594 2.516-5.11 3.852-7.546-1.651-4.56-2.909-12.578-3.459-17.059-.078.551-.078 1.101-.157 1.651-.314 3.852-.55 7.782-.55 11.949 0 3.537.078 7.153.314 11.005Zm.865-28.771c.393.079.629.315.707.708 0 0 1.258 11.712 3.381 18.551 1.808-3.301 3.694-6.603 5.659-9.669-.629-2.201-4.166-14.7-5.345-28.692-1.965 5.817-3.459 12.263-4.402 19.102Zm5.267-21.853c.314.078.55.393.55.707.865 12.735 3.852 24.526 5.031 28.85a203.493 203.493 0 0 1 9.512-13.835c-.944-2.83-6.446-19.574-7.232-32.073a75.322 75.322 0 0 0-3.852 6.996 83.548 83.548 0 0 0-4.009 9.355Zm9.04-18.238c.236.158.393.393.393.629.393 11.32 5.267 26.885 6.839 31.758 3.93-5.188 7.939-9.983 11.948-14.542-7.31-15.408-8.332-27.985-8.568-31.13-3.852 3.931-7.468 8.333-10.612 13.285Zm12.027-14.621a.715.715 0 0 1 .236.55s.157 13.364 8.096 30.579c5.346-5.895 10.77-11.241 16.115-16.115-3.301-7.389-6.446-25.626-6.839-28.142-4.48 2.594-8.725 5.503-12.734 8.805-1.651 1.336-3.302 2.751-4.874 4.323Zm19.102-13.992c.079.078.079.157.079.235 0 .079 3.223 19.574 6.524 27.592 6.839-6.131 13.521-11.477 19.967-16.115-2.358-9.433-2.28-19.652-2.28-21.303-3.616.944-7.232 2.044-10.769 3.381a123.264 123.264 0 0 0-13.521 6.21Zm25.941-9.984v.236s-.314 10.612 2.044 20.438a240.795 240.795 0 0 1 19.259-12.42c-.707-5.267-.314-10.691-.236-11.634-7.075.629-14.149 1.729-21.067 3.38Zm22.797-3.459v.158s-.551 5.424.157 10.769c10.534-6.053 18.473-9.433 21.617-10.769a227.574 227.574 0 0 0-10.455-.472c-3.773-.079-7.546 0-11.319.314Z" fill="#9FB2D9"/><path fill-rule="evenodd" clip-rule="evenodd" d="M482.111 310.821H36.632a3.07 3.07 0 0 1-3.066-3.066c0-1.651 1.415-3.066 3.066-3.066h445.4a3.07 3.07 0 0 1 3.066 3.066c.078 1.651-1.337 3.066-2.987 3.066Z" fill="#00000F"/><path fill-rule="evenodd" clip-rule="evenodd" d="M106.201 16.194a4.935 4.935 0 0 1 3.459-1.415c1.336 0 2.594.55 3.537 1.415a4.936 4.936 0 0 1 1.415 3.46c0 1.336-.55 2.593-1.415 3.537-.865.864-2.122 1.415-3.537 1.415a4.935 4.935 0 0 1-3.459-1.415c-.865-.865-1.415-2.123-1.415-3.538 0-1.336.55-2.594 1.415-3.459Zm1.1-4.952c-.707.236-1.336.472-1.965.786-.629.393-1.179.786-1.729 1.258-.079.079-.236.079-.393.079l-2.28-1.337c-.157-.079-.314-.079-.393-.079-.157 0-.236.158-.315.236l-1.65 2.83c-.079.157-.079.315-.079.393 0 .158.157.236.236.315l2.28 1.336c.157.079.157.236.157.314-.079.315-.157.708-.157 1.022-.079.315-.079.708-.079 1.101s0 .707.079 1.1c.078.394.078.708.157 1.022 0 .158 0 .315-.157.315l-2.28 1.336c-.157.079-.236.236-.236.315 0 .157 0 .314.079.471l1.65 2.83c.079.157.236.236.315.236.157 0 .314 0 .393-.078l2.28-1.337c.157-.078.235-.078.393.079.471.471 1.1.943 1.729 1.258.629.314 1.258.628 1.965.864.158 0 .236.157.236.315v2.672c0 .158.079.315.157.393a.602.602 0 0 0 .393.158h3.223a.597.597 0 0 0 .393-.158.6.6 0 0 0 .158-.393v-2.672c0-.158.078-.236.235-.315.708-.236 1.337-.471 1.966-.864a13.869 13.869 0 0 0 1.729-1.258c.079-.079.236-.079.393 0l2.28 1.336c.157.079.314.079.471.079.158 0 .236-.157.315-.236l1.651-2.83c.078-.157.078-.314.078-.393 0-.157-.157-.236-.236-.315l-2.279-1.336c-.157-.078-.157-.236-.157-.314.078-.315.157-.708.157-1.022.078-.315.078-.708.078-1.1 0-.394 0-.708-.078-1.101-.079-.393-.079-.708-.157-1.022 0-.157 0-.315.157-.315l2.279-1.336c.158-.079.236-.236.236-.315 0-.157 0-.314-.078-.393l-1.651-2.83c-.079-.157-.236-.235-.315-.235-.157 0-.314 0-.471.078l-2.28 1.337c-.157.078-.236.078-.393-.079a6.983 6.983 0 0 0-1.729-1.258c-.629-.314-1.258-.629-1.966-.864-.157 0-.235-.158-.235-.315V8.333a.599.599 0 0 0-.158-.393.597.597 0 0 0-.393-.157h-3.223a.602.602 0 0 0-.393.157.603.603 0 0 0-.157.393v2.673c0 .079-.157.236-.236.236ZM135.994 40.877c.944-.944 2.123-1.73 3.381-2.28 1.257-.472 2.594-.786 4.009-.786 1.415 0 2.751.314 4.009.786 1.257.55 2.437 1.336 3.38 2.28.943.943 1.729 2.122 2.28 3.38.471 1.258.786 2.594.786 4.009 0 1.415-.315 2.751-.786 4.009-.551 1.258-1.337 2.437-2.28 3.38-.943.943-2.123 1.73-3.38 2.28-1.258.471-2.594.786-4.009.786-1.415 0-2.752-.315-4.009-.786-1.258-.55-2.437-1.337-3.381-2.28-.943-.943-1.729-2.122-2.279-3.38-.472-1.258-.786-2.594-.786-4.01 0-1.414.314-2.75.786-4.008.55-1.258 1.336-2.437 2.279-3.38Zm3.695-1.415a9.123 9.123 0 0 0-3.066 2.043 9.12 9.12 0 0 0-2.044 3.066c-.471 1.1-.707 2.358-.707 3.616s.236 2.516.707 3.616a9.12 9.12 0 0 0 2.044 3.066 9.124 9.124 0 0 0 3.066 2.044c1.1.472 2.358.707 3.616.707s2.515-.235 3.616-.707a9.124 9.124 0 0 0 3.066-2.044 9.134 9.134 0 0 0 2.044-3.066c.471-1.1.707-2.358.707-3.616s-.236-2.515-.707-3.616a9.134 9.134 0 0 0-2.044-3.066 9.123 9.123 0 0 0-3.066-2.043c-1.101-.472-2.358-.708-3.616-.708s-2.516.315-3.616.708Zm-1.101-7.626a9.235 9.235 0 0 0-1.886.708 7.913 7.913 0 0 0-1.808.943c-.629.315-1.179.708-1.73 1.18-.55.392-1.1.864-1.572 1.336-.157.157-.393.236-.629.314-.236 0-.471 0-.707-.157-1.494-.865-3.145-1.73-4.638-2.673-.079 0-.157-.078-.236-.078h-.236c-.078 0-.157.078-.236.078-.078.079-.157.079-.157.157-1.1 1.651-2.201 3.852-3.223 5.66-.078.079-.078.158-.078.236v.236c0 .079.078.157.078.236.079.078.079.157.157.157 1.337.943 3.145 1.808 4.638 2.673.236.157.393.314.472.55 0 .079.079.157.079.236h.078l-.078.393c-.079.314-.158.707-.236 1.022-.079.314-.079.707-.157 1.022-.079.314-.079.707-.079 1.022v2.043c0 .315.079.708.079 1.023.078.392.078.707.157 1.021.078.315.157.708.236 1.022.078.236 0 .472-.079.708a.71.71 0 0 1-.472.471l-4.087 2.359-.472.314c-.079.079-.157.079-.157.157-.079.079-.079.158-.079.236v.236c0 .079 0 .157.079.236l2.987 5.188.236.393c.078.079.078.157.157.157.079.079.157.079.236.079h.236c.078 0 .157 0 .236-.079 1.493-.943 3.144-1.808 4.637-2.672.236-.158.472-.158.708-.158s.472.158.629.315c.471.471 1.022.943 1.572 1.336.55.393 1.101.786 1.729 1.18.629.314 1.18.628 1.887.943.629.236 1.258.471 1.965.707.236.079.472.236.551.393.157.157.235.393.235.629v5.346c0 .078 0 .157.079.235 0 .079.079.157.157.236.079.079.157.079.236.157.079 0 .157.079.236.079h6.524c.079 0 .158 0 .236-.079.079 0 .157-.078.236-.157.079-.079.079-.157.157-.236 0-.078.079-.157.079-.236v-5.345c0-.236.078-.472.236-.707.157-.158.393-.315.629-.394a9.229 9.229 0 0 0 1.886-.707 7.91 7.91 0 0 0 1.808-.943c.629-.315 1.179-.708 1.73-1.18.55-.392 1.1-.864 1.572-1.336.157-.157.393-.314.629-.314.235 0 .471 0 .707.157l4.559 2.594c.079.079.158.079.236.079h.236c.079 0 .157-.079.236-.079.079-.078.157-.078.157-.157 1.101-1.887 2.201-3.773 3.223-5.66.079-.079.079-.157.079-.236v-.236c0-.078-.079-.157-.079-.236-.078-.078-.078-.157-.157-.157l-4.638-2.672c-.236-.158-.393-.315-.472-.55 0-.08-.078-.08-.078-.158h-.157l.157-.471c.078-.315.157-.708.236-1.022.078-.315.078-.708.157-1.022.078-.315.078-.708.078-1.022V46.85c0-.315-.078-.708-.078-1.022-.079-.393-.079-.708-.157-1.022-.079-.314-.158-.707-.236-1.022-.079-.236 0-.471.078-.707a.71.71 0 0 1 .472-.472l4.559-2.594c.079-.079.158-.079.158-.157.078-.079.078-.158.078-.236v-.236c0-.079 0-.157-.078-.236-1.101-1.65-2.202-3.852-3.223-5.66-.079-.078-.079-.157-.158-.157-.078-.078-.157-.078-.235-.078h-.236c-.079 0-.158 0-.236.078l-4.638 2.673c-.236.157-.472.157-.708.157-.235 0-.471-.157-.628-.314a12.809 12.809 0 0 0-1.573-1.337c-.55-.393-1.1-.786-1.729-1.179-.629-.314-1.179-.629-1.887-.943-.629-.236-1.257-.472-1.965-.708-.236-.078-.472-.235-.55-.393a.894.894 0 0 1-.236-.629v-5.345c0-.079 0-.157-.079-.236 0-.079-.078-.157-.157-.236-.078-.078-.157-.078-.236-.157-.078 0-.157-.078-.235-.078h-6.525c-.079 0-.157 0-.236.078-.078 0-.157.079-.236.157-.157.157-.157.315-.157.472v5.345c0 .236-.078.472-.236.708-.236.314-.393.393-.629.472Zm-2.358-.157c-.707.315-1.336.63-1.965.944-.629.393-1.258.786-1.808 1.179-.55.471-1.179.943-1.651 1.415h-.157c-1.572-.865-3.066-1.808-4.638-2.673-.157-.079-.393-.157-.55-.157-.236 0-.393 0-.629.078-.236.079-.393.158-.55.315-.158.157-.315.314-.394.471a131.487 131.487 0 0 0-3.222 5.66 5.245 5.245 0 0 0-.236.63c0 .235 0 .392.078.628.079.236.158.393.315.55.157.158.314.315.471.393 1.494.944 3.066 1.808 4.638 2.673 0 0 .079 0 .079.079v.078l-.079.393c-.078.236-.078.393-.157.63-.078.392-.157.707-.157 1.1-.079.314-.079.707-.079 1.1v2.201c0 .393.079.708.079 1.1.079.394.079.708.157 1.101.079.394.157.708.236 1.101v.079s0 .078-.079.078c-1.729.865-3.38 1.965-5.109 2.909l.078.078-.078.079c-.157.157-.236.393-.315.55-.078.236-.078.393-.078.63 0 .235.078.392.236.628l3.537 6.053h.079l.078.078c.157.158.393.236.55.315.236.079.393.079.629.079s.393-.08.551-.158c1.572-.786 3.144-1.808 4.637-2.672h.158c.55.471 1.1 1.022 1.651 1.415.55.471 1.179.864 1.808 1.179a9.014 9.014 0 0 0 1.965.943c.707.314 1.336.55 2.044.707 0 0 .078 0 .078.08v5.423c0 .236.079.393.157.629.079.236.236.393.393.55.158.158.315.236.551.315.157.078.393.157.629.157h6.524c.236 0 .393-.079.629-.157.236-.079.393-.236.55-.315.158-.157.236-.314.315-.55a1.49 1.49 0 0 0 .157-.629V65.717s.079 0 .079-.079c.707-.235 1.415-.471 2.043-.707.708-.314 1.337-.629 1.966-.943a36.51 36.51 0 0 0 1.808-1.18c.55-.471 1.179-.943 1.65-1.414h.158l4.638 2.672c.157.079.393.157.628.236.236 0 .394 0 .629-.079.236-.078.393-.157.551-.314.157-.157.314-.314.393-.472 1.179-1.965 2.358-4.087 3.537-6.052h-.079v-.158c0-.235 0-.393-.078-.629-.079-.235-.157-.393-.315-.55-.157-.157-.314-.314-.471-.393l-4.638-2.673s-.079 0-.079-.078v-.079l.157-.472c.079-.157.079-.392.079-.55.079-.393.157-.707.157-1.1.079-.315.079-.708.079-1.1v-2.201c0-.394-.079-.708-.079-1.101-.078-.315-.078-.708-.157-1.1-.079-.394-.157-.708-.236-1.101v-.08s0-.078.079-.078l4.638-2.672c.157-.079.314-.236.471-.393.158-.158.236-.394.315-.55.078-.236.078-.394.078-.63 0-.235-.078-.393-.157-.55-1.1-2.044-2.358-4.087-3.537-6.053l-.079.079-.078-.079c-.158-.157-.393-.236-.551-.314-.235-.079-.393-.079-.629-.079-.235 0-.393.079-.628.236l-.315.157-4.245 2.437h-.157l-1.651-1.415a8.916 8.916 0 0 0-1.808-1.179 9.063 9.063 0 0 0-1.965-.943c-.707-.315-1.336-.55-2.044-.708 0 0-.078 0-.078-.078V25.784c0-.236-.079-.393-.158-.63-.078-.235-.235-.392-.393-.55-.157-.157-.314-.235-.55-.314a1.48 1.48 0 0 0-.629-.157h-6.524c-.236 0-.393.078-.629.157s-.393.236-.551.315c-.314.314-.471.707-.471 1.179V31.208s-.079 0-.079.078c-.786-.157-1.493.079-2.201.393ZM368.677 99.204a4.939 4.939 0 0 1 3.459-1.415c1.336 0 2.594.55 3.538 1.415.864.865 1.415 2.123 1.415 3.538a4.937 4.937 0 0 1-1.415 3.458c-.865.865-2.123 1.415-3.538 1.415a4.937 4.937 0 0 1-3.459-1.415 4.937 4.937 0 0 1-1.415-3.458c0-1.415.551-2.673 1.415-3.538Zm1.101-4.952c-.708.236-1.337.471-1.965.786a13.88 13.88 0 0 0-1.73 1.258c-.078.078-.236.078-.393.078l-2.28-1.336c-.157-.079-.314-.079-.393-.079-.157 0-.235.157-.314.236l-1.651 2.83c-.078.157-.078.314-.078.393 0 .157.157.236.235.314l2.28 1.337c.157.078.157.236.157.314-.078.315-.157.708-.157 1.022-.078.315-.079.708-.079 1.101s.001.707.079 1.1c.079.393.079.708.157 1.022 0 .157 0 .315-.157.315l-2.28 1.336c-.157.079-.235.236-.235.314 0 .158 0 .315.078.472l1.651 2.83c.079.157.236.236.314.236.158 0 .315 0 .393-.079l2.28-1.336c.157-.079.236-.079.393.078a6.969 6.969 0 0 0 1.73 1.258c.628.315 1.257.629 1.965.865.157 0 .236.157.236.314v2.673c0 .157.078.315.157.393a.6.6 0 0 0 .393.157h3.223a.6.6 0 0 0 .393-.157.597.597 0 0 0 .157-.393v-2.673c0-.157.079-.235.236-.314.707-.236 1.336-.472 1.965-.865a13.915 13.915 0 0 0 1.73-1.258c.078-.078.235-.078.393 0l2.279 1.337c.158.078.315.078.393.078.158 0 .236-.157.315-.235l1.651-2.83c.078-.158.078-.315.078-.393 0-.158-.157-.236-.236-.315l-2.279-1.336c-.157-.079-.157-.236-.157-.315.078-.314.157-.707.157-1.022.078-.314.078-.707.078-1.1 0-.393 0-.708-.078-1.101-.079-.393-.079-.707-.157-1.021 0-.158 0-.315.157-.315l2.279-1.336c.158-.079.236-.236.236-.315 0-.157 0-.314-.078-.393l-1.651-2.83c-.079-.157-.236-.236-.315-.236-.157 0-.314 0-.393.08l-2.279 1.335c-.158.08-.236.079-.393-.078a6.988 6.988 0 0 0-1.73-1.258c-.629-.314-1.258-.629-1.965-.865-.157 0-.236-.157-.236-.314v-2.673a.598.598 0 0 0-.157-.393.602.602 0 0 0-.393-.157h-3.223a.602.602 0 0 0-.393.157.598.598 0 0 0-.157.393v2.673c0 .079-.079.236-.236.236Z" fill="#C0CDEA"/><path fill-rule="evenodd" clip-rule="evenodd" d="M457.505 172.705c1.101-1.101 2.359-1.966 3.774-2.516 1.336-.55 2.908-.865 4.48-.865 1.573 0 3.066.315 4.481.865 1.415.629 2.751 1.494 3.773 2.516 1.101 1.1 1.966 2.358 2.516 3.773s.865 2.908.865 4.481c0 1.572-.315 3.065-.865 4.48-.629 1.415-1.494 2.752-2.516 3.774-1.1 1.1-2.358 1.965-3.773 2.515-1.336.55-2.908.865-4.481.865-1.572 0-3.065-.315-4.48-.865-1.415-.629-2.752-1.494-3.774-2.515-1.1-1.101-1.965-2.359-2.515-3.774-.55-1.336-.865-2.908-.865-4.48 0-1.573.315-3.066.865-4.481s1.415-2.673 2.515-3.773Zm4.167-1.494a12.554 12.554 0 0 0-3.459 2.28 10.618 10.618 0 0 0-2.28 3.458c-.55 1.258-.786 2.595-.786 4.01 0 1.415.315 2.829.786 4.009a12.594 12.594 0 0 0 2.28 3.458 10.58 10.58 0 0 0 3.459 2.28c1.257.55 2.594.786 4.009.786 1.415 0 2.83-.314 4.009-.786a12.554 12.554 0 0 0 3.459-2.28 10.6 10.6 0 0 0 2.279-3.458c.551-1.258.786-2.594.786-4.009 0-1.415-.314-2.83-.786-4.01a12.583 12.583 0 0 0-2.279-3.458 10.601 10.601 0 0 0-3.459-2.28c-1.258-.55-2.594-.786-4.009-.786-1.415-.079-2.752.236-4.009.786Zm-1.337-8.647c-.707.236-1.415.472-2.122.786-.708.315-1.415.629-2.044 1.022a16.73 16.73 0 0 0-1.965 1.258c-.629.471-1.179.943-1.808 1.493-.236.158-.472.315-.708.315-.235 0-.55 0-.786-.157-1.729-1.022-3.537-1.966-5.188-2.988-.079-.078-.157-.078-.236-.078h-.314c-.079 0-.157.078-.236.157-.079.079-.157.157-.157.236-1.258 1.886-2.516 4.323-3.695 6.367-.079.079-.079.157-.079.236v.314c0 .079.079.158.158.236.078.079.157.157.236.157 1.572 1.022 3.537 2.044 5.188 2.988.236.157.393.314.55.55 0 .079.079.157.079.236h.078l-.157.471c-.079.393-.157.786-.236 1.101-.078.393-.157.786-.157 1.179-.079.393-.079.786-.079 1.179v2.358c0 .394.079.787.079 1.18.079.393.079.786.157 1.179.079.393.157.786.236 1.1.079.315 0 .551-.079.786a.949.949 0 0 1-.55.551l-4.559 2.672-.55.315c-.079.078-.158.078-.236.157-.079.079-.079.157-.158.236v.314c0 .079.079.157.079.236l3.38 5.896.236.471c.079.079.079.158.157.236.079.079.158.079.236.157h.315c.078 0 .157-.078.235-.078 1.651-1.022 3.459-2.044 5.189-2.987.235-.157.471-.157.786-.157.236 0 .471.157.707.314.551.55 1.179 1.022 1.808 1.494.629.471 1.258.864 1.965 1.257.629.393 1.337.708 2.044 1.022.708.315 1.415.55 2.201.786.236.079.472.236.629.472.157.236.236.472.236.707v5.975c0 .078 0 .157.079.314 0 .079.078.157.157.236.079.079.157.157.236.157.078 0 .157.079.314.079h7.311c.078 0 .157 0 .314-.079.079 0 .157-.078.236-.157.079-.079.157-.157.157-.236 0-.078.079-.157.079-.314v-5.817c0-.315.079-.551.236-.786.157-.236.393-.394.707-.472.708-.236 1.415-.472 2.123-.786.707-.315 1.415-.629 2.044-1.022a16.73 16.73 0 0 0 1.965-1.258c.629-.472 1.257-.943 1.808-1.493.236-.236.471-.315.707-.315s.551.079.786.236l5.11 2.908c.079.079.157.079.236.079h.314c.079 0 .157-.079.236-.157.079-.079.157-.157.157-.236 1.179-2.122 2.437-4.245 3.616-6.367.079-.079.079-.158.079-.236v-.315c0-.078-.079-.157-.157-.235-.079-.079-.158-.158-.236-.158l-5.188-2.987a1.84 1.84 0 0 1-.551-.55c0-.079-.078-.157-.078-.236h-.157l.157-.55c.078-.393.157-.786.236-1.101.078-.393.157-.786.157-1.179.078-.393.078-.786.078-1.179v-2.358c0-.393-.078-.786-.078-1.179-.079-.393-.079-.786-.157-1.179a26.697 26.697 0 0 0-.236-1.101c-.079-.314 0-.55.078-.786a.949.949 0 0 1 .551-.55l5.109-2.988c.079-.078.157-.078.236-.157.079-.078.079-.157.157-.236v-.314c0-.079-.078-.157-.078-.236-1.258-1.886-2.516-4.323-3.616-6.367-.079-.079-.079-.157-.158-.236-.078-.079-.157-.079-.235-.157h-.315c-.078 0-.157.078-.236.078l-5.188 2.988c-.236.157-.55.157-.786.157s-.472-.157-.707-.315c-.551-.55-1.18-1.022-1.73-1.493a16.73 16.73 0 0 0-1.965-1.258c-.629-.393-1.336-.707-2.044-1.022-.707-.314-1.415-.55-2.201-.786a1.223 1.223 0 0 1-.629-.472 1.266 1.266 0 0 1-.236-.707v-5.974c0-.079 0-.158-.078-.315 0-.078-.079-.157-.158-.236-.078-.078-.157-.157-.235-.157-.079 0-.158-.079-.315-.079h-7.31c-.079 0-.158 0-.315.079-.078 0-.157.079-.236.157a.716.716 0 0 0-.236.551v5.974c0 .314-.078.55-.235.786 0 .236-.236.393-.551.393Zm-2.515-.157c-.786.314-1.494.707-2.201 1.1-.708.393-1.415.865-2.044 1.337-.629.471-1.258 1.022-1.887 1.572h-.157c-1.729-1.022-3.459-1.965-5.188-2.987-.236-.079-.393-.158-.629-.236-.236 0-.472 0-.707.078-.236.079-.472.158-.629.315a3.351 3.351 0 0 0-.472.55c-1.258 2.044-2.437 4.245-3.695 6.368-.157.235-.157.471-.235.707 0 .236 0 .472.078.707.079.236.157.472.315.629.157.158.314.315.55.472 1.651 1.022 3.459 1.965 5.188 2.987 0 0 .079 0 .079.079v.078l-.157.472c-.079.236-.079.472-.158.708-.078.393-.157.786-.157 1.179-.079.393-.079.786-.079 1.257v2.516c0 .393.079.865.079 1.258.079.393.079.786.157 1.179l.236 1.179v.079s0 .078-.078.078c-1.887 1.022-3.852 2.201-5.66 3.302l.078.078-.078.079c-.158.157-.236.393-.315.629-.078.236-.078.471-.078.707s.078.472.235.708l3.931 6.839.078-.079s.079.079.158.079c.157.157.393.236.629.314.235.079.471.079.707.079a.893.893 0 0 0 .629-.236c1.729-.943 3.459-2.044 5.188-2.987h.157c.629.55 1.179 1.1 1.887 1.572.629.472 1.336.943 2.044 1.336.707.393 1.415.786 2.201 1.101.786.314 1.493.629 2.28.786 0 0 .078 0 .078.079v6.053c0 .235.079.471.157.707.079.236.236.393.393.629.158.157.393.314.551.393.235.079.471.157.707.157h7.311c.236 0 .471-.078.707-.157s.393-.236.629-.393c.157-.157.315-.393.393-.629.079-.236.157-.472.157-.707v-6.132l.079-.079c.786-.235 1.572-.471 2.28-.786.786-.314 1.493-.707 2.201-1.1a18.295 18.295 0 0 0 2.044-1.337c.628-.471 1.257-1.021 1.886-1.572 0 0 .079 0 .079-.078h.078l5.189 2.987c.235.157.471.236.707.236s.472 0 .708-.079c.235-.079.471-.157.628-.314.158-.158.315-.315.472-.551 1.337-2.201 2.673-4.559 3.931-6.839l-.079-.078v-.158c0-.235 0-.471-.079-.707-.078-.236-.157-.472-.314-.629a3.45 3.45 0 0 0-.55-.472l-5.189-2.987-.078-.078v-.079l.157-.55c.079-.236.079-.393.157-.629.079-.393.158-.786.158-1.179.078-.393.078-.786.078-1.258V179.544c0-.393-.078-.865-.078-1.258-.079-.393-.079-.786-.158-1.179l-.236-1.179v-.079s.001-.079.079-.079l5.188-2.987c.236-.157.393-.314.551-.471.157-.158.235-.394.314-.629.079-.236.079-.472.079-.708a.895.895 0 0 0-.236-.629c-1.258-2.279-2.673-4.559-3.931-6.839l-.078.079s-.079-.079-.158-.079c-.157-.157-.393-.236-.628-.314-.236-.079-.472-.079-.708-.079s-.472.079-.707.236l-.393.236-4.796 2.751h-.078s-.079 0-.079-.078a12.494 12.494 0 0 0-1.886-1.573 18.429 18.429 0 0 0-2.044-1.336c-.708-.393-1.415-.786-2.201-1.1-.786-.315-1.494-.629-2.28-.787 0 0-.079 0-.079-.078v-6.053c0-.236-.078-.472-.157-.708-.078-.235-.236-.393-.393-.628a2.346 2.346 0 0 0-.55-.393c-.236-.079-.472-.158-.708-.158h-7.31c-.236 0-.472.079-.708.158-.236.078-.393.235-.629.393-.314.314-.55.786-.55 1.257v6.053l-.078.079c-.787.393-1.573.707-2.28 1.022Z" fill="#CFDCFA"/><path fill-rule="evenodd" clip-rule="evenodd" d="M201.161 25.39a.872.872 0 0 0-.865-.865.873.873 0 0 0-.865.865v1.965h-1.965a.872.872 0 0 0-.864.865c0 .472.393.865.864.865h1.965v1.965c0 .472.394.865.865.865a.872.872 0 0 0 .865-.865v-1.965h1.965a.872.872 0 0 0 .865-.865.872.872 0 0 0-.865-.865h-1.965V25.39ZM278.905 19.652a.872.872 0 0 0-.865-.865.872.872 0 0 0-.864.865v1.965h-1.966a.872.872 0 0 0-.864.865c0 .471.393.864.864.864h1.966v1.966c0 .471.393.864.864.864a.872.872 0 0 0 .865-.864v-1.966h1.965a.872.872 0 0 0 .865-.864.872.872 0 0 0-.865-.865h-1.965v-1.965ZM423.075 194.48a.872.872 0 0 0-.865-.865.872.872 0 0 0-.864.865v1.965h-1.966a.872.872 0 0 0-.864.865c0 .472.393.865.864.865h1.966v1.965c0 .471.393.865.864.865a.873.873 0 0 0 .865-.865v-1.965h1.965a.872.872 0 0 0 .865-.865.872.872 0 0 0-.865-.865h-1.965v-1.965Z" fill="#9FB2D9"/><path fill-rule="evenodd" clip-rule="evenodd" d="M21.617 310.348H3.067A3.07 3.07 0 0 1 0 307.283c0-1.651 1.415-3.066 3.066-3.066h18.552a3.07 3.07 0 0 1 3.065 3.066c0 1.65-1.415 3.065-3.066 3.065ZM515.284 310.348h-18.552a3.07 3.07 0 0 1-3.066-3.065c0-1.651 1.415-3.066 3.066-3.066h18.552c1.729 0 3.065 1.415 3.065 3.066 0 1.65-1.415 3.065-3.065 3.065Z" fill="#00000F"/><path fill-rule="evenodd" clip-rule="evenodd" d="M247.254 29.87c2.084 9.784 10.782 17.122 21.2 17.122h30.26v25.91c0 4.35-3.534 7.883-7.882 7.883h-52.909l-13.499 13.499c-.272.272-.634.362-.997.181-.362-.181-.543-.453-.543-.815V37.842a7.887 7.887 0 0 1 7.882-7.882h16.488v-.09Z" fill="#C0CDEA"/><path fill-rule="evenodd" clip-rule="evenodd" d="M288.749 27.514h-59.975a7.887 7.887 0 0 0-7.882 7.882v55.808c0 .362.181.634.543.815.363.181.725.09.997-.181l13.499-13.5h52.909c4.348 0 7.882-3.532 7.882-7.881v-34.97c-.091-4.35-3.624-7.973-7.973-7.973Z" fill="#EA923A"/><path fill-rule="evenodd" clip-rule="evenodd" d="M308.062 112.166s-.55-2.044-2.28-2.123c-1.729-.078-2.358 2.044-1.886 2.28.55.314 4.166-.157 4.166-.157ZM306.569 115.782l.472-.078 1.572-.315c-1.887 5.188-7.153 4.402-5.11.472l2.595-.55v.235c0 .158.157.315.314.236h.157Z" fill="#F2D8CD"/><path fill-rule="evenodd" clip-rule="evenodd" d="M387.772 66.258h-74.05c-2.044 0-4.009 1.65-4.48 3.695l-10.455 50.152c-.393 2.044.864 3.695 2.908 3.695h74.05c2.044 0 4.009-1.651 4.481-3.695l10.455-50.153c.471-1.965-.865-3.694-2.909-3.694Z" fill="#fff"/><path fill-rule="evenodd" clip-rule="evenodd" d="M387.772 66.258h-71.613c-2.044 0-4.009 1.65-4.481 3.695l-10.455 50.152c-.393 2.044.865 3.695 2.909 3.695h71.613c2.043 0 4.009-1.651 4.48-3.695l10.455-50.153c.472-1.965-.864-3.694-2.908-3.694Z" fill="#DCDCEE"/><path fill-rule="evenodd" clip-rule="evenodd" d="M328.815 123.799h18.159c.315-.707.55-1.179.55-1.336 0-.707-4.166-13.206-10.219-15.171l-3.537-.079-4.953 16.586Z" fill="#B5B6D3"/><path fill-rule="evenodd" clip-rule="evenodd" d="M380.933 101.238h-71.927c-.786 0-1.573.629-1.73 1.415-.157.786.315 1.415 1.101 1.415h71.927c.786 0 1.572-.629 1.73-1.415.235-.786-.315-1.415-1.101-1.415ZM379.282 105.562h-70.276c-1.258 0-2.437 1.022-2.673 2.28l-2.437 11.713c-.236 1.258.55 2.28 1.808 2.28h70.277c1.258 0 2.437-1.022 2.673-2.28l2.436-11.713c.158-1.258-.628-2.28-1.808-2.28Z" fill="#D0D0E6"/><path fill-rule="evenodd" clip-rule="evenodd" d="M329.444 121.756h17.845c-.865-2.83-4.717-12.735-10.062-14.464l-3.538-.079-4.245 14.543ZM378.654 77.97h-12.185c-.786 0-1.493.63-1.65 1.337l-3.695 17.687c-.157.786.314 1.337 1.1 1.337h12.185c.786 0 1.493-.63 1.651-1.337l3.694-17.687c.157-.707-.314-1.336-1.1-1.336Z" fill="#B5B6D3"/><path fill-rule="evenodd" clip-rule="evenodd" d="M380.304 77.97H368.12c-.786 0-1.494.63-1.651 1.337l-3.695 17.687c-.157.786.315 1.337 1.101 1.337h12.184c.786 0 1.494-.63 1.651-1.337l3.695-17.687c.157-.707-.315-1.336-1.101-1.336Z" fill="#D0D0E6"/><path fill-rule="evenodd" clip-rule="evenodd" d="M377.16 88.19a.922.922 0 0 0-.865.707l-1.257 6.131c-.079.393.157.708.55.708a.92.92 0 0 0 .864-.708l1.258-6.131c.157-.393-.078-.708-.55-.708ZM373.78 88.19a.922.922 0 0 0-.865.707l-1.257 6.131c-.079.393.157.708.55.708a.922.922 0 0 0 .865-.708l1.257-6.131c.079-.393-.157-.708-.55-.708ZM370.321 88.19a.922.922 0 0 0-.865.707l-1.257 6.131c-.079.393.157.708.55.708a.922.922 0 0 0 .865-.708l1.257-6.131c.079-.393-.157-.708-.55-.708ZM366.862 88.19a.922.922 0 0 0-.865.707l-1.257 6.131c-.079.393.157.708.55.708a.922.922 0 0 0 .865-.708l1.257-6.131c.079-.393-.157-.708-.55-.708Z" fill="#B5B6D3"/><path fill-rule="evenodd" clip-rule="evenodd" d="M387.3 70.738h-71.927c-.786 0-1.572.63-1.73 1.415-.157.786.315 1.415 1.101 1.415h71.927c.786 0 1.573-.629 1.73-1.415.236-.786-.315-1.415-1.101-1.415Z" fill="#D0D0E6"/><path fill-rule="evenodd" clip-rule="evenodd" d="M378.574 106.898h-69.49a.756.756 0 0 0-.708.551c-.078.314.158.55.472.55h69.491a.755.755 0 0 0 .707-.55c0-.315-.157-.551-.472-.551Zm-2.515 11.949h-69.491a.756.756 0 0 0-.707.55c-.079.315.157.551.472.551h69.49a.756.756 0 0 0 .708-.551c.078-.314-.158-.55-.472-.55Zm.55-2.358h-69.49a.756.756 0 0 0-.708.55c-.078.314.157.55.472.55h69.49a.756.756 0 0 0 .708-.55c0-.314-.157-.55-.472-.55Zm.472-2.437H307.59a.755.755 0 0 0-.707.55c-.079.315.157.55.472.55h69.49a.755.755 0 0 0 .708-.55c0-.314-.158-.55-.472-.55Zm.472-2.358h-69.491a.753.753 0 0 0-.707.55c-.079.314.157.55.471.55h69.491a.755.755 0 0 0 .707-.55c.079-.315-.157-.55-.471-.55Zm.55-2.437h-69.491a.755.755 0 0 0-.707.55c-.079.314.157.55.471.55h69.491a.755.755 0 0 0 .707-.55c0-.314-.157-.55-.471-.55Z" fill="#B5B6D3"/><path fill-rule="evenodd" clip-rule="evenodd" d="M333.532 107.999h5.188a5.977 5.977 0 0 0-1.415-.707l-3.538-.079-.235.786Zm-.393 1.258-.315 1.1h8.568c-.314-.393-.707-.786-1.021-1.1h-7.232Zm-.708 2.437-.314 1.1h11.084c-.236-.393-.472-.786-.787-1.1h-9.983Zm-.707 2.358-.315 1.1h13.206a5.021 5.021 0 0 0-.628-1.1h-12.263Zm-.708 2.437-.314 1.1h15.014a7.145 7.145 0 0 0-.55-1.1h-14.15Zm-.707 2.358-.315 1.101h16.744a15.538 15.538 0 0 1-.472-1.101h-15.957Z" fill="#9295BC"/><path fill-rule="evenodd" clip-rule="evenodd" d="M317.81 86.932h-1.257c-.472 0-.944.393-1.022.864l-.786 3.695c-.079.472.235.865.628.865h1.258c.472 0 .943-.393 1.022-.865l.786-3.695c.079-.55-.157-.864-.629-.864Z" fill="#B5B6D3"/><path fill-rule="evenodd" clip-rule="evenodd" d="M320.011 79.07h-2.358c-.865 0-1.73.708-1.887 1.573l-1.415 6.838c-.157.865.393 1.573 1.258 1.573h2.358c.865 0 1.729-.708 1.887-1.573l1.415-6.838c.157-.865-.393-1.573-1.258-1.573ZM359.945 76.635h-31.522c-.629 0-1.258.55-1.415 1.179l-3.931 18.945c-.157.629.315 1.179.944 1.179h31.522c.629 0 1.258-.55 1.415-1.18l3.93-18.944c.079-.629-.314-1.18-.943-1.18Z" fill="#D0D0E6"/><path fill-rule="evenodd" clip-rule="evenodd" d="M357.665 79.385h-16.901c-.314 0-.707.314-.786.629-.078.314.157.629.472.629h16.901c.314 0 .707-.315.786-.63.078-.392-.157-.628-.472-.628Z" fill="#fff"/><path fill-rule="evenodd" clip-rule="evenodd" d="M357.036 82.451h-26.727c-.314 0-.707.315-.786.629-.079.314.157.629.472.629h26.727c.314 0 .707-.315.786-.629.078-.314-.157-.629-.472-.629ZM356.328 85.674h-26.727c-.314 0-.707.314-.786.629-.079.314.157.629.472.629h26.727c.314 0 .707-.315.786-.63.079-.392-.079-.628-.472-.628ZM355.699 88.818h-26.727c-.314 0-.707.315-.786.63-.078.314.157.628.472.628h26.727c.314 0 .707-.314.786-.629.079-.314-.157-.629-.472-.629ZM354.992 91.963h-26.727c-.314 0-.707.314-.786.629-.079.314.157.629.472.629h26.727c.314 0 .707-.315.786-.63.157-.314-.079-.628-.472-.628ZM354.363 95.186h-26.727c-.314 0-.707.314-.786.628-.078.315.157.63.472.63h26.727c.314 0 .707-.315.786-.63.079-.393-.157-.628-.472-.628ZM330.938 79.385h6.682c.314 0 .55.314.471.629-.078.314-.393.629-.786.629h-6.681c-.315 0-.551-.315-.472-.63.079-.392.472-.628.786-.628ZM336.441 107.685c-.55 0-1.494.157-1.494-.472 0-.55.472-1.022 1.022-1.022h20.989c.629 0 4.088.158 4.323 4.167.079 1.336.629 5.581 1.337 10.219.629 4.481 1.336 9.512 1.808 12.263.078.786.157 1.572.157 2.358 0 1.572-.314 3.145-1.022 4.402-.786 1.337-2.044 2.28-4.009 2.594-.393.079-.786.079-1.258.079h-22.482c-.55 0-1.022-.472-1.022-1.022s.943-.314 1.572-.314l3.773-.708c.315 0 .629 0 .944-.078 1.258-.158 2.044-.786 2.515-1.573.551-.864.708-2.043.708-3.301 0-.708-.079-1.337-.157-2.044-.394-2.673-1.337-7.546-2.044-12.342-.629-4.638-1.258-8.961-1.337-10.376-.157-2.201-1.886-2.201-2.201-2.201h-.078l-2.044-.629Z" fill="#B5B6D3"/><path fill-rule="evenodd" clip-rule="evenodd" d="M334.79 108.313a1.04 1.04 0 0 1-1.022-1.022c0-.55.472-1.021 1.022-1.021h2.122c.629 0 4.088.157 4.324 4.166.078 1.336.629 5.581 1.336 10.219.629 4.481 1.337 9.512 1.808 12.263.079.786.157 1.572.157 2.358 0 1.573-.314 3.145-1.022 4.402-.786 1.337-2.043 2.28-4.009 2.595-.393.078-.786.078-1.257.078h-5.739a1.04 1.04 0 0 1-1.022-1.022c0-.55.472-1.022 1.022-1.022h5.739c.314 0 .629 0 .943-.078 1.258-.158 2.044-.786 2.515-1.572.551-.865.708-2.044.708-3.302 0-.708-.079-1.336-.157-2.044-.393-2.673-1.101-7.546-1.808-12.342-.629-4.637-1.258-8.961-1.337-10.376-.157-2.201-1.886-2.201-2.201-2.201h-2.122v-.079Z" fill="#fff"/><g clip-path="url(#b)" fill-rule="evenodd" clip-rule="evenodd"><path d="M407.904 155.555c-.158-2.516-2.28-4.324-4.796-4.166-2.515.157-4.323 2.279-4.166 4.795.629 9.512 1.651 20.045 3.223 31.837h-81.596a933.762 933.762 0 0 0 3.93-31.68c.236-2.437-1.493-4.716-4.009-4.952-2.437-.236-4.716 1.493-4.952 4.009-2.044 18.709-5.11 41.505-9.669 69.176-3.852 23.583-8.883 50.624-15.172 81.753h9.119c6.21-30.5 11.084-57.148 14.857-80.26 1.729-10.297 3.223-19.966 4.481-29.006h84.112a886.473 886.473 0 0 0 4.795 29.085c4.245 23.19 10.062 49.76 18.001 80.181h9.355c-8.097-31.129-14.071-58.249-18.395-81.832-2.122-11.634-3.852-22.325-5.267-32.23 0-.235-.078-.471-.078-.628-1.808-13.521-3.066-25.47-3.773-36.082Z" fill="#3B405F"/><path d="M222.071 199.341c0-1.337-1.1-2.359-2.358-2.359-1.337 0-2.359 1.101-2.359 2.359V306.171h4.796V274.57h36.396v31.601h4.795V199.341a2.365 2.365 0 0 0-2.358-2.359c-1.337 0-2.359 1.101-2.359 2.359v61.787H222.15v-61.787h-.079Zm36.475 70.512h-36.475v-5.738h36.475v5.738Z" fill="#00000F"/><path d="M180.881 199.341c0-1.337-1.101-2.359-2.359-2.359-1.336 0-2.358 1.101-2.358 2.359V306.171h4.795V274.57h36.475v31.601h4.795V199.341c0-1.337-1.1-2.359-2.358-2.359-1.337 0-2.358 1.101-2.358 2.359v61.787h-36.632v-61.787Zm36.474 70.512h-36.474v-5.738h36.474v5.738Z" fill="#674834"/><path d="M267.743 199.34H174.67a2.985 2.985 0 0 0-2.987 2.987 2.985 2.985 0 0 0 2.987 2.987h93.152a2.986 2.986 0 0 0 2.987-2.987c-.079-1.651-1.415-2.987-3.066-2.987Z" fill="#00000F"/><path d="M271.124 196.354H170.661a2.985 2.985 0 0 0-2.987 2.987 2.986 2.986 0 0 0 2.987 2.987h100.463a2.987 2.987 0 1 0 0-5.974Z" fill="#B56B41"/><path d="M210.28 196.354h-39.619a2.985 2.985 0 0 0-2.987 2.987 2.986 2.986 0 0 0 2.987 2.987h39.619a2.986 2.986 0 0 0 2.987-2.987 2.985 2.985 0 0 0-2.987-2.987Z" fill="#D58750"/><path d="M268.451 118.766c8.647 2.122 26.019 5.581 31.601 12.734 3.616 4.638 4.087 10.22-1.887 10.22h-30.422l.708-22.954ZM207.135 156.97l-11.712 10.219s-6.761-18.552-.079-34.824 31.915-17.451 42.37-18.473c10.455-1.022 23.74 27.827 23.74 27.827l-54.319 15.251Z" fill="#D64C47"/><path d="M249.978 170.019s22.168 5.031 24.998 5.659c2.829.629 10.376 8.176 11.712 15.486 1.337 7.233 13.6 99.441 13.6 99.441s-3.145 5.503-3.616 5.581c-.393.079-6.446-2.751-6.446-2.751s-21.382-78.137-23.819-85.055c-2.437-6.918-1.808-12.027-9.354-12.027h-22.718l-5.896-19.967 2.358-2.28c-2.594.157-4.559.157-4.952-.078-1.101-.629-17.923-6.839-17.923-6.839s12.106-3.616 13.128-4.009c1.1-.393 18.473-1.887 18.473-1.887s.078 4.795.943 5.817c.865 1.022 2.673 1.415 2.673 1.415l6.839 1.494Z" fill="#00000F"/><path d="M196.838 146.594c-.157 6.288-.393 12.892-1.415 16.272.393 2.201 0 4.245 0 4.245l-.157.471c.157.472.235.787.235.787 2.752 2.122 5.739 2.201 9.119 3.458v-.471l-.157-.629 9.905 4.795c3.38-.314 24.683-1.729 29.95-6.839-.472-5.031 20.831-19.102 26.648-20.438l-74.128-1.651Z" fill="#D64C47"/><path d="M297.694 292.1s.943-2.122 3.223-1.493c2.28.629 15.958 8.175 18.08 9.04 2.123.943 4.402 4.48 2.673 6.524h-32.466c-1.886-1.179-3.773-5.109-1.808-12.027 2.044-6.917 1.572.393 10.298-2.044Z" fill="#EA5756"/><path d="M297.693 292.1s.944-2.122 3.223-1.493c1.415.393 7.232 3.459 11.949 5.974-1.415 1.022-4.324 1.965-4.952 1.808-.787-.157-10.22-6.289-10.22-6.289Z" fill="#DB4141"/><path d="M287.16 306.171h35.06c.55 0 .943-.393.943-.944v-1.729c0-.55-.393-.943-.943-.943h-35.06c-.55 0-.943.393-.943.943v1.729c0 .551.471.944.943.944Z" fill="#FFFAF9"/><path d="M202.183 196.353c-12.734 0-13.285-22.246-6.681-29.164 0 0 3.301 2.595 8.568 2.595 8.647-.079 28.928-4.953 35.138 3.301 6.21 8.254 8.49 22.168 4.874 42.371-3.616 20.202-12.499 78.294-12.499 78.294l-10.219-.864s1.494-81.911 1.651-86.235c.157-4.323-2.123-10.14-6.839-10.14-4.638-.158-13.993-.158-13.993-.158Z" fill="#131936"/><path d="M229.461 292.729s-3.852-4.795-8.568-1.022c0 0-2.595 1.022-3.538 3.459-.943 2.437-2.83 3.538-3.144 6.21-.315 2.673.393 4.717 3.852 4.717h5.502c2.437 0 6.053.393 7.232-2.83 1.258-3.223 0-6.21.393-7.861.472-1.572-1.729-2.673-1.729-2.673Z" fill="#EA5756"/><path d="M229.461 292.729s-3.852-4.795-8.568-1.022c0 0-.472.236-1.101.629-.314 2.123-.472 4.324-.314 4.953.393 1.179 6.524.864 7.389.471.629-.314 2.122-3.458 2.83-4.952-.157 0-.236-.079-.236-.079Z" fill="#DB4141"/><path d="M214.603 306.171h16.037c.55 0 .943-.393.943-.944v-1.729c0-.55-.393-.943-.943-.943h-16.037c-.55 0-.943.393-.943.943v1.729c0 .551.393.944.943.944Z" fill="#FFFAF9"/><path d="M257.052 171.592c-.314.393-.629.786-1.022 1.179a17.849 17.849 0 0 0-3.616 6.131c-.078.158 0 .315.236.394.157.078.315 0 .393-.236.079-.315.236-.629.315-.944 0 0 .078.079.157.079.157.079.314 0 .393-.236a15.305 15.305 0 0 1 2.673-4.874l1.336-1.336-.865-.157Zm1.808.393 1.101.236c-.551.471-1.101 1.1-1.572 1.729a16.861 16.861 0 0 0-2.595 4.874c-.078.157-.157.236-.314.236 0 .078-.079.236-.079.314a.431.431 0 0 1-.393.236c-.078 0-.157-.079-.157-.157v.078a.43.43 0 0 1-.393.236.432.432 0 0 1-.236-.393c.944-3.301 2.909-5.738 4.638-7.389Zm1.337.314 1.1.236c-1.493 1.258-3.38 3.302-4.638 5.974-.157.315-.236.629-.393 1.022 0 .079-.079.158-.157.158-.079.157-.157.393-.236.628a.432.432 0 0 1-.393.236.432.432 0 0 1-.236-.393c.236-.629.472-1.258.708-1.808 1.179-2.594 2.83-4.559 4.245-6.053Zm1.415.315.864.157a22.403 22.403 0 0 0-2.594 2.751c-.943 1.258-1.808 2.752-2.358 4.56 0 .078-.079.157-.236.235 0 .079 0 .079-.079.158a.43.43 0 0 1-.393.235.43.43 0 0 1-.235-.393 15.408 15.408 0 0 1 2.751-5.031 20.929 20.929 0 0 1 2.28-2.672Zm2.122.55c-1.887 1.572-4.402 4.323-5.66 8.175-.079.158 0 .315.236.393.157.079.314 0 .393-.235 1.258-3.774 3.695-6.368 5.503-7.861-.708.707-1.573 1.493-2.28 2.515-1.101 1.415-2.201 3.145-2.83 5.267-.079.157 0 .314.236.393h.078c0 .079-.078.157-.078.236-.079.157 0 .314.236.393.157.078.314 0 .393-.157 0-.079.078-.158.078-.315 0-.078.079-.157.079-.236.079-.157.157-.393.236-.55 0-.078.078-.157.078-.236 0-.078.079-.157.079-.236.079-.078.079-.157.157-.235.079-.079.079-.158.157-.236 0-.079.079-.157.079-.236v-.079c0-.078.079-.157.079-.157v-.078c0-.079.078-.158.078-.158v-.078c0-.079.079-.079.079-.157l.078-.079c0-.079.079-.079.079-.157l.079-.079.078-.157.079-.079.079-.157.078-.079.079-.157.078-.078.079-.079c-.708 1.101-1.258 2.28-1.729 3.616-.079.157 0 .314.235.393-.078.157-.157.393-.157.55-.078.158 0 .315.157.393.158.079.315 0 .393-.235 0-.079 0-.079.079-.158.079 0 .157-.078.236-.236l.236-.707c0 .157.078.314.236.393.157.079.314 0 .393-.236 1.179-3.537 3.458-6.053 5.266-7.625l.158-.078-.944-.236c-.078.078-.236.157-.314.314.078-.078.236-.157.314-.314l-2.751-.865Zm3.616.786c-1.808 1.572-4.166 4.245-5.424 7.94-.079.157 0 .314.236.393.157.078.314 0 .393-.236 0-.079.078-.157.078-.236 0 .079.079.157.158.157.157.079.314 0 .393-.236 1.179-3.537 3.459-6.053 5.188-7.625l-1.022-.157Zm1.336.315 2.594.628c-1.808 1.415-4.637 4.167-5.974 8.254a.43.43 0 0 1-.393.236c-.078 0-.157-.078-.157-.157-.079.079-.236.079-.315.079a.432.432 0 0 1-.235-.393 16.947 16.947 0 0 1 4.087-6.604c-1.572 1.573-3.301 3.774-4.245 6.761a.431.431 0 0 1-.393.236.432.432 0 0 1-.235-.393v-.079c-.079.079-.158.079-.236 0-.158-.079-.236-.236-.158-.393 1.337-3.931 3.774-6.603 5.66-8.175Zm2.83.628.786.158c-1.808 1.336-4.873 4.166-6.288 8.489a.432.432 0 0 1-.393.236.43.43 0 0 1-.236-.393c1.336-4.166 4.166-6.996 6.131-8.49ZM240.466 237.152c-.786-.236-1.729-.393-2.751-.472-2.044-.315-4.638-.393-7.468.393-.157.079-.314.236-.314.393 0 .157.157.314.314.236.393-.079.707-.157 1.022-.236 0 .079-.079.079 0 .157 0 .157.157.315.314.236 2.201-.55 4.167-.707 5.896-.55 1.101.157 2.044.471 2.83.707l.157-.864Zm-.314 1.886-.157 1.101c-.787-.236-1.73-.472-2.752-.551-1.729-.157-3.694 0-5.895.551-.158.078-.315 0-.315-.157-.079 0-.236.078-.314.078-.158.079-.315-.078-.315-.236 0-.078 0-.157.079-.236h-.079c-.157.079-.314-.078-.314-.235 0-.158.157-.393.314-.393a16.744 16.744 0 0 1 9.748.078Zm-.236 1.337c-2.044-.551-4.717-.865-7.861-.236-.629.078-1.336.236-2.044.471-.157.079-.314.236-.314.393 0 .158.157.315.314.236.236-.078.472-.078.708-.157h.235c.394-.079.787-.157 1.101-.236 3.223-.471 5.896.079 7.704.629l.157-1.1Zm-.236 1.415-.157.786c-.943-.315-2.123-.551-3.38-.629-1.572-.079-3.459.078-5.424.55-.079 0-.236 0-.315-.079-.078 0-.078 0-.157.079-.157.079-.314-.079-.314-.236 0-.157.157-.393.314-.393a16.842 16.842 0 0 1 6.053-.55c1.336 0 2.437.236 3.38.472Zm-.314 2.043-.079.708c-2.201-.708-5.503-1.258-9.512-.157-.157.078-.314-.079-.314-.236 0-.157.157-.393.314-.393 3.931-1.101 7.311-.629 9.591.078Zm-.158.786a15.005 15.005 0 0 0-2.908-.471 18.114 18.114 0 0 0-6.289.55c-.157.079-.314.236-.314.393v.079c-.079 0-.157.078-.236.078-.157.079-.315.236-.315.393 0 .158.158.315.315.236.079 0 .236-.078.314-.078.079 0 .236-.079.315-.079.236-.079.393-.079.629-.157.078 0 .235 0 .314-.079.079 0 .236 0 .315-.078.078 0 .235 0 .314-.079H234.492c-1.336 0-2.751.236-4.245.629-.157.078-.314.236-.314.393-.236.078-.393.078-.629.157-.158.079-.315.236-.315.393 0 .157.157.315.315.236.078 0 .078 0 .157-.079.079.079.157.079.314.079.315-.079.551-.157.865-.236-.157.079-.314.236-.314.393 0 .157.157.315.314.236 3.144-.865 5.974-.707 8.097-.236l.471-2.673Zm-.471 2.909-.157 1.101c-2.044-.394-4.638-.472-7.626.314-.157.079-.314-.079-.314-.236 0-.078.079-.236.079-.314-.079 0-.158.078-.236.078-.157.079-.315-.078-.315-.236 0-.157.158-.393.315-.393 3.301-.943 6.131-.786 8.254-.314Zm-.157 1.258c-2.123-.472-4.953-.55-8.097.314-.157.079-.315.236-.315.393 0 .079.079.157.079.236h-.079c-.157.079-.314.236-.314.393 0 .157.157.315.314.236 3.223-.865 6.053-.708 8.176-.157l.236-1.415Zm-.236 1.415-.157 1.179c-2.044-.393-4.717-.55-7.704.314-.157.079-.315-.078-.315-.236 0-.078 0-.157.079-.235-.079 0-.157-.158-.157-.236 0-.157.157-.393.314-.393 3.066-.944 5.817-.786 7.94-.393Zm-.236 1.336c-2.123-.393-4.874-.55-7.94.315-.157.078-.314.235-.314.393 0 .157.157.314.314.235 3.066-.786 5.739-.707 7.783-.314l.157-.629ZM287.553 197.06c-1.179-.157-2.594-.314-4.323-.157-2.123 0-4.638.472-7.311 1.729-.157.079-.315.315-.236.472 0 .157.236.236.393.157.315-.157.629-.314 1.022-.471v.157c0 .157.236.236.393.157 2.044-.943 4.009-1.415 5.66-1.572 2.044 0 3.695.314 4.559.55l-.157-1.022Zm.236 2.044.157 1.101c-1.022-.236-2.673-.551-4.638-.393-1.729.157-3.616.628-5.66 1.572-.157.078-.314 0-.314-.079-.079.079-.236.079-.315.157-.157.079-.314 0-.393-.157v-.236h-.078c-.158.079-.315 0-.393-.157 0-.157.078-.393.235-.472a17.429 17.429 0 0 1 11.399-1.336Zm.236 1.258a17.644 17.644 0 0 0-9.669.943c-.629.236-1.258.472-1.966.786-.157.079-.314.315-.235.472 0 .157.235.236.393.157a2.37 2.37 0 0 0 .629-.314h.235c.393-.158.708-.315 1.101-.472 4.559-1.572 8.333-.707 9.826-.314l-.314-1.258Zm.157 1.493c-1.336-.235-3.223-.471-5.503-.157-1.808.157-3.773.629-5.895 1.651-.158.079-.315.314-.236.472 0 .157.236.235.393.157.078 0 .078-.079.157-.079.079.079.157.079.314 0 1.887-.864 3.616-1.336 5.189-1.572 2.515-.236 4.559.157 5.66.393l-.079-.865Zm.314 2.28.236 1.572a8.37 8.37 0 0 0-.943-.236H288.575l.157 1.101c-.471-.079-1.022-.236-1.651-.314.629.078 1.18.235 1.651.314l.315 1.965a16.798 16.798 0 0 0-10.298 1.415c-.157.079-.315 0-.393-.157 0-.079 0-.236.078-.315-.078 0-.157.079-.235.079-.158.079-.315 0-.394-.157 0-.157.079-.393.236-.472 4.167-1.965 7.94-1.886 10.298-1.493-.157-.079-.393-.079-.629-.158-2.279-.314-5.738-.235-9.433 1.494-.157.079-.314 0-.393-.157 0-.157.079-.393.236-.472-.236.079-.55.236-.786.315-.079.078-.236 0-.315 0-.078 0-.078.078-.157.078-.157.079-.314 0-.393-.157 0-.157.079-.393.236-.472.157-.078.393-.157.55-.236 0-.157.079-.393.236-.471 1.415-.708 2.83-1.101 4.088-1.415h-1.022c-.079 0-.157 0-.157.078h-.079c-.079 0-.157 0-.236.079h-.078c-.079 0-.158 0-.236.079h-.079c-.079 0-.157.078-.236.078h-.078c-.079 0-.158.079-.236.079-.079 0-.157.079-.315.079-.078 0-.157.078-.314.078-.079 0-.157.079-.314.079-.079 0-.236.078-.315.078-.236.079-.393.158-.629.236-.078.079-.157.079-.314.157-.079.079-.236.079-.315.158-.157.078-.314 0-.393-.158 0-.157.079-.393.236-.471.079 0 .157-.079.236-.079v-.078c0-.158.079-.394.236-.472 2.201-1.022 4.245-1.494 6.131-1.651 1.258-.157 2.437-.079 3.381 0-2.28-.314-5.896-.393-9.827 1.494-.157.078-.314 0-.393-.158 0-.157.079-.393.236-.471 5.424-2.201 10.062-1.415 12.027-.865Zm.708 4.874c-2.28-.472-6.368-.708-10.848 1.415-.157.078-.315.314-.236.471 0 .079.079.158.157.158l-.078.078c-.158.079-.315.315-.236.472 0 .157.236.236.393.157 3.066-1.493 5.974-1.729 8.175-1.651-2.201-.078-4.952.315-7.939 1.73-.158.078-.315.314-.236.471 0 .158.078.236.236.236 0 .079-.079.157 0 .236 0 .157.235.236.393.157 4.559-2.122 8.647-1.729 10.769-1.257l-.55-2.673Zm.393 2.83.079.786c-2.044-.472-6.289-.943-11.006 1.258-.157.078-.314 0-.393-.158 0-.157.079-.393.236-.471 4.717-2.201 8.804-1.887 11.084-1.415Z" fill="#3B405F"/><path d="M220.814 155.555c-.157-2.516-2.28-4.324-4.795-4.166-2.437.157-4.324 2.279-4.167 4.795.629 9.512 1.651 20.045 3.223 31.837h-81.596a933.762 933.762 0 0 0 3.93-31.68c.236-2.437-1.493-4.716-4.009-4.952-2.437-.236-4.716 1.493-4.952 4.009-2.044 18.709-5.11 41.505-9.669 69.176-3.852 23.583-8.883 50.624-15.172 81.753h9.119c6.21-30.5 11.084-57.148 14.857-80.26 1.73-10.297 3.223-19.966 4.481-29.006h84.112a886.473 886.473 0 0 0 4.795 29.085c4.245 23.19 10.062 49.76 18.002 80.181h9.354c-8.097-31.129-14.071-58.249-18.395-81.832-2.122-11.634-3.851-22.325-5.266-32.23 0-.235-.079-.471-.079-.628-1.808-13.521-2.987-25.47-3.773-36.082Z" fill="#3B405F"/><path d="M413.407 145.1H208.865c-2.358 0-4.323 1.965-4.323 4.323v9.748c0 2.358 1.965 4.323 4.323 4.323h204.542c2.358 0 4.323-1.965 4.323-4.323v-9.748c.079-2.437-1.886-4.323-4.323-4.323Z" fill="#B56B41"/><path d="M413.407 145.1H163.665c-2.358 0-4.323 1.965-4.323 4.323v5.739h258.467v-5.739c0-2.437-1.965-4.323-4.402-4.323Z" fill="#00000F"/><path d="M417.73 141.721H204.542a4.73 4.73 0 0 0-4.717 4.716 4.731 4.731 0 0 0 4.717 4.717H417.73a4.731 4.731 0 0 0 4.717-4.717 4.73 4.73 0 0 0-4.717-4.716Z" fill="#B56B41"/><path d="M222.071 145.1H128.29c-2.358 0-4.323 1.965-4.323 4.323v9.748c0 2.358 1.965 4.323 4.323 4.323h93.86c2.358 0 4.323-1.965 4.323-4.323v-9.748c-.078-2.437-1.965-4.323-4.402-4.323Z" fill="#D58750"/><path d="M220.027 145.1h-89.693c-3.537 0-6.367 1.965-6.367 4.323v5.739h102.506v-5.739c-.078-2.437-2.908-4.323-6.446-4.323Z" fill="#3B405F"/><path d="M226.395 141.721H121.373a4.73 4.73 0 0 0-4.717 4.716 4.731 4.731 0 0 0 4.717 4.717h105.1a4.731 4.731 0 0 0 4.717-4.717c-.079-2.594-2.201-4.716-4.795-4.716Z" fill="#D58750"/><path d="M276.783 141.72s-4.559-5.188-3.459-11.241c1.101-6.053 1.258-17.844-5.188-21.146-6.446-3.38-14.307-2.908-17.765 1.808 0 0-1.809-2.594-3.852-2.515-2.044.078-.315 3.38.157 3.773-21.067-6.525-2.28 24.998-17.137 29.321h47.244Z" fill="#050A25"/><path d="M276.784 141.72s-4.559-5.188-3.459-11.241c.157-.786.315-1.73.393-2.752-6.996 2.516-23.268 7.232-30.736-.314-3.931-3.93-5.817-8.175-6.603-11.87-1.965 6.446 1.965 19.102-3.459 24.29 1.729.472 3.695 1.101 5.896 1.887h37.968Z" fill="#00000F"/><path d="M299.266 141.721c4.245-3.301 1.729-14.385-8.49-11.32-7.311 2.123-19.731 6.446-21.224 6.839-2.123.472-6.761 0-7.94 0-1.179 0-4.245 1.18-4.245 4.56h41.899v-.079Z" fill="#F5AC83"/><path d="M199.747 141.721s-3.066-1.494-2.752-5.346c.315-3.852 4.953-7.625 8.411-8.018 3.459-.393 41.034 8.018 44.572 8.49 3.537.472 11.398 0 13.442 0 1.965 0 7.075 1.258 7.075 4.795h-70.748v.079Z" fill="#F5AC83"/></g><g clip-path="url(#c)"><path fill-rule="evenodd" clip-rule="evenodd" d="m166.259 101.395 12.106 32.072 27.277-18.63 7.704-29.4-3.774-6.603-30.736 2.909-9.747 7.782-2.83 11.87Z" fill="url(#d)"/><path d="M172.469 95.814a4.087 4.087 0 1 0 0-8.175 4.087 4.087 0 0 0 0 8.175Z" fill="#fff"/><path fill-rule="evenodd" clip-rule="evenodd" d="m134.344 107.291 23.268-26.49c.157-.158.393-.158.629-.08l1.336 1.258c.157.157.157.393.079.63l-23.268 26.412c-.158.157-.394.157-.629.078l-1.415-1.179c-.079-.235-.158-.471 0-.629Zm23.661-25.626-22.718 25.862.786.629 22.64-25.862-.708-.63Z" fill="#101537"/><path d="M158.304 84.714a2.358 2.358 0 1 0-.594-4.68 2.358 2.358 0 0 0 .594 4.68Z" fill="#00000F"/><path fill-rule="evenodd" clip-rule="evenodd" d="m134.343 107.369 16.351 31.208c.079.236.393.315.55.157l1.651-.864c.236-.079.315-.393.157-.551l-16.35-31.129c-.079-.236-.393-.314-.551-.157l-1.65.865c-.158 0-.236.314-.158.471Zm16.901 30.501-15.957-30.501.864-.471 15.958 30.5-.865.472Z" fill="#101537"/><path d="M153.646 138.02a2.358 2.358 0 1 0-4.407-1.681 2.358 2.358 0 0 0 4.407 1.681ZM136.289 109.786a2.358 2.358 0 1 0-.594-4.678 2.358 2.358 0 0 0 .594 4.678Z" fill="#00000F"/><path fill-rule="evenodd" clip-rule="evenodd" d="M150.065 145.887h30.107c2.359 0 4.324-1.965 4.324-4.323 0-2.359-1.965-4.324-4.324-4.324h-30.107c-2.358 0-4.323 1.965-4.323 4.324-.079 2.358 1.886 4.323 4.323 4.323Z" fill="#B32720"/><path fill-rule="evenodd" clip-rule="evenodd" d="M130.02 145.887h30.107a4.311 4.311 0 0 0 4.324-4.323c0-2.359-1.966-4.324-4.324-4.324H130.02c-2.358 0-4.324 1.965-4.324 4.324 0 2.358 1.966 4.323 4.324 4.323ZM178.758 82.135l-12.499 19.259c-.157.236-.315.314-.551.314-.235 0-.393-.157-.471-.393l-7.232-18.394c-.079-.157-.079-.315.078-.55.079-.158.315-.236.472-.315l19.652-.865c.236 0 .472.079.551.315.078.236.078.472 0 .629Z" fill="#D64C47"/><path fill-rule="evenodd" clip-rule="evenodd" d="m164.843 100.372-1.022-2.673 10.613-16.272 2.829-.158-12.42 19.103Z" fill="#fff"/><path fill-rule="evenodd" clip-rule="evenodd" d="m160.048 80.012 5.11 3.302a3.051 3.051 0 0 1 .864 4.245 3.051 3.051 0 0 1-4.244.865l-5.11-3.302a3.052 3.052 0 0 1-.865-4.245c.865-1.336 2.83-1.73 4.245-.865Z" fill="#D64C47"/><path d="M157.896 83.442a.944.944 0 1 0-1.584-1.026.944.944 0 0 0 1.584 1.026Z" fill="#00000F"/><path fill-rule="evenodd" clip-rule="evenodd" d="M187.798 102.496a.872.872 0 0 0-.865-.865.872.872 0 0 0-.865.865v1.965h-1.965a.872.872 0 0 0-.865.864c0 .472.393.865.865.865h1.965v1.965c0 .472.393.865.865.865a.872.872 0 0 0 .865-.865v-1.965h1.965a.872.872 0 0 0 .865-.865.872.872 0 0 0-.865-.864h-1.965v-1.965ZM175.927 98.8a.872.872 0 0 0-.864-.864.872.872 0 0 0-.865.864v1.965h-1.965a.873.873 0 0 0-.865.865c0 .472.393.865.865.865h1.965v1.965c0 .472.393.865.865.865a.872.872 0 0 0 .864-.865v-1.965h1.966a.872.872 0 0 0 .864-.865.873.873 0 0 0-.864-.865h-1.966V98.8ZM204.227 85.437a.872.872 0 0 0-.864-.865.872.872 0 0 0-.865.865v2.044h-1.965a.872.872 0 0 0-.865.865c0 .471.393.864.865.864h1.965v1.965c0 .472.393.865.865.865a.872.872 0 0 0 .864-.865V89.21h1.966a.872.872 0 0 0 .864-.864.872.872 0 0 0-.864-.865h-1.966v-2.044ZM188.19 89.131c0-.236-.157-.393-.393-.393-.236 0-.393.157-.393.393v.865h-.864c-.236 0-.394.157-.394.393 0 .236.158.393.394.393h.864v.865c0 .236.157.393.393.393.236 0 .393-.157.393-.393v-.865h.865c.236 0 .393-.157.393-.393 0-.236-.157-.393-.393-.393h-.865v-.865ZM179.544 108.862c0-.236-.157-.393-.393-.393-.236 0-.393.157-.393.393v.864h-.865c-.236 0-.393.158-.393.394 0 .235.157.393.393.393h.865v.864c0 .236.157.393.393.393.236 0 .393-.157.393-.393v-.864h.865c.235 0 .393-.158.393-.393 0-.236-.158-.394-.393-.394h-.865v-.864ZM197.388 99.272c0-.236-.158-.393-.393-.393-.236 0-.394.157-.394.393v.865h-.864c-.236 0-.393.157-.393.393 0 .236.157.393.393.393h.864v.864c0 .236.158.393.394.393.235 0 .393-.157.393-.393v-.864h.864c.236 0 .393-.157.393-.393 0-.236-.157-.393-.393-.393h-.864v-.865ZM178.993 91.254c0-.236-.157-.393-.393-.393-.236 0-.393.157-.393.393v.865h-.865c-.236 0-.393.157-.393.393 0 .236.157.393.393.393h.865v.865c0 .236.157.393.393.393.236 0 .393-.157.393-.393v-.865h.865c.236 0 .393-.157.393-.393 0-.236-.157-.393-.393-.393h-.865v-.865ZM195.659 82.372c0-.236-.158-.394-.393-.394-.236 0-.394.158-.394.394v.864h-.786c-.235 0-.393.157-.393.393 0 .236.158.393.393.393h.865v.865c0 .236.157.393.393.393.236 0 .393-.157.393-.393v-.943h.865c.236 0 .393-.157.393-.393 0-.236-.157-.393-.393-.393h-.943v-.786ZM211.066 101.551c0-.236-.157-.393-.393-.393-.236 0-.393.157-.393.393v.865h-.864c-.236 0-.394.157-.394.393 0 .236.158.393.394.393h.864v.865c0 .236.157.393.393.393.236 0 .393-.157.393-.393v-.865h.865c.236 0 .393-.157.393-.393 0-.236-.157-.393-.393-.393h-.865v-.865ZM190.234 123.17c0-.235-.157-.393-.393-.393-.236 0-.393.158-.393.393v.865h-.865c-.235 0-.393.157-.393.393 0 .236.158.393.393.393h.865v.865c0 .236.157.393.393.393.236 0 .393-.157.393-.393v-.865h.865c.236 0 .393-.157.393-.393 0-.236-.157-.393-.393-.393h-.865v-.865ZM205.641 113.973c0-.236-.157-.393-.393-.393-.235 0-.393.157-.393.393v.865h-.864c-.236 0-.393.157-.393.393 0 .236.157.393.393.393h.864v.865c0 .235.158.393.393.393.236 0 .393-.158.393-.393v-.865h.865c.236 0 .393-.157.393-.393 0-.236-.157-.393-.393-.393h-.865v-.865Z" fill="#fff"/></g><path fill-rule="evenodd" clip-rule="evenodd" d="M428.185 306.172h-83.169a3.07 3.07 0 0 1-3.066-3.066v-85.212a3.07 3.07 0 0 1 3.066-3.066h83.169a3.07 3.07 0 0 1 3.065 3.066v85.212a3.07 3.07 0 0 1-3.065 3.066Z" fill="#fff"/><path fill-rule="evenodd" clip-rule="evenodd" d="M445.4 306.172h-30.108a3.07 3.07 0 0 1-3.065-3.066v-85.212c0-1.651 1.336-3.066 3.065-3.066H445.4a3.07 3.07 0 0 1 3.065 3.066v85.212a3.07 3.07 0 0 1-3.065 3.066Z" fill="#B5B6D3"/><path fill-rule="evenodd" clip-rule="evenodd" d="M441.155 222.297h-21.617c-.944 0-1.651.707-1.651 1.651v1.493c0 .944.786 1.651 1.651 1.651h21.617c.943 0 1.651-.786 1.651-1.651v-1.493c0-.944-.786-1.651-1.651-1.651Z" fill="#151D3D"/><path fill-rule="evenodd" clip-rule="evenodd" d="M440.683 223.948c0-.944-.786-1.651-1.651-1.651h2.123c.943 0 1.65.707 1.65 1.651v1.493c0 .944-.707 1.651-1.65 1.651h-2.123c.079 0 1.651-.786 1.651-1.651v-1.493Z" fill="#33385C"/><path fill-rule="evenodd" clip-rule="evenodd" d="M441.155 229.686h-21.617c-.944 0-1.651.786-1.651 1.65v1.494c0 .943.786 1.651 1.651 1.651h21.617c.943 0 1.651-.708 1.651-1.651v-1.494c0-.864-.786-1.65-1.651-1.65Z" fill="#151D3D"/><path fill-rule="evenodd" clip-rule="evenodd" d="M440.683 231.336c0-.943-.786-1.65-1.651-1.65h2.123c.943 0 1.65.786 1.65 1.65v1.494c0 .943-.707 1.651-1.65 1.651h-2.123c.079 0 1.651-.708 1.651-1.651v-1.494Z" fill="#33385C"/><path fill-rule="evenodd" clip-rule="evenodd" d="M441.155 237.152h-21.617c-.944 0-1.651.708-1.651 1.651v1.494c0 .943.786 1.651 1.651 1.651h21.617c.943 0 1.651-.787 1.651-1.651v-1.494c0-.943-.786-1.651-1.651-1.651Z" fill="#151D3D"/><path fill-rule="evenodd" clip-rule="evenodd" d="M440.683 238.803c0-.943-.786-1.651-1.651-1.651h2.123c.943 0 1.65.708 1.65 1.651v1.494c0 .943-.707 1.651-1.65 1.651h-2.123c.079 0 1.651-.787 1.651-1.651v-1.494Z" fill="#33385C"/><path fill-rule="evenodd" clip-rule="evenodd" d="M441.155 244.543h-21.617c-.944 0-1.651.786-1.651 1.651v1.493c0 .944.786 1.651 1.651 1.651h21.617c.943 0 1.651-.707 1.651-1.651v-1.493c0-.944-.786-1.651-1.651-1.651Z" fill="#151D3D"/><path fill-rule="evenodd" clip-rule="evenodd" d="M440.683 246.194c0-.944-.786-1.651-1.651-1.651h2.123c.943 0 1.65.786 1.65 1.651v1.493c0 .944-.707 1.651-1.65 1.651h-2.123c.079 0 1.651-.707 1.651-1.651v-1.493Z" fill="#33385C"/><path fill-rule="evenodd" clip-rule="evenodd" d="M436.596 266.711h-12.578c-3.694 0-6.76 3.066-6.76 6.76v12.735c0 3.695 3.066 6.76 6.76 6.76h12.578c3.694 0 6.76-3.065 6.76-6.76v-12.735c0-3.694-2.987-6.76-6.76-6.76Z" fill="#151D3D"/><path fill-rule="evenodd" clip-rule="evenodd" d="M440.84 273.471c0-3.694-3.065-6.76-6.76-6.76h2.516c3.694 0 6.76 3.066 6.76 6.76v12.735c0 3.695-3.066 6.76-6.76 6.76h-2.516c3.695 0 6.76-3.065 6.76-6.76v-12.735Z" fill="#33385C"/><path fill-rule="evenodd" clip-rule="evenodd" d="M431.093 266.711h-1.494v7.625c-2.436.314-4.402 2.28-4.716 4.717h-7.625v1.493h7.625c.314 2.437 2.28 4.402 4.716 4.717v7.625h1.494v-7.625c2.437-.315 4.402-2.28 4.717-4.717h7.625v-1.493h-7.625c-.315-2.437-2.28-4.403-4.717-4.717v-7.625Zm-.707 17.215c-2.202 0-4.088-1.808-4.088-4.087a4.06 4.06 0 0 1 4.088-4.088c2.201 0 4.087 1.808 4.087 4.088-.078 2.279-1.886 4.087-4.087 4.087Z" fill="#484E78"/><path fill-rule="evenodd" clip-rule="evenodd" d="M427.083 259.635h-8.096c-.944 0-1.651.786-1.651 1.651v1.493c0 .943.786 1.651 1.651 1.651h8.096c.944 0 1.651-.708 1.651-1.651v-1.493c0-.865-.786-1.651-1.651-1.651Z" fill="#151D3D"/><path fill-rule="evenodd" clip-rule="evenodd" d="M426.534 261.286c0-.944-.786-1.651-1.651-1.651h2.122c.944 0 1.651.786 1.651 1.651v1.493c0 .943-.786 1.651-1.651 1.651h-2.122c.078 0 1.651-.708 1.651-1.651v-1.493Z" fill="#33385C"/><path fill-rule="evenodd" clip-rule="evenodd" d="M427.083 252.482h-8.096c-.944 0-1.651.787-1.651 1.651v1.494c0 .943.786 1.651 1.651 1.651h8.096c.944 0 1.651-.708 1.651-1.651v-1.494c0-.943-.786-1.651-1.651-1.651Z" fill="#151D3D"/><path fill-rule="evenodd" clip-rule="evenodd" d="M426.534 254.133c0-.943-.786-1.651-1.651-1.651h2.122c.944 0 1.651.787 1.651 1.651v1.494c0 .943-.786 1.651-1.651 1.651h-2.122c.078 0 1.651-.708 1.651-1.651v-1.494Z" fill="#33385C"/><path fill-rule="evenodd" clip-rule="evenodd" d="M380.626 224.184h-20.203c-5.974 0-10.848 4.873-10.848 10.848v20.438c0 5.974 4.874 10.848 10.848 10.848h20.203c5.974 0 10.848-4.874 10.848-10.848v-20.438c.079-5.975-4.874-10.848-10.848-10.848Z" fill="#B5B6D3"/><path fill-rule="evenodd" clip-rule="evenodd" d="M379.997 225.598h-18.788c-5.581 0-10.141 4.559-10.141 10.14v19.024c0 5.581 4.56 10.14 10.141 10.14h18.788c5.581 0 10.14-4.559 10.14-10.14v-19.024c0-5.581-4.559-10.14-10.14-10.14Z" fill="#DCDCEE"/><path fill-rule="evenodd" clip-rule="evenodd" d="M354.292 262.152c1.808 1.65 4.245 2.751 6.918 2.751h18.787c5.581 0 10.141-4.559 10.141-10.141v-15.093h-8.726v-10.69h-20.753v22.639h-6.367v10.534Z" fill="#CDCDE2"/><path fill-rule="evenodd" clip-rule="evenodd" d="M400.042 273.863h-1.258c.157.393.551.629 1.022.629.393 0 .786-.236 1.022-.629h-.786Zm-2.201 0h-2.044c.157.393.55.629 1.022.629s.865-.314 1.022-.629Zm-2.909 0h-2.043c.157.393.55.629 1.021.629.472 0 .787-.314 1.022-.629Zm-2.987 0h-2.044c.158.393.551.629 1.022.629.472 0 .865-.314 1.022-.629Zm-2.908 0h-1.258c-.236 0-.55 0-.786.079.157.393.55.629 1.022.629.471-.079.786-.393 1.022-.708Zm-3.145.236c-.314.079-.629.236-.943.393h.079c.314 0 .629-.157.864-.393Zm-2.751 1.651a6.281 6.281 0 0 0-1.179 1.651h.157c.629 0 1.101-.472 1.101-1.101 0-.157 0-.393-.079-.55Zm-1.572 2.515c-.157.551-.315 1.101-.315 1.651.236.236.551.472.865.472.629 0 1.101-.472 1.101-1.101s-.472-1.1-1.101-1.1c-.236-.079-.393 0-.55.078Zm-.393 3.223v1.337c.236.314.55.471.943.471.629 0 1.101-.471 1.101-1.1 0-.629-.472-1.101-1.101-1.101-.393 0-.707.158-.943.393Zm0 2.988v1.336c.236.314.55.472.943.472.629 0 1.101-.472 1.101-1.101s-.472-1.101-1.101-1.101c-.393-.078-.707.079-.943.394Zm0 2.908v1.336c.236.315.55.472.943.472.629 0 1.101-.472 1.101-1.1 0-.629-.472-1.101-1.101-1.101a1.3 1.3 0 0 0-.943.393Zm0 2.987v1.337c.236.314.55.471.943.471.629 0 1.101-.471 1.101-1.1 0-.629-.472-1.101-1.101-1.101-.393-.078-.707.079-.943.393Zm0 2.909c.078.55.157 1.179.314 1.651.157.078.315.157.55.157.629 0 1.101-.472 1.101-1.101s-.472-1.1-1.101-1.1c-.314 0-.628.157-.864.393Zm.786 2.515a6.281 6.281 0 0 0 1.179 1.651c.079-.157.157-.314.157-.472 0-.628-.471-1.1-1.1-1.1-.158-.079-.236-.079-.236-.079Zm2.987 2.987c.314.158.629.236.943.315-.235-.236-.471-.393-.786-.393-.078 0-.078.078-.157.078Zm2.044.551c.236 0 .472.078.786.078h1.258c-.158-.393-.551-.629-1.022-.629-.472-.078-.786.236-1.022.551Zm2.908.078h2.044c-.157-.393-.55-.629-1.022-.629-.393-.078-.786.236-1.022.629Zm2.988 0h2.043c-.157-.393-.55-.629-1.022-.629-.471-.078-.864.236-1.021.629Zm2.908 0h2.044c-.157-.393-.55-.629-1.022-.629-.393-.078-.786.236-1.022.629Zm2.987 0h1.258c.236 0 .55 0 .786-.078a1.185 1.185 0 0 0-1.022-.629 1.12 1.12 0 0 0-1.022.707Zm3.145-.314c.314-.079.628-.236.943-.315h-.079c-.393-.078-.707.079-.864.315Zm2.751-1.651a6.281 6.281 0 0 0 1.179-1.651h-.157c-.629 0-1.101.472-1.101 1.101-.078.236 0 .393.079.55Zm1.572-2.515c.157-.551.315-1.101.315-1.651-.236-.236-.551-.472-.865-.472-.629 0-1.101.472-1.101 1.101s.472 1.1 1.101 1.1a.483.483 0 0 0 .55-.078Zm.315-3.223v-1.337a1.123 1.123 0 0 0-.944-.471c-.629 0-1.1.471-1.1 1.1 0 .629.471 1.101 1.1 1.101a.917.917 0 0 0 .944-.393Zm0-2.988v-1.336a1.123 1.123 0 0 0-.944-.472c-.629 0-1.1.472-1.1 1.101s.471 1.1 1.1 1.1c.472.079.786-.078.944-.393Zm0-2.908v-1.336a1.121 1.121 0 0 0-.944-.472c-.629 0-1.1.472-1.1 1.1 0 .629.471 1.101 1.1 1.101a.913.913 0 0 0 .944-.393Zm0-2.987v-1.337a1.123 1.123 0 0 0-.944-.471c-.629 0-1.1.471-1.1 1.1 0 .629.471 1.101 1.1 1.101.472.078.786-.079.944-.393Zm0-2.909c-.079-.55-.158-1.179-.315-1.651-.157-.078-.314-.157-.55-.157-.629 0-1.101.472-1.101 1.101s.472 1.1 1.101 1.1a.79.79 0 0 0 .865-.393Zm-.708-2.515a6.281 6.281 0 0 0-1.179-1.651c-.079.157-.157.314-.157.472 0 .628.471 1.1 1.1 1.1.157.079.157.079.236.079Zm-3.066-2.909c-.314-.157-.629-.236-.943-.393.236.236.472.393.786.393h.157Zm-17.765 23.583a1.075 1.075 0 0 1-1.101-1.101c0-.628.472-1.1 1.101-1.1s1.1.472 1.1 1.1c.079.551-.471 1.101-1.1 1.101Zm2.987 0a1.075 1.075 0 0 1-1.101-1.101c0-.628.472-1.1 1.101-1.1s1.1.472 1.1 1.1c0 .551-.471 1.101-1.1 1.101Zm2.908 0c-.629 0-1.1-.472-1.1-1.101 0-.628.471-1.1 1.1-1.1.629 0 1.101.472 1.101 1.1.078.551-.472 1.101-1.101 1.101Zm2.987 0c-.628 0-1.1-.472-1.1-1.101 0-.628.472-1.1 1.1-1.1.629 0 1.101.472 1.101 1.1 0 .551-.472 1.101-1.101 1.101Zm2.909 0a1.075 1.075 0 0 1-1.101-1.101c0-.628.472-1.1 1.101-1.1s1.101.472 1.101 1.1c.078.551-.472 1.101-1.101 1.101Zm2.987 0c-.629 0-1.1-.472-1.1-1.101 0-.628.471-1.1 1.1-1.1.629 0 1.101.472 1.101 1.1 0 .551-.472 1.101-1.101 1.101Zm2.909 0a1.075 1.075 0 0 1-1.101-1.101c0-.628.472-1.1 1.101-1.1s1.1.472 1.1 1.1c.079.551-.471 1.101-1.1 1.101Zm-17.687-5.188c-.629 0-1.101.471-1.101 1.1 0 .629.472 1.101 1.101 1.101s1.1-.472 1.1-1.101c.079-.629-.471-1.1-1.1-1.1Zm2.987 0c-.629 0-1.101.471-1.101 1.1 0 .629.472 1.101 1.101 1.101s1.1-.472 1.1-1.101-.471-1.1-1.1-1.1Zm2.908 0c-.629 0-1.1.471-1.1 1.1 0 .629.471 1.101 1.1 1.101.629 0 1.101-.472 1.101-1.101.078-.629-.472-1.1-1.101-1.1Zm2.987 0c-.628 0-1.1.471-1.1 1.1 0 .629.472 1.101 1.1 1.101.629 0 1.101-.472 1.101-1.101s-.472-1.1-1.101-1.1Zm2.909 0c-.629 0-1.101.471-1.101 1.1 0 .629.472 1.101 1.101 1.101s1.101-.472 1.101-1.101c.078-.629-.472-1.1-1.101-1.1Zm2.987 0c-.629 0-1.1.471-1.1 1.1 0 .629.471 1.101 1.1 1.101.629 0 1.101-.472 1.101-1.101s-.472-1.1-1.101-1.1Zm2.909 0c-.629 0-1.101.471-1.101 1.1 0 .629.472 1.101 1.101 1.101s1.1-.472 1.1-1.101c.079-.629-.471-1.1-1.1-1.1Zm-17.687-.708a1.074 1.074 0 0 1-1.101-1.1c0-.629.472-1.101 1.101-1.101s1.1.472 1.1 1.101c.079.55-.471 1.1-1.1 1.1Zm2.987 0a1.074 1.074 0 0 1-1.101-1.1c0-.629.472-1.101 1.101-1.101s1.1.472 1.1 1.101c0 .55-.471 1.1-1.1 1.1Zm2.908 0c-.629 0-1.1-.471-1.1-1.1 0-.629.471-1.101 1.1-1.101.629 0 1.101.472 1.101 1.101.078.55-.472 1.1-1.101 1.1Zm2.987 0c-.628 0-1.1-.471-1.1-1.1 0-.629.472-1.101 1.1-1.101.629 0 1.101.472 1.101 1.101 0 .55-.472 1.1-1.101 1.1Zm2.909 0a1.074 1.074 0 0 1-1.101-1.1c0-.629.472-1.101 1.101-1.101s1.101.472 1.101 1.101c.078.55-.472 1.1-1.101 1.1Zm2.987 0c-.629 0-1.1-.471-1.1-1.1 0-.629.471-1.101 1.1-1.101.629 0 1.101.472 1.101 1.101 0 .55-.472 1.1-1.101 1.1Zm2.909 0a1.074 1.074 0 0 1-1.101-1.1c0-.629.472-1.101 1.101-1.101s1.1.472 1.1 1.101c.079.55-.471 1.1-1.1 1.1Zm-17.687-5.188c-.629 0-1.101.472-1.101 1.101 0 .628.472 1.1 1.101 1.1s1.1-.472 1.1-1.1c.079-.629-.471-1.101-1.1-1.101Zm2.987 0c-.629 0-1.101.472-1.101 1.101 0 .628.472 1.1 1.101 1.1s1.1-.472 1.1-1.1c0-.629-.471-1.101-1.1-1.101Zm2.908 0c-.629 0-1.1.472-1.1 1.101 0 .628.471 1.1 1.1 1.1.629 0 1.101-.472 1.101-1.1.078-.629-.472-1.101-1.101-1.101Zm2.987 0c-.628 0-1.1.472-1.1 1.101 0 .628.472 1.1 1.1 1.1.629 0 1.101-.472 1.101-1.1 0-.629-.472-1.101-1.101-1.101Zm2.909 0c-.629 0-1.101.472-1.101 1.101 0 .628.472 1.1 1.101 1.1s1.101-.472 1.101-1.1c.078-.629-.472-1.101-1.101-1.101Zm2.987 0c-.629 0-1.1.472-1.1 1.101 0 .628.471 1.1 1.1 1.1.629 0 1.101-.472 1.101-1.1 0-.629-.472-1.101-1.101-1.101Zm2.909 0c-.629 0-1.101.472-1.101 1.101 0 .628.472 1.1 1.101 1.1s1.1-.472 1.1-1.1c.079-.629-.471-1.101-1.1-1.101Zm-17.687-.707a1.075 1.075 0 0 1-1.101-1.101c0-.629.472-1.101 1.101-1.101s1.1.472 1.1 1.101c.079.55-.471 1.101-1.1 1.101Zm2.987 0a1.075 1.075 0 0 1-1.101-1.101c0-.629.472-1.101 1.101-1.101s1.1.472 1.1 1.101c0 .55-.471 1.101-1.1 1.101Zm2.908 0c-.629 0-1.1-.472-1.1-1.101s.471-1.101 1.1-1.101c.629 0 1.101.472 1.101 1.101.078.55-.472 1.101-1.101 1.101Zm2.987 0c-.628 0-1.1-.472-1.1-1.101s.472-1.101 1.1-1.101c.629 0 1.101.472 1.101 1.101 0 .55-.472 1.101-1.101 1.101Zm2.909 0a1.075 1.075 0 0 1-1.101-1.101c0-.629.472-1.101 1.101-1.101s1.101.472 1.101 1.101c.078.55-.472 1.101-1.101 1.101Zm2.987 0c-.629 0-1.1-.472-1.1-1.101s.471-1.101 1.1-1.101c.629 0 1.101.472 1.101 1.101 0 .55-.472 1.101-1.101 1.101Zm2.909 0a1.075 1.075 0 0 1-1.101-1.101c0-.629.472-1.101 1.101-1.101s1.1.472 1.1 1.101c.079.55-.471 1.101-1.1 1.101Zm-17.687-5.189c-.629 0-1.101.472-1.101 1.101s.472 1.1 1.101 1.1 1.1-.471 1.1-1.1c.079-.629-.471-1.101-1.1-1.101Zm2.987 0c-.629 0-1.101.472-1.101 1.101s.472 1.1 1.101 1.1 1.1-.471 1.1-1.1c0-.629-.471-1.101-1.1-1.101Zm2.908 0c-.629 0-1.1.472-1.1 1.101s.471 1.1 1.1 1.1c.629 0 1.101-.471 1.101-1.1.078-.629-.472-1.101-1.101-1.101Zm2.987 0c-.628 0-1.1.472-1.1 1.101s.472 1.1 1.1 1.1c.629 0 1.101-.471 1.101-1.1 0-.629-.472-1.101-1.101-1.101Zm2.909 0c-.629 0-1.101.472-1.101 1.101s.472 1.1 1.101 1.1 1.101-.471 1.101-1.1c.078-.629-.472-1.101-1.101-1.101Zm2.987 0c-.629 0-1.1.472-1.1 1.101s.471 1.1 1.1 1.1c.629 0 1.101-.471 1.101-1.1 0-.629-.472-1.101-1.101-1.101Zm2.909 0c-.629 0-1.101.472-1.101 1.101s.472 1.1 1.101 1.1 1.1-.471 1.1-1.1c.079-.629-.471-1.101-1.1-1.101Zm-17.687-.707a1.075 1.075 0 0 1-1.101-1.101c0-.629.472-1.1 1.101-1.1s1.1.471 1.1 1.1c.079.551-.471 1.101-1.1 1.101Zm2.987 0a1.075 1.075 0 0 1-1.101-1.101c0-.629.472-1.1 1.101-1.1s1.1.471 1.1 1.1c0 .551-.471 1.101-1.1 1.101Zm2.908 0c-.629 0-1.1-.472-1.1-1.101s.471-1.1 1.1-1.1c.629 0 1.101.471 1.101 1.1.078.551-.472 1.101-1.101 1.101Zm2.987 0c-.628 0-1.1-.472-1.1-1.101s.472-1.1 1.1-1.1c.629 0 1.101.471 1.101 1.1 0 .551-.472 1.101-1.101 1.101Zm2.909 0a1.075 1.075 0 0 1-1.101-1.101c0-.629.472-1.1 1.101-1.1s1.101.471 1.101 1.1c.078.551-.472 1.101-1.101 1.101Zm2.987 0c-.629 0-1.1-.472-1.1-1.101s.471-1.1 1.1-1.1c.629 0 1.101.471 1.101 1.1 0 .551-.472 1.101-1.101 1.101Zm2.909 0a1.075 1.075 0 0 1-1.101-1.101c0-.629.472-1.1 1.101-1.1s1.1.471 1.1 1.1c.079.551-.471 1.101-1.1 1.101Zm-17.687-5.188c-.629 0-1.101.471-1.101 1.1 0 .629.472 1.101 1.101 1.101s1.1-.472 1.1-1.101c.079-.629-.471-1.1-1.1-1.1Zm2.987 0c-.629 0-1.101.471-1.101 1.1 0 .629.472 1.101 1.101 1.101s1.1-.472 1.1-1.101-.471-1.1-1.1-1.1Zm2.908 0c-.629 0-1.1.471-1.1 1.1 0 .629.471 1.101 1.1 1.101.629 0 1.101-.472 1.101-1.101.078-.629-.472-1.1-1.101-1.1Zm2.987 0c-.628 0-1.1.471-1.1 1.1 0 .629.472 1.101 1.1 1.101.629 0 1.101-.472 1.101-1.101s-.472-1.1-1.101-1.1Zm2.909 0c-.629 0-1.101.471-1.101 1.1 0 .629.472 1.101 1.101 1.101s1.101-.472 1.101-1.101c.078-.629-.472-1.1-1.101-1.1Zm2.987 0c-.629 0-1.1.471-1.1 1.1 0 .629.471 1.101 1.1 1.101.629 0 1.101-.472 1.101-1.101s-.472-1.1-1.101-1.1Zm2.909 0c-.629 0-1.101.471-1.101 1.1 0 .629.472 1.101 1.101 1.101s1.1-.472 1.1-1.101c.079-.629-.471-1.1-1.1-1.1ZM374.494 297.76h-27.12a.787.787 0 0 0-.786.786c0 .472.393.786.786.786h27.12a.787.787 0 0 0 .786-.786c.079-.393-.314-.786-.786-.786ZM374.494 294.301h-27.12a.787.787 0 0 0-.786.786c0 .471.393.786.786.786h27.12a.787.787 0 0 0 .786-.786c.079-.393-.314-.786-.786-.786ZM374.494 290.922h-27.12a.787.787 0 0 0-.786.786c0 .472.393.786.786.786h27.12a.787.787 0 0 0 .786-.786c.079-.393-.314-.786-.786-.786ZM374.494 287.541h-22.56a.788.788 0 0 0-.787.786c0 .472.394.786.787.786h22.56a.788.788 0 0 0 .787-.786c.078-.472-.315-.786-.787-.786ZM374.494 284.082h-27.12a.787.787 0 0 0-.786.786c0 .472.393.786.786.786h27.12a.787.787 0 0 0 .786-.786c.079-.393-.314-.786-.786-.786ZM374.494 280.703h-27.12a.787.787 0 0 0-.786.786c0 .472.393.786.786.786h27.12a.787.787 0 0 0 .786-.786c.079-.471-.314-.786-.786-.786ZM369.463 277.244h-22.089a.787.787 0 0 0-.786.786c0 .472.393.786.786.786h22.089a.787.787 0 0 0 .786-.786c.079-.393-.314-.786-.786-.786ZM374.494 273.863h-27.12a.787.787 0 0 0-.786.786c0 .472.393.786.786.786h27.12a.787.787 0 0 0 .786-.786c.079-.471-.314-.786-.786-.786ZM348.553 287.541h-1.179a.787.787 0 0 0-.786.786c0 .472.393.786.786.786h1.179a.787.787 0 0 0 .786-.786c.079-.472-.314-.786-.786-.786ZM374.495 277.244h-1.966a.788.788 0 0 0-.786.786c0 .472.393.786.786.786h1.966a.788.788 0 0 0 .786-.786c.078-.393-.315-.786-.786-.786Z" fill="#B5B6D3"/><path fill-rule="evenodd" clip-rule="evenodd" d="M364.746 225.598h-3.537c-2.987 0-5.739 1.336-7.547 3.38l33.252 33.252c2.044-1.887 3.302-4.481 3.302-7.468v-3.774l-25.47-25.39Zm-12.97 6.288 32.151 32.152c-1.179.55-2.515.786-3.93.786h-1.101l-27.828-27.828v-1.258c0-1.336.236-2.672.708-3.852Z" fill="#EDEDF6"/><g clip-path="url(#e)" fill-rule="evenodd" clip-rule="evenodd"><path d="M98.34 210.426c11.556-6.132 14.464 7.232 9.984 18.237-4.481 11.006-27.435 48.109-28.693 62.809-.472 5.738-1.493 5.11-2.437 1.101-4.48-19.967 5.346-73.736 21.146-82.147Z" fill="#294D3C"/><path d="M73.971 159.881c-13.206-11.87-21.46 4.717-19.18 20.832 2.28 16.036 20.438 72.634 17.136 92.523-1.257 7.703.315 7.232 2.83 2.201 12.656-24.841 17.373-99.127-.786-115.556Z" fill="#4A9075"/><path d="M71.691 278.737c.315.708.944.393 1.73-.864 13.756-45.83-7.625-114.377-7.704-114.534-.079-.393-.55-.55-.865-.472-.393.079-.628.472-.55.865.079.236 21.853 69.648 7.39 115.005Z" fill="#1B7154"/><path d="M45.122 198.006c-12.814-5.581-14.779 8.883-9.12 20.282 5.66 11.398 33.331 49.052 35.768 64.616.943 6.053 2.044 5.267 2.673.944 3.301-21.618-11.713-78.217-29.321-85.842Z" fill="#A6C86B"/><path d="M73.028 287.07c.393.472.786.079 1.1-1.1-1.179-37.497-34.195-83.248-34.352-83.405-.157-.236-.55-.314-.786-.157s-.314.55-.157.786 33.645 46.537 34.195 83.876Z" fill="#5F9850"/><path d="M63.123 279.682h24.605l6.446 5.817-5.267 20.202H62.023l-5.267-20.202 6.367-5.817Z" fill="#3B405F"/><path d="M56.756 271.27h37.418c1.1 0 2.044.943 2.044 2.043v9.276c0 1.101-.944 2.044-2.044 2.044H56.756c-1.1 0-2.044-.943-2.044-2.044v-9.276c0-1.179.943-2.043 2.044-2.043Z" fill="#3B405F"/><path d="m94.174 285.498-1.1 4.166H57.855l-1.1-4.166h37.418Z" fill="#101537"/></g><path d="M248.343 56.411v3.757h-14.332l-.209-2.95 7.98-15.444h3.579l-3.66 6.867-3.482 7.77h10.124Zm-1.999-14.637v23.472h-4.53V41.774h4.53ZM264.641 51.446v4.079c0 1.762-.166 3.278-.499 4.546-.334 1.268-.801 2.31-1.403 3.127-.602.806-1.317 1.403-2.144 1.79-.828.387-1.741.58-2.741.58a6.665 6.665 0 0 1-2.24-.37 5.726 5.726 0 0 1-1.903-1.129c-.559-.516-1.042-1.166-1.451-1.95-.397-.796-.704-1.736-.919-2.822-.214-1.096-.322-2.353-.322-3.772v-4.079c0-1.762.167-3.272.5-4.53.344-1.268.817-2.305 1.418-3.111.602-.806 1.317-1.397 2.145-1.773.838-.387 1.757-.58 2.756-.58.785 0 1.526.123 2.225.37a5.16 5.16 0 0 1 1.886 1.112c.559.505 1.037 1.156 1.435 1.951.408.785.72 1.725.935 2.821.215 1.086.322 2.332.322 3.74Zm-4.53 4.708v-5.369c0-.827-.037-1.553-.113-2.176a9.767 9.767 0 0 0-.274-1.58c-.118-.43-.274-.78-.467-1.048-.194-.269-.409-.462-.645-.58a1.623 1.623 0 0 0-.79-.194c-.344 0-.655.097-.935.29-.279.194-.521.511-.725.952-.205.43-.36 1.005-.468 1.725-.097.709-.145 1.58-.145 2.611v5.369c0 .827.032 1.558.097 2.192.075.634.177 1.177.306 1.628.14.44.296.796.468 1.064.182.269.392.468.628.597.247.118.516.177.806.177.344 0 .656-.097.935-.29.291-.204.532-.527.726-.967.193-.441.338-1.021.435-1.742.108-.73.161-1.617.161-2.66ZM281.746 56.411v3.757h-14.332l-.209-2.95 7.979-15.444h3.579l-3.659 6.867-3.482 7.77h10.124Zm-1.999-14.637v23.472h-4.53V41.774h4.53Z" fill="#fff"/></g><defs><clipPath id="a"><path fill="#fff" d="M0 0h520v310.821H0z"/></clipPath><clipPath id="b"><path fill="#fff" transform="translate(103.686 107.133)" d="M0 0h331.731v199.117H0z"/></clipPath><clipPath id="c"><path fill="#fff" transform="translate(125.696 78.834)" d="M0 0h309.563v227.181H0z"/></clipPath><clipPath id="e"><path fill="#fff" transform="translate(33.016 155.871)" d="M0 0h77.352v149.829H0z"/></clipPath><linearGradient id="d" x1="191.19" y1="104.638" x2="174.592" y2="95.624" gradientUnits="userSpaceOnUse"><stop stop-color="#E1E8F6"/><stop offset="1" stop-color="#fff"/></linearGradient></defs></svg>