<svg width="146" height="78" fill="none" xmlns="http://www.w3.org/2000/svg"><path d="M126.488 72c0 3.314 2.677 6 5.979 6 3.303 0 5.98-2.686 5.98-6s-2.677-6-5.98-6c-3.302 0-5.979 2.686-5.979 6zm-25.297 0c0 3.314 2.677 6 5.979 6 3.303 0 5.98-2.686 5.98-6s-2.677-6-5.98-6c-3.302 0-5.979 2.686-5.979 6zm-25.299 0c0 3.314 2.678 6 5.98 6 3.302 0 5.98-2.686 5.98-6s-2.678-6-5.98-6c-3.302 0-5.98 2.686-5.98 6zm-25.297 0c0 3.314 2.677 6 5.98 6 3.302 0 5.98-2.686 5.98-6s-2.678-6-5.98-6c-3.303 0-5.98 2.686-5.98 6zm-25.298 0c0 3.314 2.677 6 5.98 6 3.302 0 5.979-2.686 5.979-6s-2.677-6-5.98-6c-3.302 0-5.979 2.686-5.979 6zM0 72c0 3.314 2.677 6 5.98 6 3.302 0 5.979-2.686 5.979-6s-2.677-6-5.98-6C2.677 66 0 68.686 0 72zm126.488-21.692c0 3.313 2.677 6 5.979 6 3.303 0 5.98-2.687 5.98-6 0-3.314-2.677-6-5.98-6-3.302 0-5.979 2.686-5.979 6zm-25.297 0c0 3.313 2.677 6 5.979 6 3.303 0 5.98-2.687 5.98-6 0-3.314-2.677-6-5.98-6-3.302 0-5.979 2.686-5.979 6zm-25.299 0c0 3.313 2.678 6 5.98 6 3.302 0 5.98-2.687 5.98-6 0-3.314-2.678-6-5.98-6-3.302 0-5.98 2.686-5.98 6zm-25.297 0c0 3.313 2.677 6 5.98 6 3.302 0 5.98-2.687 5.98-6 0-3.314-2.678-6-5.98-6-3.303 0-5.98 2.686-5.98 6zm-25.298 0c0 3.313 2.677 6 5.98 6 3.302 0 5.979-2.687 5.979-6 0-3.314-2.677-6-5.98-6-3.302 0-5.979 2.686-5.979 6zM0 50.308c0 3.313 2.677 6 5.98 6 3.302 0 5.979-2.687 5.979-6 0-3.314-2.677-6-5.98-6-3.302 0-5.98 2.686-5.98 6zm126.488-22.154c0 3.313 2.677 6 5.979 6 3.303 0 5.98-2.687 5.98-6 0-3.314-2.677-6-5.98-6-3.302 0-5.979 2.686-5.979 6zm-25.297 0c0 3.313 2.677 6 5.979 6 3.303 0 5.98-2.687 5.98-6 0-3.314-2.677-6-5.98-6-3.302 0-5.979 2.686-5.979 6zm-25.299 0c0 3.313 2.678 6 5.98 6 3.302 0 5.98-2.687 5.98-6 0-3.314-2.678-6-5.98-6-3.302 0-5.98 2.686-5.98 6zm-25.297 0c0 3.313 2.677 6 5.98 6 3.302 0 5.98-2.687 5.98-6 0-3.314-2.678-6-5.98-6-3.303 0-5.98 2.686-5.98 6zm-25.298 0c0 3.313 2.677 6 5.98 6 3.302 0 5.979-2.687 5.979-6 0-3.314-2.677-6-5.98-6-3.302 0-5.979 2.686-5.979 6zM0 28.154c0 3.313 2.677 6 5.98 6 3.302 0 5.979-2.687 5.979-6 0-3.314-2.677-6-5.98-6-3.302 0-5.98 2.686-5.98 6zM126.488 6c0 3.314 2.677 6 5.98 6 3.302 0 5.979-2.686 5.979-6s-2.677-6-5.979-6c-3.303 0-5.98 2.686-5.98 6zm-25.297 0c0 3.314 2.677 6 5.979 6 3.303 0 5.98-2.686 5.98-6s-2.677-6-5.98-6c-3.302 0-5.979 2.686-5.979 6zM75.892 6c0 3.314 2.678 6 5.98 6 3.302 0 5.98-2.686 5.98-6s-2.678-6-5.98-6c-3.302 0-5.98 2.686-5.98 6zM50.595 6c0 3.314 2.677 6 5.98 6 3.302 0 5.98-2.686 5.98-6s-2.678-6-5.98-6c-3.303 0-5.98 2.686-5.98 6zM25.297 6c0 3.314 2.677 6 5.98 6 3.302 0 5.979-2.686 5.979-6s-2.677-6-5.98-6c-3.302 0-5.979 2.686-5.979 6zM0 6c0 3.314 2.677 6 5.98 6 3.302 0 5.979-2.686 5.979-6s-2.677-6-5.98-6C2.677 0 0 2.686 0 6z" fill="#DDEBF9"/></svg>