<svg width="164" height="78" fill="none" xmlns="http://www.w3.org/2000/svg"><path d="M11.96 6c0-3.314-2.678-6-5.98-6C2.677 0 0 2.686 0 6s2.677 6 5.98 6c3.302 0 5.98-2.686 5.98-6zm25.297 0c0-3.314-2.677-6-5.98-6-3.302 0-5.979 2.686-5.979 6s2.677 6 5.98 6c3.302 0 5.98-2.686 5.98-6zm25.298 0c0-3.314-2.677-6-5.98-6-3.302 0-5.98 2.686-5.98 6s2.678 6 5.98 6c3.303 0 5.98-2.686 5.98-6zm25.298 0c0-3.314-2.677-6-5.98-6-3.302 0-5.98 2.686-5.98 6s2.678 6 5.98 6c3.302 0 5.98-2.686 5.98-6zm25.297 0c0-3.314-2.677-6-5.98-6-3.302 0-5.979 2.686-5.979 6s2.677 6 5.979 6c3.303 0 5.98-2.686 5.98-6zm25.298 0c0-3.314-2.677-6-5.979-6-3.303 0-5.98 2.686-5.98 6s2.677 6 5.98 6c3.302 0 5.979-2.686 5.979-6zm25.298 0c0-3.314-2.678-6-5.98-6-3.302 0-5.979 2.686-5.979 6s2.677 6 5.979 6 5.98-2.686 5.98-6zM11.96 27.692c0-3.313-2.678-6-5.98-6-3.303 0-5.98 2.687-5.98 6 0 3.314 2.677 6 5.98 6 3.302 0 5.98-2.686 5.98-6zm25.297 0c0-3.313-2.677-6-5.98-6-3.302 0-5.979 2.687-5.979 6 0 3.314 2.677 6 5.98 6 3.302 0 5.98-2.686 5.98-6zm25.298 0c0-3.313-2.677-6-5.98-6-3.302 0-5.98 2.687-5.98 6 0 3.314 2.678 6 5.98 6 3.303 0 5.98-2.686 5.98-6zm25.298 0c0-3.313-2.677-6-5.98-6-3.302 0-5.98 2.687-5.98 6 0 3.314 2.678 6 5.98 6 3.302 0 5.98-2.686 5.98-6zm25.297 0c0-3.313-2.677-6-5.98-6-3.302 0-5.979 2.687-5.979 6 0 3.314 2.677 6 5.979 6 3.303 0 5.98-2.686 5.98-6zm25.298 0c0-3.313-2.677-6-5.979-6-3.303 0-5.98 2.687-5.98 6 0 3.314 2.677 6 5.98 6 3.302 0 5.979-2.686 5.979-6zm25.298 0c0-3.313-2.678-6-5.98-6-3.302 0-5.979 2.687-5.979 6 0 3.314 2.677 6 5.979 6s5.98-2.686 5.98-6zM11.96 49.846c0-3.313-2.678-6-5.98-6-3.303 0-5.98 2.687-5.98 6 0 3.314 2.677 6 5.98 6 3.302 0 5.98-2.686 5.98-6zm25.297 0c0-3.313-2.677-6-5.98-6-3.302 0-5.979 2.687-5.979 6 0 3.314 2.677 6 5.98 6 3.302 0 5.98-2.686 5.98-6zm25.298 0c0-3.313-2.677-6-5.98-6-3.302 0-5.98 2.687-5.98 6 0 3.314 2.678 6 5.98 6 3.303 0 5.98-2.686 5.98-6zm25.298 0c0-3.313-2.677-6-5.98-6-3.302 0-5.98 2.687-5.98 6 0 3.314 2.678 6 5.98 6 3.302 0 5.98-2.686 5.98-6zm25.297 0c0-3.313-2.677-6-5.98-6-3.302 0-5.979 2.687-5.979 6 0 3.314 2.677 6 5.979 6 3.303 0 5.98-2.686 5.98-6zm25.298 0c0-3.313-2.677-6-5.979-6-3.303 0-5.98 2.687-5.98 6 0 3.314 2.677 6 5.98 6 3.302 0 5.979-2.686 5.979-6zm25.298 0c0-3.313-2.678-6-5.98-6-3.302 0-5.979 2.687-5.979 6 0 3.314 2.677 6 5.979 6s5.98-2.686 5.98-6zM11.96 72c0-3.314-2.678-6-5.98-6C2.677 66 0 68.686 0 72s2.677 6 5.98 6c3.302 0 5.98-2.686 5.98-6zm25.297 0c0-3.314-2.677-6-5.98-6-3.302 0-5.979 2.686-5.979 6s2.677 6 5.98 6c3.302 0 5.98-2.686 5.98-6zm25.298 0c0-3.314-2.677-6-5.98-6-3.302 0-5.98 2.686-5.98 6s2.678 6 5.98 6c3.303 0 5.98-2.686 5.98-6zm25.298 0c0-3.314-2.677-6-5.98-6-3.302 0-5.98 2.686-5.98 6s2.678 6 5.98 6c3.302 0 5.98-2.686 5.98-6zm25.297 0c0-3.314-2.677-6-5.98-6-3.302 0-5.979 2.686-5.979 6s2.677 6 5.979 6c3.303 0 5.98-2.686 5.98-6zm25.298 0c0-3.314-2.677-6-5.979-6-3.303 0-5.98 2.686-5.98 6s2.677 6 5.98 6c3.302 0 5.979-2.686 5.979-6zm25.298 0c0-3.314-2.678-6-5.98-6-3.302 0-5.979 2.686-5.979 6s2.677 6 5.979 6 5.98-2.686 5.98-6z" fill="#778FA4"/></svg>