<svg fill="none" xmlns="http://www.w3.org/2000/svg" viewBox="0 0 1380 326"><path d="M704 64.96c3.314 0 6-2.678 6-5.98 0-3.303-2.686-5.98-6-5.98s-6 2.677-6 5.98c0 3.302 2.686 5.98 6 5.98ZM704 90.258c3.314 0 6-2.677 6-5.98 0-3.302-2.686-5.98-6-5.98s-6 2.678-6 5.98c0 3.303 2.686 5.98 6 5.98ZM704 115.555c3.314 0 6-2.677 6-5.98 0-3.302-2.686-5.979-6-5.979s-6 2.677-6 5.979c0 3.303 2.686 5.98 6 5.98ZM704 140.854c3.314 0 6-2.678 6-5.98 0-3.302-2.686-5.979-6-5.979s-6 2.677-6 5.979 2.686 5.98 6 5.98ZM704 166.15c3.314 0 6-2.677 6-5.979s-2.686-5.98-6-5.98-6 2.678-6 5.98c0 3.302 2.686 5.979 6 5.979ZM704 191.447c3.314 0 6-2.677 6-5.979 0-3.303-2.686-5.98-6-5.98s-6 2.677-6 5.98c0 3.302 2.686 5.979 6 5.979ZM704 216.746c3.314 0 6-2.677 6-5.979 0-3.303-2.686-5.98-6-5.98s-6 2.677-6 5.98c0 3.302 2.686 5.979 6 5.979ZM682.308 64.96c3.313 0 6-2.678 6-5.98 0-3.303-2.687-5.98-6-5.98-3.314 0-6 2.677-6 5.98 0 3.302 2.686 5.98 6 5.98ZM682.308 90.258c3.313 0 6-2.677 6-5.98 0-3.302-2.687-5.98-6-5.98-3.314 0-6 2.678-6 5.98 0 3.303 2.686 5.98 6 5.98ZM682.308 115.555c3.313 0 6-2.677 6-5.98 0-3.302-2.687-5.979-6-5.979-3.314 0-6 2.677-6 5.979 0 3.303 2.686 5.98 6 5.98ZM682.308 140.854c3.313 0 6-2.678 6-5.98 0-3.302-2.687-5.979-6-5.979-3.314 0-6 2.677-6 5.979s2.686 5.98 6 5.98ZM682.308 166.15c3.313 0 6-2.677 6-5.979s-2.687-5.98-6-5.98c-3.314 0-6 2.678-6 5.98 0 3.302 2.686 5.979 6 5.979ZM682.308 191.447c3.313 0 6-2.677 6-5.979 0-3.303-2.687-5.98-6-5.98-3.314 0-6 2.677-6 5.98 0 3.302 2.686 5.979 6 5.979ZM682.308 216.746c3.313 0 6-2.677 6-5.979 0-3.303-2.687-5.98-6-5.98-3.314 0-6 2.677-6 5.98 0 3.302 2.686 5.979 6 5.979ZM660.153 64.96c3.314 0 6-2.678 6-5.98 0-3.303-2.686-5.98-6-5.98-3.313 0-6 2.677-6 5.98 0 3.302 2.687 5.98 6 5.98ZM660.153 90.258c3.314 0 6-2.677 6-5.98 0-3.302-2.686-5.98-6-5.98-3.313 0-6 2.678-6 5.98 0 3.303 2.687 5.98 6 5.98ZM660.153 115.555c3.314 0 6-2.677 6-5.98 0-3.302-2.686-5.979-6-5.979-3.313 0-6 2.677-6 5.979 0 3.303 2.687 5.98 6 5.98ZM660.153 140.854c3.314 0 6-2.678 6-5.98 0-3.302-2.686-5.979-6-5.979-3.313 0-6 2.677-6 5.979s2.687 5.98 6 5.98ZM660.153 166.15c3.314 0 6-2.677 6-5.979s-2.686-5.98-6-5.98c-3.313 0-6 2.678-6 5.98 0 3.302 2.687 5.979 6 5.979ZM660.153 191.447c3.314 0 6-2.677 6-5.979 0-3.303-2.686-5.98-6-5.98-3.313 0-6 2.677-6 5.98 0 3.302 2.687 5.979 6 5.979ZM660.153 216.746c3.314 0 6-2.677 6-5.979 0-3.303-2.686-5.98-6-5.98-3.313 0-6 2.677-6 5.98 0 3.302 2.687 5.979 6 5.979ZM638 64.96c3.314 0 6-2.678 6-5.98 0-3.303-2.686-5.98-6-5.98s-6 2.677-6 5.98c0 3.302 2.686 5.98 6 5.98ZM638 90.258c3.314 0 6-2.677 6-5.98 0-3.302-2.686-5.98-6-5.98s-6 2.678-6 5.98c0 3.303 2.686 5.98 6 5.98ZM638 115.555c3.314 0 6-2.677 6-5.98 0-3.302-2.686-5.979-6-5.979s-6 2.677-6 5.979c0 3.303 2.686 5.98 6 5.98ZM638 140.854c3.314 0 6-2.678 6-5.98 0-3.302-2.686-5.979-6-5.979s-6 2.677-6 5.979 2.686 5.98 6 5.98ZM638 166.15c3.314 0 6-2.677 6-5.979s-2.686-5.98-6-5.98-6 2.678-6 5.98c0 3.302 2.686 5.979 6 5.979ZM638 191.447c3.314 0 6-2.677 6-5.979 0-3.303-2.686-5.98-6-5.98s-6 2.677-6 5.98c0 3.302 2.686 5.979 6 5.979ZM638 216.746c3.314 0 6-2.677 6-5.979 0-3.303-2.686-5.98-6-5.98s-6 2.677-6 5.98c0 3.302 2.686 5.979 6 5.979ZM1367.79 320c0 3.314 2.67 6 5.98 6 3.3 0 5.98-2.686 5.98-6s-2.68-6-5.98-6c-3.31 0-5.98 2.686-5.98 6ZM1342.49 320c0 3.314 2.68 6 5.98 6 3.3 0 5.98-2.686 5.98-6s-2.68-6-5.98-6c-3.3 0-5.98 2.686-5.98 6ZM1317.19 320c0 3.314 2.68 6 5.98 6 3.3 0 5.98-2.686 5.98-6s-2.68-6-5.98-6c-3.3 0-5.98 2.686-5.98 6ZM1291.89 320c0 3.314 2.68 6 5.98 6 3.3 0 5.98-2.686 5.98-6s-2.68-6-5.98-6c-3.3 0-5.98 2.686-5.98 6ZM1266.59 320c0 3.314 2.68 6 5.98 6 3.31 0 5.98-2.686 5.98-6s-2.67-6-5.98-6c-3.3 0-5.98 2.686-5.98 6ZM1241.3 320c0 3.314 2.67 6 5.98 6 3.3 0 5.98-2.686 5.98-6s-2.68-6-5.98-6c-3.31 0-5.98 2.686-5.98 6ZM1216 320c0 3.314 2.68 6 5.98 6 3.3 0 5.98-2.686 5.98-6s-2.68-6-5.98-6c-3.3 0-5.98 2.686-5.98 6ZM1367.79 298c0 3.314 2.67 6 5.98 6 3.3 0 5.98-2.686 5.98-6s-2.68-6-5.98-6c-3.31 0-5.98 2.686-5.98 6ZM1342.49 298c0 3.314 2.68 6 5.98 6 3.3 0 5.98-2.686 5.98-6s-2.68-6-5.98-6c-3.3 0-5.98 2.686-5.98 6ZM1317.19 298c0 3.314 2.68 6 5.98 6 3.3 0 5.98-2.686 5.98-6s-2.68-6-5.98-6c-3.3 0-5.98 2.686-5.98 6ZM1291.89 298c0 3.314 2.68 6 5.98 6 3.3 0 5.98-2.686 5.98-6s-2.68-6-5.98-6c-3.3 0-5.98 2.686-5.98 6ZM1266.59 298c0 3.314 2.68 6 5.98 6 3.31 0 5.98-2.686 5.98-6s-2.67-6-5.98-6c-3.3 0-5.98 2.686-5.98 6ZM1241.3 298c0 3.314 2.67 6 5.98 6 3.3 0 5.98-2.686 5.98-6s-2.68-6-5.98-6c-3.31 0-5.98 2.686-5.98 6ZM1216 298c0 3.314 2.68 6 5.98 6 3.3 0 5.98-2.686 5.98-6s-2.68-6-5.98-6c-3.3 0-5.98 2.686-5.98 6ZM1367.79 276c0 3.314 2.67 6 5.98 6 3.3 0 5.98-2.686 5.98-6s-2.68-6-5.98-6c-3.31 0-5.98 2.686-5.98 6ZM1342.49 276c0 3.314 2.68 6 5.98 6 3.3 0 5.98-2.686 5.98-6s-2.68-6-5.98-6c-3.3 0-5.98 2.686-5.98 6ZM1317.19 276c0 3.314 2.68 6 5.98 6 3.3 0 5.98-2.686 5.98-6s-2.68-6-5.98-6c-3.3 0-5.98 2.686-5.98 6ZM1291.89 276c0 3.314 2.68 6 5.98 6 3.3 0 5.98-2.686 5.98-6s-2.68-6-5.98-6c-3.3 0-5.98 2.686-5.98 6ZM1266.59 276c0 3.314 2.68 6 5.98 6 3.31 0 5.98-2.686 5.98-6s-2.67-6-5.98-6c-3.3 0-5.98 2.686-5.98 6ZM1241.3 276c0 3.314 2.67 6 5.98 6 3.3 0 5.98-2.686 5.98-6s-2.68-6-5.98-6c-3.31 0-5.98 2.686-5.98 6ZM1216 276c0 3.314 2.68 6 5.98 6 3.3 0 5.98-2.686 5.98-6s-2.68-6-5.98-6c-3.3 0-5.98 2.686-5.98 6ZM1367.79 254c0 3.314 2.67 6 5.98 6 3.3 0 5.98-2.686 5.98-6s-2.68-6-5.98-6c-3.31 0-5.98 2.686-5.98 6ZM1342.49 254c0 3.314 2.68 6 5.98 6 3.3 0 5.98-2.686 5.98-6s-2.68-6-5.98-6c-3.3 0-5.98 2.686-5.98 6ZM1317.19 254c0 3.314 2.68 6 5.98 6 3.3 0 5.98-2.686 5.98-6s-2.68-6-5.98-6c-3.3 0-5.98 2.686-5.98 6ZM1291.89 254c0 3.314 2.68 6 5.98 6 3.3 0 5.98-2.686 5.98-6s-2.68-6-5.98-6c-3.3 0-5.98 2.686-5.98 6ZM1266.6 254c0 3.314 2.67 6 5.98 6 3.3 0 5.97-2.686 5.97-6s-2.67-6-5.97-6c-3.31 0-5.98 2.686-5.98 6ZM1241.3 254c0 3.314 2.67 6 5.98 6 3.3 0 5.98-2.686 5.98-6s-2.68-6-5.98-6c-3.31 0-5.98 2.686-5.98 6ZM1216 254c0 3.314 2.68 6 5.98 6 3.3 0 5.98-2.686 5.98-6s-2.68-6-5.98-6c-3.3 0-5.98 2.686-5.98 6ZM151.786 320c0 3.314 2.677 6 5.98 6 3.302 0 5.979-2.686 5.979-6s-2.677-6-5.979-6c-3.303 0-5.98 2.686-5.98 6ZM126.488 320c0 3.314 2.677 6 5.98 6 3.302 0 5.979-2.686 5.979-6s-2.677-6-5.979-6c-3.303 0-5.98 2.686-5.98 6ZM101.191 320c0 3.314 2.677 6 5.979 6s5.98-2.686 5.98-6-2.678-6-5.98-6c-3.302 0-5.979 2.686-5.979 6ZM75.892 320c0 3.314 2.678 6 5.98 6 3.302 0 5.98-2.686 5.98-6s-2.678-6-5.98-6c-3.302 0-5.98 2.686-5.98 6ZM50.595 320c0 3.314 2.677 6 5.98 6 3.302 0 5.979-2.686 5.979-6s-2.677-6-5.98-6c-3.302 0-5.98 2.686-5.98 6ZM25.297 320c0 3.314 2.677 6 5.98 6 3.302 0 5.979-2.686 5.979-6s-2.677-6-5.98-6c-3.302 0-5.98 2.686-5.98 6ZM0 320c0 3.314 2.677 6 5.98 6 3.302 0 5.979-2.686 5.979-6s-2.677-6-5.98-6C2.678 314 0 316.686 0 320ZM151.786 298c0 3.314 2.677 6 5.98 6 3.302 0 5.979-2.686 5.979-6s-2.677-6-5.979-6c-3.303 0-5.98 2.686-5.98 6ZM126.488 298c0 3.314 2.677 6 5.98 6 3.302 0 5.979-2.686 5.979-6s-2.677-6-5.979-6c-3.303 0-5.98 2.686-5.98 6ZM101.19 298c0 3.314 2.678 6 5.98 6 3.302 0 5.979-2.686 5.979-6s-2.677-6-5.979-6-5.98 2.686-5.98 6ZM75.892 298c0 3.314 2.678 6 5.98 6 3.302 0 5.98-2.686 5.98-6s-2.678-6-5.98-6c-3.302 0-5.98 2.686-5.98 6ZM50.595 298c0 3.314 2.677 6 5.98 6 3.302 0 5.979-2.686 5.979-6s-2.677-6-5.98-6c-3.302 0-5.98 2.686-5.98 6ZM25.297 298c0 3.314 2.677 6 5.98 6 3.302 0 5.979-2.686 5.979-6s-2.677-6-5.98-6c-3.302 0-5.98 2.686-5.98 6ZM0 298c0 3.314 2.677 6 5.98 6 3.302 0 5.979-2.686 5.979-6s-2.677-6-5.98-6C2.678 292 0 294.686 0 298ZM151.786 276c0 3.314 2.677 6 5.98 6 3.302 0 5.979-2.686 5.979-6s-2.677-6-5.979-6c-3.303 0-5.98 2.686-5.98 6ZM126.488 276c0 3.314 2.677 6 5.98 6 3.302 0 5.979-2.686 5.979-6s-2.677-6-5.979-6c-3.303 0-5.98 2.686-5.98 6ZM101.19 276c0 3.314 2.678 6 5.98 6 3.302 0 5.979-2.686 5.979-6s-2.677-6-5.979-6-5.98 2.686-5.98 6ZM75.892 276c0 3.314 2.678 6 5.98 6 3.302 0 5.98-2.686 5.98-6s-2.678-6-5.98-6c-3.302 0-5.98 2.686-5.98 6ZM50.595 276c0 3.314 2.677 6 5.98 6 3.302 0 5.979-2.686 5.979-6s-2.677-6-5.98-6c-3.302 0-5.98 2.686-5.98 6ZM25.297 276c0 3.314 2.677 6 5.98 6 3.302 0 5.979-2.686 5.979-6s-2.677-6-5.98-6c-3.302 0-5.98 2.686-5.98 6ZM0 276c0 3.314 2.677 6 5.98 6 3.302 0 5.979-2.686 5.979-6s-2.677-6-5.98-6C2.678 270 0 272.686 0 276ZM151.786 254c0 3.314 2.677 6 5.98 6 3.302 0 5.979-2.686 5.979-6s-2.677-6-5.979-6c-3.303 0-5.98 2.686-5.98 6ZM126.488 254c0 3.314 2.677 6 5.98 6 3.302 0 5.979-2.686 5.979-6s-2.677-6-5.979-6c-3.303 0-5.98 2.686-5.98 6ZM101.191 254c0 3.314 2.677 6 5.979 6s5.98-2.686 5.98-6-2.678-6-5.98-6c-3.302 0-5.979 2.686-5.979 6ZM75.892 254c0 3.314 2.678 6 5.98 6 3.302 0 5.98-2.686 5.98-6s-2.678-6-5.98-6c-3.302 0-5.98 2.686-5.98 6ZM50.596 254c0 3.314 2.677 6 5.98 6 3.302 0 5.979-2.686 5.979-6s-2.677-6-5.98-6c-3.302 0-5.98 2.686-5.98 6ZM25.297 254c0 3.314 2.677 6 5.98 6 3.302 0 5.979-2.686 5.979-6s-2.677-6-5.98-6c-3.302 0-5.979 2.686-5.979 6ZM0 254c0 3.314 2.677 6 5.98 6 3.302 0 5.979-2.686 5.979-6s-2.677-6-5.98-6C2.678 248 0 250.686 0 254ZM1203.79 72c0 3.314 2.67 6 5.98 6 3.3 0 5.98-2.686 5.98-6s-2.68-6-5.98-6c-3.31 0-5.98 2.686-5.98 6ZM1178.49 72c0 3.314 2.68 6 5.98 6 3.3 0 5.98-2.686 5.98-6s-2.68-6-5.98-6c-3.3 0-5.98 2.686-5.98 6ZM1153.19 72c0 3.314 2.68 6 5.98 6 3.3 0 5.98-2.686 5.98-6s-2.68-6-5.98-6c-3.3 0-5.98 2.686-5.98 6ZM1127.89 72c0 3.314 2.68 6 5.98 6 3.3 0 5.98-2.686 5.98-6s-2.68-6-5.98-6c-3.3 0-5.98 2.686-5.98 6ZM1102.59 72c0 3.314 2.68 6 5.98 6 3.31 0 5.98-2.686 5.98-6s-2.67-6-5.98-6c-3.3 0-5.98 2.686-5.98 6ZM1077.3 72c0 3.314 2.67 6 5.98 6 3.3 0 5.98-2.686 5.98-6s-2.68-6-5.98-6c-3.31 0-5.98 2.686-5.98 6ZM1052 72c0 3.314 2.68 6 5.98 6 3.3 0 5.98-2.686 5.98-6s-2.68-6-5.98-6c-3.3 0-5.98 2.686-5.98 6ZM1203.79 50c0 3.314 2.67 6 5.98 6 3.3 0 5.98-2.686 5.98-6s-2.68-6-5.98-6c-3.31 0-5.98 2.686-5.98 6ZM1178.49 50c0 3.314 2.68 6 5.98 6 3.3 0 5.98-2.686 5.98-6s-2.68-6-5.98-6c-3.3 0-5.98 2.686-5.98 6ZM1153.19 50c0 3.314 2.68 6 5.98 6 3.3 0 5.98-2.686 5.98-6s-2.68-6-5.98-6c-3.3 0-5.98 2.686-5.98 6ZM1127.89 50c0 3.314 2.68 6 5.98 6 3.3 0 5.98-2.686 5.98-6s-2.68-6-5.98-6c-3.3 0-5.98 2.686-5.98 6ZM1102.59 50c0 3.314 2.68 6 5.98 6 3.31 0 5.98-2.686 5.98-6s-2.67-6-5.98-6c-3.3 0-5.98 2.686-5.98 6ZM1077.3 50c0 3.314 2.67 6 5.98 6 3.3 0 5.98-2.686 5.98-6s-2.68-6-5.98-6c-3.31 0-5.98 2.686-5.98 6ZM1052 50c0 3.314 2.68 6 5.98 6 3.3 0 5.98-2.686 5.98-6s-2.68-6-5.98-6c-3.3 0-5.98 2.686-5.98 6ZM1203.79 28c0 3.314 2.67 6 5.98 6 3.3 0 5.98-2.686 5.98-6s-2.68-6-5.98-6c-3.31 0-5.98 2.686-5.98 6ZM1178.49 28c0 3.314 2.68 6 5.98 6 3.3 0 5.98-2.686 5.98-6s-2.68-6-5.98-6c-3.3 0-5.98 2.686-5.98 6ZM1153.19 28c0 3.314 2.68 6 5.98 6 3.3 0 5.98-2.686 5.98-6s-2.68-6-5.98-6c-3.3 0-5.98 2.686-5.98 6ZM1127.89 28c0 3.314 2.68 6 5.98 6 3.3 0 5.98-2.686 5.98-6s-2.68-6-5.98-6c-3.3 0-5.98 2.686-5.98 6ZM1102.59 28c0 3.314 2.68 6 5.98 6 3.31 0 5.98-2.686 5.98-6s-2.67-6-5.98-6c-3.3 0-5.98 2.686-5.98 6ZM1077.3 28c0 3.314 2.67 6 5.98 6 3.3 0 5.98-2.686 5.98-6s-2.68-6-5.98-6c-3.31 0-5.98 2.686-5.98 6ZM1052 28c0 3.314 2.68 6 5.98 6 3.3 0 5.98-2.686 5.98-6s-2.68-6-5.98-6c-3.3 0-5.98 2.686-5.98 6ZM1203.79 6c0 3.314 2.67 6 5.98 6 3.3 0 5.98-2.686 5.98-6s-2.68-6-5.98-6c-3.31 0-5.98 2.686-5.98 6ZM1178.49 6c0 3.314 2.68 6 5.98 6 3.3 0 5.98-2.686 5.98-6s-2.68-6-5.98-6c-3.3 0-5.98 2.686-5.98 6ZM1153.19 6c0 3.314 2.68 6 5.98 6 3.3 0 5.98-2.686 5.98-6s-2.68-6-5.98-6c-3.3 0-5.98 2.686-5.98 6ZM1127.89 6c0 3.314 2.68 6 5.98 6 3.3 0 5.98-2.686 5.98-6s-2.68-6-5.98-6c-3.3 0-5.98 2.686-5.98 6ZM1102.6 6c0 3.314 2.67 6 5.98 6 3.3 0 5.97-2.686 5.97-6s-2.67-6-5.97-6c-3.31 0-5.98 2.686-5.98 6ZM1077.3 6c0 3.314 2.67 6 5.98 6 3.3 0 5.98-2.686 5.98-6s-2.68-6-5.98-6c-3.31 0-5.98 2.686-5.98 6ZM1052 6c0 3.314 2.68 6 5.98 6 3.3 0 5.98-2.686 5.98-6s-2.68-6-5.98-6c-3.3 0-5.98 2.686-5.98 6Z" fill="#DDEBF9"/></svg>