<svg fill="none" xmlns="http://www.w3.org/2000/svg" viewBox="0 0 22 22"><path d="m21.934 20.419-7.142-7.142A8.176 8.176 0 0 0 16.5 8.25a8.2 8.2 0 0 0-2.417-5.833A8.19 8.19 0 0 0 8.25 0a8.2 8.2 0 0 0-5.833 2.417A8.184 8.184 0 0 0 0 8.25a8.2 8.2 0 0 0 2.417 5.833A8.185 8.185 0 0 0 8.25 16.5c1.842 0 3.591-.6 5.024-1.705l7.142 7.139a.224.224 0 0 0 .319 0l1.199-1.196a.224.224 0 0 0 0-.32Zm-9.328-7.813A6.126 6.126 0 0 1 8.25 14.41c-1.645 0-3.19-.64-4.356-1.804A6.126 6.126 0 0 1 2.09 8.25c0-1.645.64-3.193 1.804-4.356A6.127 6.127 0 0 1 8.25 2.09a6.11 6.11 0 0 1 4.356 1.804A6.127 6.127 0 0 1 14.41 8.25c0 1.644-.64 3.193-1.804 4.356Z" fill="#294C68"/></svg>