<?xml version="1.0" standalone="no"?>
<!DOCTYPE svg PUBLIC "-//W3C//DTD SVG 20010904//EN"
 "http://www.w3.org/TR/2001/REC-SVG-20010904/DTD/svg10.dtd">
<svg version="1.0" xmlns="http://www.w3.org/2000/svg"
 width="140.000000pt" height="140.000000pt" viewBox="0 0 140.000000 140.000000"
 preserveAspectRatio="xMidYMid meet">
<metadata>
Created by potrace 1.14, written by Peter Selinger 2001-2017
</metadata>
<g transform="translate(0.000000,140.000000) scale(0.100000,-0.100000)"
fill="#000000" stroke="none">
<path d="M22 791 c-4 -3 -8 -45 -8 -93 -1 -64 2 -88 12 -92 17 -7 33 21 27 45
-4 15 0 19 21 19 30 0 66 32 66 59 0 33 -32 61 -72 64 -21 2 -41 1 -46 -2z
m76 -55 c4 -20 -14 -37 -32 -30 -7 3 -13 16 -14 30 -2 21 2 25 20 22 13 -2 24
-11 26 -22z"/>
<path d="M199 793 c-11 -3 -25 -34 -42 -91 -28 -93 -24 -121 13 -79 26 29 42
29 67 -1 10 -12 23 -19 29 -14 8 5 4 32 -17 96 -15 48 -29 89 -31 90 -2 1 -10
1 -19 -1z m9 -112 c-15 -6 -20 7 -12 31 l8 23 6 -25 c3 -14 2 -27 -2 -29z"/>
<path d="M303 787 c-4 -6 -8 -47 -8 -90 -1 -66 2 -80 17 -88 16 -8 18 -5 19
23 1 18 0 43 -1 56 -2 35 8 26 31 -28 16 -38 27 -50 43 -50 20 0 21 5 22 89 1
79 -1 90 -18 94 -18 5 -24 -17 -18 -80 2 -36 -8 -27 -31 26 -21 51 -43 69 -56
48z"/>
<path d="M462 791 c-4 -4 -8 -45 -8 -93 -1 -74 1 -88 15 -89 76 -5 106 20 105
91 0 32 -6 56 -18 69 -17 18 -78 33 -94 22z m67 -45 c6 -7 9 -28 7 -47 -2 -19
-4 -40 -5 -46 0 -7 -9 -13 -19 -13 -16 0 -19 8 -18 60 0 60 11 75 35 46z"/>
<path d="M653 792 c-7 -4 -24 -45 -38 -91 -29 -91 -24 -120 14 -80 27 29 52
33 58 8 3 -12 14 -19 28 -19 l23 0 -24 76 c-22 68 -41 114 -47 114 -1 0 -7 -4
-14 -8z m15 -111 c-15 -6 -20 7 -12 31 l8 23 6 -25 c3 -14 2 -27 -2 -29z"/>
<path d="M750 664 c0 -57 2 -65 14 -54 8 6 12 18 9 26 -9 25 13 15 25 -12 15
-32 35 -23 22 10 -5 15 -5 27 2 34 8 8 8 18 0 37 -9 19 -19 25 -42 25 l-30 0
0 -66z m45 17 c-9 -16 -25 -3 -18 15 4 10 9 12 15 6 6 -6 7 -15 3 -21z"/>
<path d="M842 678 c1 -61 9 -75 40 -73 28 2 36 25 9 25 -12 0 -21 6 -21 15 0
8 9 15 20 15 11 0 20 5 20 10 0 6 -9 10 -20 10 -11 0 -20 7 -20 15 0 8 3 14 8
14 18 -3 32 2 32 11 0 6 -15 10 -34 10 l-34 0 0 -52z"/>
<path d="M920 724 c0 -3 7 -30 16 -61 21 -71 42 -69 61 6 8 29 12 56 9 58 -10
10 -24 -8 -31 -39 l-8 -33 -10 38 c-6 20 -16 37 -24 37 -7 0 -13 -3 -13 -6z"/>
<path d="M1028 718 c-4 -12 -3 -53 1 -101 0 -10 6 -15 11 -12 12 8 13 125 1
125 -5 0 -11 -6 -13 -12z"/>
<path d="M1070 667 c0 -68 -3 -65 63 -58 17 2 5 21 -13 21 -27 0 -25 28 3 33
l22 4 -22 8 c-28 9 -30 35 -3 35 11 0 20 5 20 10 0 6 -16 10 -35 10 l-35 0 0
-63z"/>
<path d="M1150 715 c0 -7 5 -36 11 -64 8 -37 14 -48 25 -44 8 3 14 17 15 32 1
25 1 25 15 -8 18 -40 31 -32 40 23 3 21 7 47 9 57 2 12 -2 19 -11 19 -9 0 -14
-11 -15 -32 l-1 -33 -10 33 c-6 17 -15 32 -19 32 -5 0 -13 -15 -18 -32 -6 -24
-10 -27 -11 -13 -1 11 -2 26 -1 33 1 6 -5 12 -14 12 -8 0 -15 -7 -15 -15z"/>
<path d="M1292 718 c-19 -19 -14 -35 15 -56 16 -11 25 -24 21 -28 -4 -4 -14
-1 -23 6 -18 15 -30 7 -22 -13 8 -21 45 -27 62 -10 22 21 18 42 -10 55 -24 11
-35 38 -15 38 6 0 10 -4 10 -10 0 -5 7 -10 15 -10 13 0 14 4 5 20 -12 22 -40
26 -58 8z"/>
</g>
</svg>
