<?xml version="1.0" encoding="utf-8"?><svg xmlns="http://www.w3.org/2000/svg" xmlns:xlink="http://www.w3.org/1999/xlink"><symbol fill="none" viewBox="0 0 23 23" id="arrow" xmlns="http://www.w3.org/2000/svg"><path fill-rule="evenodd" clip-rule="evenodd" d="M1.438 11.5a.719.719 0 00.718.719H19.11l-4.524 4.522a.72.72 0 101.018 1.018l5.75-5.75a.721.721 0 000-1.018l-5.75-5.75a.72.72 0 10-1.018 1.018l4.524 4.522H2.156a.719.719 0 00-.718.719z" fill="#fff"/></symbol><symbol fill="none" viewBox="0 0 21 13" id="arrow-black" xmlns="http://www.w3.org/2000/svg"><path fill-rule="evenodd" clip-rule="evenodd" d="M20.126 6.47a.719.719 0 00-.719-.719H2.455L6.98 1.229A.72.72 0 005.96.21L.211 5.96a.719.719 0 000 1.018l5.75 5.75A.72.72 0 006.98 11.71L2.455 7.189h16.952a.719.719 0 00.72-.72z" fill="#323232"/></symbol><symbol fill="none" viewBox="0 0 16 16" id="caret" xmlns="http://www.w3.org/2000/svg"><path d="M7.247 11.14L2.451 5.658C1.885 5.013 2.345 4 3.204 4h9.592a1 1 0 01.753 1.659l-4.796 5.48a1 1 0 01-1.506 0v.001z" fill="#fff"/></symbol><symbol fill="none" viewBox="0 0 17 14" id="check" xmlns="http://www.w3.org/2000/svg"><path d="M13.94.94a1.5 1.5 0 012.14 2.1L8.1 13.02a1.5 1.5 0 01-2.16.04L.648 7.768a1.5 1.5 0 112.12-2.12l4.188 4.186 6.946-8.85a.54.54 0 01.04-.044h-.002z" fill="#3EBF5B"/></symbol><symbol fill="none" viewBox="0 0 24 24" id="circle-check" xmlns="http://www.w3.org/2000/svg"><path fill-rule="evenodd" clip-rule="evenodd" d="M12 1C5.925 1 1 5.925 1 12s4.925 11 11 11 11-4.925 11-11S18.075 1 12 1zm4.768 9.14a1.001 1.001 0 10-1.536-1.28l-4.3 5.159-2.225-2.226a1 1 0 00-1.414 1.414l3 3a1.002 1.002 0 001.475-.067l5-6z" fill="#1DA623"/></symbol><symbol fill="none" viewBox="0 0 21 20" id="circle-close" xmlns="http://www.w3.org/2000/svg"><path d="M10 20A9.99 9.99 0 010 10v-.2a10.005 10.005 0 0119.813-1.752A10 10 0 0110 20zm0-8.59L12.59 14 14 12.59 11.41 10 14 7.41 12.59 6 10 8.59 7.41 6 6 7.41 8.59 10 6 12.59 7.41 14 10 11.411v-.001z" fill="#F34650"/></symbol><symbol fill="none" viewBox="0 0 13 24" id="fb" xmlns="http://www.w3.org/2000/svg"><path d="M12.047 13.5l.656-4.313H8.531V6.376c0-1.219.563-2.344 2.438-2.344h1.922V.328S11.156 0 9.516 0C6.094 0 3.844 2.11 3.844 5.86v3.327H0V13.5h3.844V24H8.53V13.5h3.516z" fill="#6D8AA9"/></symbol><symbol fill="none" viewBox="0 0 88 100" id="guard" xmlns="http://www.w3.org/2000/svg"><path fill-rule="evenodd" clip-rule="evenodd" d="M43.75 0c-4.313 0-11.519 1.656-18.3 3.5-6.938 1.875-13.931 4.094-18.044 5.438a9.625 9.625 0 00-6.525 7.887C-2.844 44.806 5.8 65.544 16.288 79.263a73.606 73.606 0 0015.73 15.33c2.413 1.707 4.65 3.013 6.55 3.907 1.75.825 3.632 1.5 5.182 1.5 1.55 0 3.425-.675 5.181-1.5a44.747 44.747 0 006.55-3.906 73.594 73.594 0 0015.732-15.331c10.487-13.72 19.13-34.457 15.406-62.438a9.632 9.632 0 00-6.525-7.894A390.424 390.424 0 0062.05 3.494C55.269 1.662 48.063 0 43.75 0zm13.413 32.163a3.129 3.129 0 014.425 4.425l-18.75 18.75a3.126 3.126 0 01-4.425 0l-9.375-9.376a3.129 3.129 0 014.424-4.425l7.163 7.17 16.538-16.544z" fill="#1DA623"/></symbol><symbol fill="none" viewBox="0 0 22 21" id="in" xmlns="http://www.w3.org/2000/svg"><path d="M5.656 20.953V6.938h-4.36v14.015h4.36zM3.453 5.063c1.406 0 2.531-1.172 2.531-2.579C5.984 1.125 4.86 0 3.454 0A2.5 2.5 0 00.968 2.484c0 1.407 1.125 2.579 2.484 2.579zm18.469 15.89h.047v-7.687c0-3.75-.844-6.657-5.25-6.657-2.11 0-3.516 1.172-4.125 2.25h-.047V6.938H8.375v14.015h4.36v-6.937c0-1.829.328-3.563 2.578-3.563s2.296 2.063 2.296 3.703v6.797h4.313z" fill="#6D8AA9"/></symbol><symbol fill="none" viewBox="0 0 21 20" id="insta" xmlns="http://www.w3.org/2000/svg"><path fill-rule="evenodd" clip-rule="evenodd" d="M15.555 0H6.383A5.42 5.42 0 00.969 5.414v9.172A5.42 5.42 0 006.383 20h9.172a5.42 5.42 0 005.414-5.414V5.414A5.42 5.42 0 0015.555 0zm-4.586 15.469A5.475 5.475 0 015.5 10a5.475 5.475 0 015.469-5.469A5.475 5.475 0 0116.437 10a5.475 5.475 0 01-5.468 5.469zm5.6-9.648a1.618 1.618 0 01-1.617-1.616c0-.89.725-1.616 1.616-1.616.891 0 1.616.725 1.616 1.616 0 .891-.725 1.616-1.616 1.616zm-5.6-.117A4.301 4.301 0 006.675 10a4.301 4.301 0 004.296 4.296A4.301 4.301 0 0015.266 10a4.3 4.3 0 00-4.296-4.296zm5.156-1.497a.444.444 0 11.889 0 .444.444 0 01-.889 0z" fill="#6D8AA9"/></symbol><symbol fill="none" viewBox="0 0 22 22" id="lens" xmlns="http://www.w3.org/2000/svg"><path d="M21.934 20.419l-7.142-7.142A8.176 8.176 0 0016.5 8.25a8.2 8.2 0 00-2.417-5.833A8.19 8.19 0 008.25 0a8.2 8.2 0 00-5.833 2.417A8.184 8.184 0 000 8.25a8.2 8.2 0 002.417 5.833A8.185 8.185 0 008.25 16.5c1.842 0 3.591-.6 5.024-1.705l7.142 7.139a.224.224 0 00.319 0l1.199-1.196a.224.224 0 000-.32zm-9.328-7.813A6.126 6.126 0 018.25 14.41c-1.645 0-3.19-.64-4.356-1.804A6.126 6.126 0 012.09 8.25c0-1.645.64-3.193 1.804-4.356A6.127 6.127 0 018.25 2.09a6.11 6.11 0 014.356 1.804A6.127 6.127 0 0114.41 8.25a6.12 6.12 0 01-1.804 4.356z" fill="#294C68"/></symbol><symbol fill="none" viewBox="0 0 22 22" id="lens-white" xmlns="http://www.w3.org/2000/svg"><path d="M21.934 20.419l-7.142-7.142A8.176 8.176 0 0016.5 8.25a8.2 8.2 0 00-2.417-5.833A8.19 8.19 0 008.25 0a8.2 8.2 0 00-5.833 2.417A8.184 8.184 0 000 8.25a8.2 8.2 0 002.417 5.833A8.185 8.185 0 008.25 16.5c1.842 0 3.591-.6 5.024-1.705l7.142 7.139a.224.224 0 00.319 0l1.199-1.196a.224.224 0 000-.32zm-9.328-7.813A6.126 6.126 0 018.25 14.41c-1.645 0-3.19-.64-4.356-1.804A6.126 6.126 0 012.09 8.25c0-1.645.64-3.193 1.804-4.356A6.127 6.127 0 018.25 2.09a6.11 6.11 0 014.356 1.804A6.127 6.127 0 0114.41 8.25a6.12 6.12 0 01-1.804 4.356z" fill="#fff"/></symbol><symbol fill="none" viewBox="0 0 311 126" id="letters" xmlns="http://www.w3.org/2000/svg"><g clip-path="url(#ma)"><path d="M126.587 89.68l6.722 19.182-23.467-19.183h16.745z" fill="#86A2C0"/><path d="M181.622 89.68h-80.363c-5.281 0-9.603-4.317-9.603-9.592V32.251c0-5.275 4.322-9.591 9.603-9.591h80.303c5.282 0 9.603 4.316 9.603 9.591v47.837c.06 5.275-4.261 9.592-9.543 9.592z" fill="#86A2C0"/><path d="M87.936 80.328V32.011c0-7.073 5.761-12.828 12.843-12.828h31.749m3.661 73.973h45.914c7.082 0 12.783-5.755 12.783-12.768V32.01m-64.818-21.82h69.86m-83.664 4.437h74.961M84.214 53.352v43.341m20.167 12.229a3.239 3.239 0 003.241-3.237 3.239 3.239 0 00-3.241-3.237 3.239 3.239 0 00-3.241 3.237 3.239 3.239 0 003.241 3.237z" stroke="#86A2C0" stroke-width="2" stroke-miterlimit="10"/><path d="M100.299 1.559a.78.78 0 10.001-1.56.78.78 0 00-.001 1.56zm3.301 0a.78.78 0 100-1.56.78.78 0 000 1.56zm3.301 0a.78.78 0 10.001-1.56.78.78 0 00-.001 1.56zm3.301 0a.78.78 0 10.001-1.56.78.78 0 00-.001 1.56zm3.3 0a.78.78 0 10.001-1.561.78.78 0 00-.001 1.56zm3.302 0a.78.78 0 10.001-1.56.78.78 0 00-.001 1.56zm3.3 0a.78.78 0 10.001-1.561.78.78 0 00-.001 1.56zm-19.805 2.817a.78.78 0 10.001-1.559.78.78 0 00-.001 1.559zm3.301 0a.78.78 0 100-1.56.78.78 0 000 1.56zm3.301 0a.78.78 0 10.001-1.559.78.78 0 00-.001 1.559zm3.301 0a.78.78 0 10.001-1.559.78.78 0 00-.001 1.559zm3.3 0a.78.78 0 10.001-1.56.78.78 0 00-.001 1.56zm3.302 0a.78.78 0 10.001-1.559.78.78 0 00-.001 1.559zm3.3 0a.78.78 0 10.001-1.56.78.78 0 00-.001 1.56zm-19.805 2.877a.78.78 0 10.001-1.559.78.78 0 00-.001 1.56zm3.301 0a.78.78 0 100-1.56.78.78 0 000 1.56zm3.301 0a.78.78 0 10.001-1.559.78.78 0 00-.001 1.56zm3.301 0a.78.78 0 10.001-1.559.78.78 0 00-.001 1.56zm3.3 0a.78.78 0 10.001-1.56.78.78 0 00-.001 1.56zm3.302 0a.78.78 0 10.001-1.559.78.78 0 00-.001 1.56zm3.3 0a.78.78 0 10.001-1.56.78.78 0 00-.001 1.56zm-19.805 2.877a.78.78 0 100-1.558.78.78 0 000 1.559zm3.301 0a.78.78 0 100-1.56.78.78 0 000 1.56zm3.301 0a.78.78 0 100-1.558.78.78 0 000 1.559zm3.301 0a.78.78 0 100-1.558.78.78 0 000 1.559zm3.3 0a.78.78 0 10.001-1.56.78.78 0 00-.001 1.56zm3.302 0a.78.78 0 100-1.558.78.78 0 000 1.559zm3.3 0a.78.78 0 10.001-1.56.78.78 0 00-.001 1.56z" fill="#86A2C0"/><path fill-rule="evenodd" clip-rule="evenodd" d="M123.574 41.079a2.276 2.276 0 011.592-.646h33.668c.597 0 1.17.232 1.592.646.422.413.659.974.659 1.558v3.449l-15.124 11.843A6.427 6.427 0 01142 59.29a6.426 6.426 0 01-3.96-1.36l-15.125-11.844v-3.448c0-.584.237-1.145.659-1.558zm-.659 9.822v16.461c0 .585.237 1.146.659 1.559.422.413.995.645 1.592.645h33.668c.597 0 1.17-.232 1.592-.645.422-.413.659-.974.659-1.559v-16.46l-12.724 9.964A10.319 10.319 0 01142 63.05c-2.312 0-4.555-.77-6.36-2.184L122.915 50.9zm2.251-14.301a6.233 6.233 0 00-4.36 1.768 5.976 5.976 0 00-1.806 4.27v24.724c0 1.602.65 3.137 1.806 4.27a6.233 6.233 0 004.36 1.768h33.668a6.233 6.233 0 004.36-1.769A5.976 5.976 0 00165 67.362V42.637c0-1.6-.65-3.137-1.806-4.269a6.233 6.233 0 00-4.36-1.768h-33.668z" fill="#fff"/></g><g clip-path="url(#mb)"><path d="M296.78 47.397h-70.208c-4.232 0-7.695 3.418-7.695 7.595v41.776c0 4.178 3.463 7.596 7.695 7.596h8.03l-5.77 16.283 20.197-16.283h47.799c4.232 0 7.694-3.418 7.694-7.596V54.992c-.048-4.177-3.462-7.595-7.742-7.595z" fill="#EA923A"/><path d="M213.443 81.624v-28.53c0-6.22 5.098-11.252 11.397-11.252h22.457m-18.465 68.076h-3.992c-6.299 0-11.397-5.032-11.397-11.251m83.289 11.251h-50.781m13.224-68.075h39.384c6.299 0 11.397 5.032 11.397 11.25v45.574" stroke="#EA923A" stroke-width="2" stroke-miterlimit="10"/><path d="M216.617 63.585v-9.4c0-4.842 3.991-8.782 8.896-8.782h43.76m-38.518 60.955h-5.242c-4.905 0-8.896-3.941-8.896-8.783V72.7m56.118 33.657h-21.88m55.927-8.782c0 4.842-3.991 8.783-8.896 8.783h-21.159m9.954-60.955h11.205c4.905 0 8.896 3.94 8.896 8.782v33.848m-30.055-54.878c1.434 0 2.597-1.148 2.597-2.563 0-1.416-1.163-2.564-2.597-2.564s-2.597 1.148-2.597 2.564c0 1.415 1.163 2.563 2.597 2.563z" stroke="#EA923A" stroke-width="2" stroke-miterlimit="10"/><path d="M251.192 30.924a.621.621 0 00.625-.617.621.621 0 00-.625-.617.621.621 0 00-.625.617c0 .34.28.617.625.617zm2.645 0a.621.621 0 00.625-.617.621.621 0 00-.625-.617.621.621 0 00-.626.617c0 .34.28.617.626.617zm2.645 0a.621.621 0 00.625-.617.621.621 0 00-.625-.617.621.621 0 00-.626.617c0 .34.28.617.626.617zm2.645 0a.621.621 0 00.625-.617.621.621 0 00-.625-.617.621.621 0 00-.626.617c0 .34.28.617.626.617zm2.645 0a.621.621 0 00.625-.617.621.621 0 00-.625-.617.621.621 0 00-.626.617c0 .34.28.617.626.617zm2.644 0a.621.621 0 00.625-.617.621.621 0 00-.625-.617.621.621 0 00-.625.617c0 .34.28.617.625.617zm2.645 0a.621.621 0 00.625-.617.621.621 0 00-.625-.617.621.621 0 00-.625.617c0 .34.28.617.625.617zm-15.869 2.231a.621.621 0 00.625-.617c0-.34-.28-.617-.625-.617a.621.621 0 00-.625.617c0 .34.28.617.625.617zm2.645 0a.621.621 0 00.625-.617c0-.34-.28-.617-.625-.617a.621.621 0 00-.626.617c0 .34.28.617.626.617zm2.645 0a.621.621 0 00.625-.617c0-.34-.28-.617-.625-.617a.621.621 0 00-.626.617c0 .34.28.617.626.617zm2.645 0a.621.621 0 00.625-.617c0-.34-.28-.617-.625-.617a.621.621 0 00-.626.617c0 .34.28.617.626.617zm2.645 0a.621.621 0 00.625-.617c0-.34-.28-.617-.625-.617a.621.621 0 00-.626.617c0 .34.28.617.626.617zm2.644 0a.621.621 0 00.625-.617c0-.34-.28-.617-.625-.617a.621.621 0 00-.625.617c0 .34.28.617.625.617zm2.645 0a.621.621 0 00.625-.617c0-.34-.28-.617-.625-.617a.621.621 0 00-.625.617c0 .34.28.617.625.617zm-15.869 2.279a.621.621 0 00.625-.617.621.621 0 00-.625-.617.621.621 0 00-.625.617c0 .34.28.617.625.617zm2.645 0a.621.621 0 00.625-.617.621.621 0 00-.625-.617.621.621 0 00-.626.617c0 .34.28.617.626.617zm2.645 0a.621.621 0 00.625-.617.621.621 0 00-.625-.617.621.621 0 00-.626.617c0 .34.28.617.626.617zm2.645 0a.621.621 0 00.625-.617.621.621 0 00-.625-.617.621.621 0 00-.626.617c0 .34.28.617.626.617zm2.645 0a.621.621 0 00.625-.617.621.621 0 00-.625-.617.621.621 0 00-.626.617c0 .34.28.617.626.617zm2.644 0a.621.621 0 00.625-.617.621.621 0 00-.625-.617.621.621 0 00-.625.617c0 .34.28.617.625.617zm2.645 0a.621.621 0 00.625-.617.621.621 0 00-.625-.617.621.621 0 00-.625.617c0 .34.28.617.625.617zm-15.869 2.279a.621.621 0 00.625-.618c0-.34-.28-.617-.625-.617a.621.621 0 00-.625.617c0 .341.28.618.625.618zm2.645 0a.621.621 0 00.625-.618c0-.34-.28-.617-.625-.617a.621.621 0 00-.626.617c0 .341.28.618.626.618zm2.645 0a.621.621 0 00.625-.618c0-.34-.28-.617-.625-.617a.621.621 0 00-.626.617c0 .341.28.618.626.618zm2.645 0a.621.621 0 00.625-.618c0-.34-.28-.617-.625-.617a.621.621 0 00-.626.617c0 .341.28.618.626.618zm2.645 0a.621.621 0 00.625-.618c0-.34-.28-.617-.625-.617a.621.621 0 00-.626.617c0 .341.28.618.626.618zm2.644 0a.621.621 0 00.625-.618c0-.34-.28-.617-.625-.617a.621.621 0 00-.625.617c0 .341.28.618.625.618zm2.645 0a.621.621 0 00.625-.618c0-.34-.28-.617-.625-.617a.621.621 0 00-.625.617c0 .341.28.618.625.618z" fill="#EA923A"/><path fill-rule="evenodd" clip-rule="evenodd" d="M249.38 64.918a1.677 1.677 0 011.177-.481h24.885c.441 0 .865.173 1.177.48.312.309.487.727.487 1.162v2.123l-11.224 9.214A4.541 4.541 0 01263 78.453a4.542 4.542 0 01-2.883-1.037l-11.224-9.214V66.08c0-.435.175-.853.487-1.161zm-.487 6.959V84.5c0 .436.175.854.487 1.162.312.308.736.48 1.177.48h24.885c.441 0 .865-.172 1.177-.48.312-.308.487-.726.487-1.162V71.877l-9.477 7.78A7.294 7.294 0 01263 81.322a7.294 7.294 0 01-4.63-1.667l-9.477-7.78zm1.664-10.296a4.589 4.589 0 00-3.223 1.317A4.471 4.471 0 00246 66.08v18.422c0 1.194.48 2.338 1.334 3.181A4.589 4.589 0 00250.557 89h24.885a4.589 4.589 0 003.223-1.318 4.472 4.472 0 001.335-3.18V66.078a4.472 4.472 0 00-1.335-3.18 4.589 4.589 0 00-3.223-1.318h-24.885z" fill="#fff"/></g><g clip-path="url(#mc)"><path d="M24.39 100.383l-4.133 11.705 14.405-11.705h-10.27zm35.645 0H9.25c-2.783 0-5.075-2.243-5.075-5.058V64.493a5.065 5.065 0 015.075-5.057h50.786c2.783 0 5.075 2.243 5.075 5.057v30.832c0 2.814-2.292 5.058-5.075 5.058z" fill="#68A484"/><path d="M.41 75.219v-10.89m66.869 5.466v27.121c0 3.263-2.66 5.914-5.934 5.914h-24.35M7.448 57.03h51.36M13.75 54.42h37.118m-5.933 50.694h26.6m-39.082 9.747c1.22 0 2.21-.986 2.21-2.202 0-1.217-.99-2.203-2.21-2.203s-2.21.986-2.21 2.203c0 1.216.99 2.202 2.21 2.202z" stroke="#68A484" stroke-width="2" stroke-miterlimit="10"/><path d="M48.7 112.128a.53.53 0 10.002-1.062.53.53 0 00-.002 1.062zm0 2.243a.53.53 0 10.002-1.062.53.53 0 00-.002 1.062zm0 2.244a.532.532 0 100-1.063.532.532 0 000 1.063zm0 2.243a.532.532 0 100-1.063.532.532 0 000 1.063zm0 2.243a.532.532 0 100-1.063.532.532 0 000 1.063zm0 2.243a.531.531 0 100-1.063.531.531 0 000 1.063zm0 2.243a.53.53 0 10.002-1.062.53.53 0 00-.002 1.062zm-1.924-13.459a.53.53 0 10-.532-.53c0 .293.238.53.532.53zm0 2.243a.53.53 0 10-.532-.53c0 .293.238.53.532.53zm0 2.244a.532.532 0 100-1.063.532.532 0 000 1.063zm0 2.243a.532.532 0 100-1.063.532.532 0 000 1.063zm0 2.243a.532.532 0 100-1.063.532.532 0 000 1.063zm0 2.243a.531.531 0 10.001-1.063.531.531 0 000 1.063zm0 2.243a.53.53 0 10-.532-.53c0 .293.238.53.532.53zm-1.964-13.459a.53.53 0 10.002-1.062.53.53 0 00-.002 1.062zm0 2.243a.53.53 0 10.002-1.062.53.53 0 00-.002 1.062zm0 2.244a.532.532 0 100-1.063.532.532 0 000 1.063zm0 2.243a.532.532 0 100-1.063.532.532 0 000 1.063zm0 2.243a.532.532 0 100-1.063.532.532 0 000 1.063zm0 2.243a.531.531 0 100-1.063.531.531 0 000 1.063zm0 2.243a.53.53 0 10.002-1.062.53.53 0 00-.002 1.062zm-1.965-13.459a.53.53 0 10-.532-.53c0 .293.239.53.532.53zm0 2.243a.53.53 0 10-.532-.53c0 .293.239.53.532.53zm0 2.244a.532.532 0 10.001-1.063.532.532 0 000 1.063zm0 2.243a.532.532 0 10.001-1.063.532.532 0 000 1.063zm0 2.243a.532.532 0 10.001-1.063.532.532 0 000 1.063zm0 2.243a.531.531 0 10.002-1.063.531.531 0 00-.002 1.063zm0 2.243a.53.53 0 10-.532-.53c0 .293.239.53.532.53z" fill="#68A484"/><path fill-rule="evenodd" clip-rule="evenodd" d="M25.287 72.04c.211-.207.498-.323.796-.323h16.834c.298 0 .585.116.796.323.211.206.33.486.33.779v1.732l-.125-.151-7.5 5.822a3.129 3.129 0 01-1.918.653c-.697 0-1.373-.23-1.918-.653l-7.5-5.822-.125.151V72.82c0-.293.119-.573.33-.78zm-.33 4.575v8.566c0 .293.119.573.33.78.211.206.498.322.796.322h16.834c.298 0 .585-.116.796-.322a1.09 1.09 0 00.33-.78v-8.566l-6.463 5.017a5.025 5.025 0 01-3.08 1.048c-1.12 0-2.206-.37-3.08-1.048l-6.463-5.017zm1.126-6.815c-.818 0-1.602.318-2.18.884A2.987 2.987 0 0023 72.82v12.36c0 .8.325 1.569.903 2.135a3.117 3.117 0 002.18.884h16.834c.818 0 1.602-.318 2.18-.884A2.987 2.987 0 0046 85.18V72.82c0-.8-.325-1.569-.903-2.135a3.117 3.117 0 00-2.18-.884H26.083z" fill="#fff"/></g><defs><clipPath id="ma"><path fill="#fff" transform="translate(83.614)" d="M0 0h116.314v109.522H0z"/></clipPath><clipPath id="mb"><path fill="#fff" transform="translate(212.962 27.553)" d="M0 0h97.474v93.093H0z"/></clipPath><clipPath id="mc"><path fill="#fff" transform="translate(0 54.011)" d="M0 0h71.535v71.535H0z"/></clipPath></defs></symbol><symbol fill="none" viewBox="0 0 22 20" id="like" xmlns="http://www.w3.org/2000/svg"><path d="M0 20h4V8H0v12zM22 9c0-1.1-.9-2-2-2h-6.31l.95-4.57.03-.32c0-.41-.17-.79-.44-1.06L13.17 0 6.59 6.59C6.22 6.95 6 7.45 6 8v10c0 1.1.9 2 2 2h9c.83 0 1.54-.5 1.84-1.22l3.02-7.05c.09-.23.14-.47.14-.73V9z" fill="#32BC7C"/></symbol><symbol fill="none" viewBox="0 0 140 27" id="logo" xmlns="http://www.w3.org/2000/svg"><path d="M5.218 15.743v6.5H1.485V3.76h6.297c1.828 0 3.284.567 4.367 1.701 1.092 1.134 1.638 2.607 1.638 4.418s-.537 3.242-1.612 4.29c-1.075 1.05-2.565 1.575-4.469 1.575H5.218zm0-3.11h2.564c.711 0 1.261-.233 1.65-.698.39-.466.585-1.143.585-2.032 0-.922-.2-1.654-.597-2.196-.398-.55-.931-.83-1.6-.838H5.218v5.764zm17.634 5.827H17.76l-.99 3.783h-3.949L18.6 3.76h3.415l5.814 18.484h-3.986l-.99-3.783zm-4.279-3.11h3.453L20.3 8.76l-1.727 6.59zm23.918 6.893H38.76L33.3 10.119v12.124h-3.732V3.76H33.3l5.472 12.136V3.76h3.72v18.484zm2.996 0V3.76h4.888c2.158 0 3.876.685 5.154 2.056 1.287 1.372 1.943 3.25 1.968 5.637v2.996c0 2.43-.643 4.338-1.93 5.726-1.278 1.38-3.042 2.07-5.294 2.07h-4.786zM49.22 6.87v12.276h1.117c1.244 0 2.12-.325 2.628-.977.508-.66.774-1.794.8-3.402v-3.212c0-1.727-.242-2.929-.724-3.606-.482-.685-1.303-1.045-2.463-1.079H49.22zm19.512 11.59h-5.09l-.99 3.783h-3.949L64.48 3.76h3.415l5.815 18.484h-3.986l-.99-3.783zm-4.278-3.11h3.453l-1.726-6.59-1.727 6.59z" fill="#294C68"/><path d="M78.595 17.827h-1.212v4.416h-2.44V10.157h3.892c1.223 0 2.167.318 2.831.955.67.63 1.004 1.53 1.004 2.698 0 1.604-.583 2.728-1.751 3.37l2.117 4.947v.116h-2.623l-1.818-4.416zm-1.212-2.034h1.386c.487 0 .852-.16 1.096-.481.243-.326.365-.76.365-1.303 0-1.212-.473-1.818-1.42-1.818h-1.427v3.602zm13.206 1.22h-3.801v3.205h4.499v2.025h-6.94V10.157h6.923v2.034h-4.482v2.855h3.801v1.968zm6.043 1.91l2.034-8.766h2.723l-3.487 12.086h-2.54l-3.461-12.086h2.706l2.025 8.766zm8.442 3.32h-2.44V10.157h2.44v12.086zm8.293-5.23h-3.802v3.205h4.499v2.025h-6.939V10.157h6.922v2.034h-4.482v2.855h3.802v1.968zm9.961.74l1.145-7.596h2.416l-2.15 12.086h-2.449l-1.411-7.122-1.395 7.122h-2.457l-2.158-12.086h2.432l1.137 7.587 1.42-7.587h2.05l1.42 7.595zm9.985 1.32c0-.493-.127-.864-.381-1.113-.249-.255-.706-.518-1.37-.789-1.212-.459-2.083-.996-2.615-1.61-.531-.62-.797-1.35-.797-2.191 0-1.019.36-1.835 1.079-2.45.725-.619 1.644-.929 2.756-.929.742 0 1.403.158 1.984.473.581.31 1.027.75 1.337 1.32.315.57.473 1.218.473 1.943h-2.432c0-.565-.122-.994-.366-1.287-.238-.299-.583-.448-1.037-.448-.426 0-.758.127-.996.381-.238.25-.357.587-.357 1.013 0 .332.133.634.398.905.266.266.736.542 1.411.83 1.179.426 2.034.95 2.565 1.569.537.62.806 1.408.806 2.366 0 1.051-.335 1.873-1.005 2.465-.669.592-1.58.888-2.731.888-.78 0-1.491-.16-2.133-.481a3.637 3.637 0 01-1.511-1.378c-.36-.598-.539-1.303-.539-2.117h2.448c0 .697.136 1.204.407 1.52.271.315.714.472 1.328.472.852 0 1.278-.45 1.278-1.353z" fill="#323232"/></symbol><symbol fill="none" viewBox="0 0 20 4" id="minus" xmlns="http://www.w3.org/2000/svg"><path d="M18 2H2" stroke="#000" stroke-width="3" stroke-linecap="round"/></symbol><symbol fill="none" viewBox="0 0 107 100" id="question-1" xmlns="http://www.w3.org/2000/svg"><g clip-path="url(#qa)"><path d="M39.236 81.883l6.138 17.515-21.427-17.515h15.29zm50.251 0H16.111c-4.823 0-8.768-3.941-8.768-8.758V29.447c0-4.816 3.945-8.757 8.768-8.757h73.322c4.822 0 8.767 3.94 8.767 8.757v43.678c.055 4.817-3.89 8.758-8.713 8.758z" fill="#86A2C0"/><path d="M55.183 59.059h-8.385v-4.16c0-1.533.22-2.627.603-3.394.384-.766 1.206-1.751 2.466-3.065l3.727-3.831c.548-.657.822-1.533.822-2.573s-.274-1.916-.877-2.627c-.603-.712-1.37-1.04-2.302-1.04-.931 0-1.753.438-2.41 1.259-.658.82-1.042 1.916-1.206 3.284h-8.769c.384-3.667 1.754-6.568 4.056-8.648 2.301-2.08 5.15-3.12 8.603-3.12 3.453 0 6.247.93 8.385 2.791 2.137 1.861 3.233 4.489 3.233 7.773 0 1.478-.165 2.572-.548 3.284-.384.711-.603 1.259-.767 1.532-.165.329-.494.767-1.042 1.423-.548.603-.876 1.04-1.096 1.205-.876.876-1.698 1.697-2.52 2.463-.768.766-1.316 1.423-1.59 1.916-.274.492-.383 1.258-.383 2.244v3.284zM47.62 69.568c-.931-.93-1.424-2.08-1.424-3.449 0-1.368.493-2.517 1.425-3.448.931-.93 2.082-1.423 3.452-1.423s2.52.493 3.452 1.423c.932.93 1.425 2.08 1.425 3.448 0 1.369-.493 2.518-1.425 3.449-.931.93-2.082 1.423-3.452 1.423-1.315 0-2.466-.493-3.453-1.423z" fill="#fff"/><path d="M3.945 73.344V29.228c0-6.458 5.261-11.713 11.727-11.713h28.99m3.342 67.543h41.922c6.466 0 11.672-5.255 11.672-11.659v-44.17M42.415 9.305H106.2m-76.389 4.05h68.445M.548 48.714v39.573M18.96 99.453a2.957 2.957 0 002.96-2.956 2.957 2.957 0 00-2.96-2.956 2.957 2.957 0 00-2.959 2.956 2.957 2.957 0 002.96 2.956z" stroke="#86A2C0" stroke-width="2" stroke-miterlimit="10"/><path d="M15.234 1.423A.712.712 0 1015.235 0a.712.712 0 000 1.424zm3.014 0A.712.712 0 1018.25 0a.712.712 0 000 1.424zm3.014 0A.712.712 0 1021.263 0a.712.712 0 000 1.424zm3.014 0A.712.712 0 1024.277 0a.712.712 0 000 1.424zm3.014 0a.712.712 0 100-1.424.712.712 0 000 1.424zm3.014 0A.712.712 0 1030.305 0a.712.712 0 000 1.424zm3.014 0A.712.712 0 1033.32 0a.712.712 0 000 1.424zM15.234 3.996a.712.712 0 10.001-1.424.712.712 0 000 1.424zm3.014 0a.712.712 0 10.001-1.424.712.712 0 000 1.424zm3.014 0a.712.712 0 10.001-1.424.712.712 0 000 1.424zm3.014 0a.712.712 0 10.001-1.424.712.712 0 000 1.424zm3.014 0a.712.712 0 100-1.424.712.712 0 000 1.424zm3.014 0a.712.712 0 10.001-1.424.712.712 0 000 1.424zm3.014 0a.712.712 0 10.001-1.424.712.712 0 000 1.424zM15.234 6.623a.712.712 0 10.001-1.424.712.712 0 000 1.424zm3.014 0a.712.712 0 10.001-1.424.712.712 0 000 1.424zm3.014 0a.712.712 0 10.001-1.424.712.712 0 000 1.424zm3.014 0a.712.712 0 10.001-1.424.712.712 0 000 1.424zm3.014 0a.712.712 0 100-1.424.712.712 0 000 1.424zm3.014 0a.712.712 0 10.001-1.424.712.712 0 000 1.424zm3.014 0a.712.712 0 10.001-1.424.712.712 0 000 1.424zM15.234 9.25a.712.712 0 10.001-1.424.712.712 0 000 1.424zm3.014 0a.712.712 0 10.001-1.424.712.712 0 000 1.424zm3.014 0a.712.712 0 10.001-1.424.712.712 0 000 1.424zm3.014 0a.712.712 0 10.001-1.424.712.712 0 000 1.424zm3.014 0a.712.712 0 100-1.424.712.712 0 000 1.424zm3.014 0a.712.712 0 10.001-1.424.712.712 0 000 1.424zm3.014 0a.712.712 0 10.001-1.424.712.712 0 000 1.424z" fill="#86A2C0"/></g><defs><clipPath id="qa"><path fill="#fff" d="M0 0h106.202v100H0z"/></clipPath></defs></symbol><symbol fill="none" viewBox="0 0 105 100" id="question-2" xmlns="http://www.w3.org/2000/svg"><g clip-path="url(#ra)"><path d="M89.456 21.316H14.524c-4.516 0-8.211 3.671-8.211 8.159V74.35c0 4.487 3.695 8.159 8.211 8.159h8.571L16.936 100l21.556-17.491h51.015c4.517 0 8.212-3.672 8.212-8.16V29.476a8.254 8.254 0 00-8.263-8.16z" fill="#EA923A"/><path d="M.513 58.083V27.435c0-6.68 5.44-12.086 12.164-12.086h23.968M16.937 88.475h-4.26C5.953 88.475.513 83.07.513 76.39m88.892 12.085H35.208M49.322 15.35h42.034c6.723 0 12.163 5.405 12.163 12.085V76.39" stroke="#EA923A" stroke-width="2" stroke-miterlimit="10"/><path d="M3.9 38.705V28.608c0-5.201 4.26-9.434 9.495-9.434H60.1M18.99 84.65h-5.595c-5.235 0-9.495-4.232-9.495-9.433V48.496M63.795 84.65H40.443m59.689-9.433c0 5.201-4.26 9.434-9.495 9.434H68.055m10.624-65.477h11.958c5.235 0 9.495 4.233 9.495 9.434v36.359" stroke="#EA923A" stroke-width="2" stroke-miterlimit="10"/><path d="M54.402 59.663h-8.417v-4.13c0-1.53.206-2.652.565-3.366.41-.765 1.232-1.785 2.464-3.06l3.797-3.875c.565-.663.822-1.53.822-2.55 0-1.02-.308-1.938-.873-2.6-.616-.714-1.386-1.071-2.31-1.071-.975 0-1.744.408-2.412 1.223-.667.816-1.026 1.938-1.18 3.264h-8.879c.41-3.671 1.745-6.578 4.054-8.669 2.31-2.09 5.184-3.162 8.623-3.162 3.438 0 6.261.918 8.417 2.805 2.155 1.887 3.233 4.488 3.233 7.751 0 1.48-.205 2.55-.564 3.264l-.77 1.53c-.154.306-.513.765-1.027 1.428-.513.612-.872 1.02-1.077 1.224l-2.515 2.498c-.821.765-1.335 1.428-1.591 1.887-.257.51-.41 1.224-.41 2.244v3.365h.05zm-7.544 10.505c-.924-.918-1.437-2.09-1.437-3.467 0-1.377.462-2.5 1.437-3.468.924-.918 2.104-1.428 3.49-1.428 1.386 0 2.515.46 3.49 1.428.924.918 1.437 2.09 1.437 3.468 0 1.377-.462 2.498-1.437 3.467-.924.918-2.104 1.428-3.49 1.428-1.437 0-2.566-.459-3.49-1.428z" fill="#fff"/><path d="M68.055 6.017a2.763 2.763 0 002.771-2.753A2.762 2.762 0 0068.055.51a2.763 2.763 0 00-2.772 2.754 2.763 2.763 0 002.772 2.753z" stroke="#EA923A" stroke-width="2" stroke-miterlimit="10"/><path d="M40.802 3.62a.665.665 0 00.667-.662.665.665 0 00-.667-.663.665.665 0 00-.667.663c0 .366.299.663.667.663zm2.823 0a.665.665 0 00.667-.662.665.665 0 00-.667-.663.665.665 0 00-.667.663c0 .366.298.663.667.663zm2.822 0a.665.665 0 00.668-.662.665.665 0 00-.668-.663.665.665 0 00-.667.663c0 .366.299.663.667.663zm2.823 0a.665.665 0 00.667-.662.665.665 0 00-.667-.663.665.665 0 00-.667.663c0 .366.299.663.667.663zm2.823 0a.665.665 0 00.667-.662.665.665 0 00-.667-.663.665.665 0 00-.667.663c0 .366.298.663.667.663zm2.823 0a.665.665 0 00.667-.662.665.665 0 00-.667-.663.665.665 0 00-.667.663c0 .366.298.663.667.663zm2.823 0a.665.665 0 00.667-.662.665.665 0 00-.667-.663.665.665 0 00-.668.663c0 .366.299.663.668.663zM40.802 6.018a.665.665 0 00.667-.663.665.665 0 00-.667-.663.665.665 0 00-.667.663c0 .366.299.662.667.662zm2.823 0a.665.665 0 00.667-.663.665.665 0 00-.667-.663.665.665 0 00-.667.663c0 .366.298.662.667.662zm2.822 0a.665.665 0 00.668-.663.665.665 0 00-.668-.663.665.665 0 00-.667.663c0 .366.299.662.667.662zm2.823 0a.665.665 0 00.667-.663.665.665 0 00-.667-.663.665.665 0 00-.667.663c0 .366.299.662.667.662zm2.823 0a.665.665 0 00.667-.663.665.665 0 00-.667-.663.665.665 0 00-.667.663c0 .366.298.662.667.662zm2.823 0a.665.665 0 00.667-.663.665.665 0 00-.667-.663.665.665 0 00-.667.663c0 .366.298.662.667.662zm2.823 0a.665.665 0 00.667-.663.665.665 0 00-.667-.663.665.665 0 00-.668.663c0 .366.299.662.668.662zM40.802 8.465a.665.665 0 00.667-.663.665.665 0 00-.667-.663.665.665 0 00-.667.663c0 .366.299.663.667.663zm2.823 0a.665.665 0 00.667-.663.665.665 0 00-.667-.663.665.665 0 00-.667.663c0 .366.298.663.667.663zm2.822 0a.665.665 0 00.668-.663.665.665 0 00-.668-.663.665.665 0 00-.667.663c0 .366.299.663.667.663zm2.823 0a.665.665 0 00.667-.663.665.665 0 00-.667-.663.665.665 0 00-.667.663c0 .366.299.663.667.663zm2.823 0a.665.665 0 00.667-.663.665.665 0 00-.667-.663.665.665 0 00-.667.663c0 .366.298.663.667.663zm2.823 0a.665.665 0 00.667-.663.665.665 0 00-.667-.663.665.665 0 00-.667.663c0 .366.298.663.667.663zm2.823 0a.665.665 0 00.667-.663.665.665 0 00-.667-.663.665.665 0 00-.668.663c0 .366.299.663.668.663zm-16.937 2.448a.665.665 0 00.667-.663.665.665 0 00-.667-.663.665.665 0 00-.667.663c0 .366.299.663.667.663zm2.823 0a.665.665 0 00.667-.663.665.665 0 00-.667-.663.665.665 0 00-.667.663c0 .366.298.663.667.663zm2.822 0a.665.665 0 00.668-.663.665.665 0 00-.668-.663.665.665 0 00-.667.663c0 .366.299.663.667.663zm2.823 0a.665.665 0 00.667-.663.665.665 0 00-.667-.663.665.665 0 00-.667.663c0 .366.299.663.667.663zm2.823 0a.665.665 0 00.667-.663.665.665 0 00-.667-.663.665.665 0 00-.667.663c0 .366.298.663.667.663zm2.823 0a.665.665 0 00.667-.663.665.665 0 00-.667-.663.665.665 0 00-.667.663c0 .366.298.663.667.663zm2.823 0a.665.665 0 00.667-.663.665.665 0 00-.667-.663.665.665 0 00-.668.663c0 .366.299.663.668.663z" fill="#EA923A"/></g><defs><clipPath id="ra"><path fill="#fff" d="M0 0h104.032v100H0z"/></clipPath></defs></symbol><symbol fill="none" viewBox="0 0 100 100" id="question-3" xmlns="http://www.w3.org/2000/svg"><g clip-path="url(#sa)"><path d="M34.096 64.823l-5.778 16.363 20.138-16.363h-14.36zm49.829 0H12.929c-3.89 0-7.094-3.136-7.094-7.07v-43.1c0-3.878 3.147-7.07 7.094-7.07h70.996c3.89 0 7.094 3.135 7.094 7.07v43.1c0 3.934-3.204 7.07-7.094 7.07z" fill="#68A484"/><path d="M.572 29.646V14.424m93.478 7.64v37.913c0 4.561-3.718 8.267-8.295 8.267H51.716M10.412 4.219H82.21" stroke="#68A484" stroke-width="2" stroke-miterlimit="10"/><path d="M50.687 43.5h-7.895v-3.876c0-1.426.172-2.452.515-3.193.343-.684 1.144-1.653 2.288-2.85l3.49-3.592c.515-.628.8-1.426.8-2.395 0-.97-.285-1.767-.8-2.452-.572-.627-1.259-.969-2.174-.969s-1.659.4-2.231 1.14c-.63.799-.973 1.768-1.087 3.08h-8.238c.4-3.422 1.659-6.158 3.776-8.097 2.116-1.938 4.805-2.964 8.066-2.964 3.204 0 5.835.855 7.838 2.622 2.002 1.768 3.032 4.162 3.032 7.241 0 1.368-.172 2.395-.515 3.079-.343.684-.572 1.14-.744 1.425-.114.285-.458.741-.972 1.311-.515.57-.859.97-1.03 1.14l-2.346 2.338c-.743.741-1.258 1.311-1.487 1.767-.229.456-.343 1.14-.343 2.11V43.5h.057zm-7.094 9.807c-.858-.855-1.316-1.939-1.316-3.193s.458-2.337 1.316-3.193c.858-.855 1.945-1.311 3.204-1.311 1.258 0 2.345.456 3.203 1.311.858.855 1.316 1.939 1.316 3.193s-.458 2.338-1.316 3.193c-.858.855-1.945 1.311-3.203 1.311-1.259 0-2.289-.456-3.204-1.311z" fill="#fff"/><path d="M19.222.57H71.11m-8.295 70.867H100M45.366 85.063a3.084 3.084 0 003.09-3.079c0-1.7-1.384-3.079-3.09-3.079a3.084 3.084 0 00-3.09 3.079c0 1.7 1.384 3.079 3.09 3.079z" stroke="#68A484" stroke-width="2" stroke-miterlimit="10"/><path d="M68.078 81.243c.41 0 .743-.332.743-.741a.742.742 0 00-.743-.742.742.742 0 00-.744.742c0 .409.333.74.744.74zm0 3.136a.743.743 0 100-1.482.743.743 0 00-.744.74c0 .41.333.742.744.742zm0 3.135c.41 0 .743-.331.743-.74a.742.742 0 00-.743-.742.742.742 0 00-.744.741c0 .41.333.741.744.741zm0 3.136c.41 0 .743-.332.743-.741a.742.742 0 00-.743-.742.742.742 0 00-.744.742c0 .409.333.74.744.74zm0 3.136a.743.743 0 100-1.482.743.743 0 00-.744.74c0 .41.333.742.744.742zm0 3.135c.41 0 .743-.332.743-.74a.742.742 0 00-.743-.742.742.742 0 00-.744.741c0 .41.333.741.744.741zm0 3.136c.41 0 .743-.332.743-.741a.742.742 0 00-.743-.741.742.742 0 00-.744.74c0 .41.333.742.744.742zM65.39 81.243a.742.742 0 100-1.483.742.742 0 00-.745.742c0 .409.334.74.744.74zm0 3.136a.742.742 0 100-1.483.743.743 0 00-.745.741c0 .41.334.742.744.742zm0 3.135a.742.742 0 100-1.482.742.742 0 00-.745.741c0 .41.334.741.744.741zm0 3.136a.742.742 0 100-1.483.742.742 0 00-.745.742c0 .409.334.74.744.74zm0 3.136a.742.742 0 100-1.483.743.743 0 00-.745.741c0 .41.334.742.744.742zm0 3.135a.742.742 0 100-1.482.742.742 0 00-.745.741c0 .41.334.741.744.741zm0 3.136a.742.742 0 100-1.482.742.742 0 00-.745.74c0 .41.334.742.744.742zm-2.747-18.814a.742.742 0 100-1.483.742.742 0 00-.744.742c0 .409.333.74.744.74zm0 3.136a.742.742 0 100-1.483.743.743 0 00-.744.741c0 .41.333.742.744.742zm0 3.135a.742.742 0 100-1.482.742.742 0 00-.744.741c0 .41.333.741.744.741zm0 3.136a.742.742 0 100-1.483.742.742 0 00-.744.742c0 .409.333.74.744.74zm0 3.136a.742.742 0 100-1.483.743.743 0 00-.744.741c0 .41.333.742.744.742zm0 3.135a.742.742 0 100-1.482.742.742 0 00-.744.741c0 .41.333.741.744.741zm0 3.136a.742.742 0 100-1.482.742.742 0 00-.744.74c0 .41.333.742.744.742zm-2.746-18.814a.742.742 0 100-1.483.742.742 0 00-.744.742c0 .409.333.74.744.74zm0 3.136a.742.742 0 100-1.483.743.743 0 00-.744.741c0 .41.333.742.744.742zm0 3.135a.742.742 0 100-1.482.742.742 0 00-.744.741c0 .41.333.741.744.741zm0 3.136a.742.742 0 100-1.483.742.742 0 00-.744.742c0 .409.333.74.744.74zm0 3.136a.742.742 0 100-1.483.743.743 0 00-.744.741c0 .41.333.742.744.742zm0 3.135a.742.742 0 100-1.482.742.742 0 00-.744.741c0 .41.333.741.744.741zm0 3.136a.742.742 0 100-1.482.742.742 0 00-.744.74c0 .41.333.742.744.742z" fill="#68A484"/></g><defs><clipPath id="sa"><path fill="#fff" d="M0 0h100v100H0z"/></clipPath></defs></symbol><symbol fill="none" viewBox="0 0 152 269" id="question-4" xmlns="http://www.w3.org/2000/svg"><g clip-path="url(#ta)"><path d="M43.852 248.398l6.86 19.576-23.947-19.576h17.087zm56.164 0h-82.01c-5.39 0-9.799-4.404-9.799-9.787v-48.817c0-5.383 4.41-9.788 9.8-9.788h81.947c5.39 0 9.8 4.405 9.8 9.788v48.817c.061 5.383-4.349 9.787-9.738 9.787z" fill="#86A2C0"/><path d="M61.675 222.889h-9.37v-4.649c0-1.713.245-2.937.673-3.793.429-.856 1.348-1.958 2.756-3.426l4.165-4.282c.613-.734.919-1.713.919-2.875s-.306-2.141-.98-2.936c-.674-.796-1.531-1.163-2.572-1.163-1.042 0-1.96.49-2.695 1.407-.735.918-1.164 2.141-1.348 3.671h-9.8c.43-4.099 1.96-7.341 4.533-9.666 2.572-2.324 5.757-3.487 9.616-3.487 3.858 0 6.982 1.04 9.37 3.12 2.39 2.08 3.614 5.016 3.614 8.687 0 1.652-.184 2.875-.612 3.67-.43.796-.674 1.407-.858 1.713-.184.367-.551.857-1.163 1.591-.613.673-.98 1.162-1.225 1.346-.98.978-1.9 1.896-2.818 2.752-.857.857-1.47 1.591-1.776 2.141-.306.551-.429 1.407-.429 2.509v3.67zm-8.452 11.745c-1.04-1.04-1.592-2.324-1.592-3.854 0-1.529.551-2.814 1.592-3.854 1.041-1.039 2.328-1.59 3.859-1.59 1.531 0 2.817.551 3.858 1.59 1.041 1.04 1.593 2.325 1.593 3.854 0 1.53-.552 2.814-1.593 3.854-1.04 1.04-2.327 1.591-3.858 1.591-1.47 0-2.756-.551-3.859-1.591z" fill="#fff"/><path d="M4.41 238.855v-49.306c0-7.218 5.88-13.091 13.106-13.091h32.4m3.736 75.489h46.853c7.228 0 13.046-5.873 13.046-13.03v-49.368m-66.146-22.267h71.291m-85.378 4.527h76.497M.612 211.327v44.229m20.579 12.479a3.305 3.305 0 003.307-3.303 3.305 3.305 0 00-3.307-3.304 3.305 3.305 0 00-3.307 3.304 3.305 3.305 0 003.307 3.303z" stroke="#86A2C0" stroke-width="2" stroke-miterlimit="10"/><path d="M17.026 158.473a.796.796 0 10.001-1.591.796.796 0 000 1.591zm3.369 0a.796.796 0 10.001-1.591.796.796 0 00-.001 1.591zm3.369 0a.796.796 0 100-1.591.796.796 0 000 1.591zm3.368 0a.796.796 0 100-1.591.796.796 0 000 1.591zm3.368 0a.796.796 0 10.001-1.591.796.796 0 000 1.591zm3.369 0a.796.796 0 10.001-1.591.796.796 0 00-.001 1.591zm3.369 0a.796.796 0 100-1.591.796.796 0 000 1.591zm-20.212 2.875a.796.796 0 10.001-1.591.796.796 0 000 1.591zm3.369 0a.796.796 0 10.001-1.591.796.796 0 00-.001 1.591zm3.369 0a.796.796 0 100-1.591.796.796 0 000 1.591zm3.368 0a.796.796 0 100-1.591.796.796 0 000 1.591zm3.368 0a.796.796 0 10.001-1.591.796.796 0 000 1.591zm3.369 0a.796.796 0 10.001-1.591.796.796 0 00-.001 1.591zm3.369 0a.796.796 0 100-1.591.796.796 0 000 1.591zm-20.212 2.936a.796.796 0 10.001-1.591.796.796 0 000 1.591zm3.369 0a.796.796 0 10.001-1.591.796.796 0 00-.001 1.591zm3.369 0a.796.796 0 100-1.591.796.796 0 000 1.591zm3.368 0a.796.796 0 100-1.591.796.796 0 000 1.591zm3.368 0a.796.796 0 10.001-1.591.796.796 0 000 1.591zm3.369 0a.796.796 0 10.001-1.591.796.796 0 00-.001 1.591zm3.369 0a.796.796 0 100-1.591.796.796 0 000 1.591zm-20.212 2.937a.796.796 0 100-1.592.796.796 0 000 1.592zm3.369 0a.796.796 0 100-1.592.796.796 0 000 1.592zm3.369 0a.796.796 0 100-1.592.796.796 0 000 1.592zm3.368 0a.796.796 0 100-1.592.796.796 0 000 1.592zm3.368 0a.796.796 0 10.001-1.592.796.796 0 000 1.592zm3.369 0a.796.796 0 100-1.592.796.796 0 000 1.592zm3.369 0a.796.796 0 100-1.592.796.796 0 000 1.592z" fill="#86A2C0"/></g><g clip-path="url(#tb)"><path d="M138.063 83.25H66.417c-4.318 0-7.852 3.488-7.852 7.751v42.631c0 4.263 3.534 7.751 7.852 7.751h8.195L68.724 158l20.61-16.617h48.778c4.319 0 7.852-3.488 7.852-7.751V91.001c-.049-4.263-3.533-7.751-7.901-7.751z" fill="#EA923A"/><path d="M53.02 118.178V89.063c0-6.346 5.202-11.481 11.63-11.481h22.917m-18.844 69.47H64.65c-6.428 0-11.63-5.136-11.63-11.482m84.994 11.482h-51.82m13.495-69.47h40.19c6.429 0 11.63 5.135 11.63 11.481v46.507" stroke="#EA923A" stroke-width="2" stroke-miterlimit="10"/><path d="M56.259 99.77v-9.593c0-4.94 4.073-8.962 9.078-8.962h44.657m-39.308 62.203h-5.349c-5.005 0-9.078-4.021-9.078-8.962v-25.385m57.268 34.347H91.199m57.071-8.962c0 4.941-4.073 8.962-9.078 8.962H117.6m10.158-62.203h11.434c5.005 0 9.078 4.021 9.078 8.962v34.542" stroke="#EA923A" stroke-width="2" stroke-miterlimit="10"/><path d="M104.547 119.68h-8.048v-3.924c0-1.453.196-2.519.54-3.197.392-.727 1.177-1.696 2.355-2.907l3.631-3.682c.54-.629.785-1.453.785-2.422 0-.969-.294-1.841-.834-2.47-.589-.679-1.325-1.018-2.208-1.018-.932 0-1.668.388-2.306 1.163-.638.775-.982 1.841-1.13 3.1h-8.489c.393-3.488 1.669-6.249 3.877-8.235 2.208-1.986 4.956-3.004 8.244-3.004 3.288 0 5.987.872 8.048 2.665 2.061 1.792 3.092 4.263 3.092 7.363 0 1.405-.197 2.422-.54 3.101a981.36 981.36 0 00-.736 1.453c-.147.291-.491.727-.982 1.356-.49.582-.834.969-1.03 1.163l-2.405 2.374c-.785.727-1.276 1.356-1.521 1.792-.245.485-.393 1.163-.393 2.132v3.197h.05zm-7.214 9.98a4.503 4.503 0 01-1.374-3.294c0-1.308.441-2.374 1.374-3.295.883-.872 2.012-1.356 3.337-1.356 1.325 0 2.404.436 3.337 1.356a4.506 4.506 0 011.374 3.295c0 1.308-.442 2.373-1.374 3.294-.884.872-2.012 1.356-3.337 1.356-1.374 0-2.454-.436-3.337-1.356z" fill="#fff"/><path d="M117.6 68.716c1.463 0 2.65-1.17 2.65-2.616 0-1.444-1.187-2.616-2.65-2.616-1.464 0-2.65 1.172-2.65 2.616 0 1.445 1.186 2.617 2.65 2.617z" stroke="#EA923A" stroke-width="2" stroke-miterlimit="10"/><path d="M91.542 66.44a.634.634 0 00.638-.63.634.634 0 00-.638-.63.634.634 0 00-.638.63c0 .348.286.63.638.63zm2.7 0a.634.634 0 00.637-.63.634.634 0 00-.638-.63.634.634 0 00-.638.63c0 .348.286.63.639.63zm2.698 0a.634.634 0 00.638-.63.634.634 0 00-.638-.63.634.634 0 00-.638.63c0 .348.286.63.638.63zm2.7 0a.634.634 0 00.637-.63.634.634 0 00-.638-.63.634.634 0 00-.638.63c0 .348.286.63.638.63zm2.698 0a.634.634 0 00.638-.63.634.634 0 00-.638-.63.634.634 0 00-.638.63c0 .348.286.63.638.63zm2.699 0a.634.634 0 00.638-.63.634.634 0 00-.638-.63.634.634 0 00-.638.63c0 .348.286.63.638.63zm2.699 0a.634.634 0 00.638-.63.634.634 0 00-.638-.63.634.634 0 00-.638.63c0 .348.286.63.638.63zm-16.194 2.276a.634.634 0 00.638-.63.634.634 0 00-.638-.63.634.634 0 00-.638.63c0 .349.286.63.638.63zm2.7 0a.634.634 0 00.637-.63.634.634 0 00-.638-.63.634.634 0 00-.638.63c0 .349.286.63.639.63zm2.698 0a.634.634 0 00.638-.63.634.634 0 00-.638-.63.634.634 0 00-.638.63c0 .349.286.63.638.63zm2.7 0a.634.634 0 00.637-.63.634.634 0 00-.638-.63.634.634 0 00-.638.63c0 .349.286.63.638.63zm2.698 0a.634.634 0 00.638-.63.634.634 0 00-.638-.63.634.634 0 00-.638.63c0 .349.286.63.638.63zm2.699 0a.634.634 0 00.638-.63.634.634 0 00-.638-.63.634.634 0 00-.638.63c0 .349.286.63.638.63zm2.699 0a.634.634 0 00.638-.63.634.634 0 00-.638-.63.634.634 0 00-.638.63c0 .349.286.63.638.63zm-16.194 2.326a.634.634 0 00.638-.63.634.634 0 00-.638-.63.634.634 0 00-.638.63c0 .348.286.63.638.63zm2.7 0a.634.634 0 00.637-.63.634.634 0 00-.638-.63.634.634 0 00-.638.63c0 .348.286.63.639.63zm2.698 0a.634.634 0 00.638-.63.634.634 0 00-.638-.63.634.634 0 00-.638.63c0 .348.286.63.638.63zm2.7 0a.634.634 0 00.637-.63.634.634 0 00-.638-.63.634.634 0 00-.638.63c0 .348.286.63.638.63zm2.698 0a.634.634 0 00.638-.63.634.634 0 00-.638-.63.634.634 0 00-.638.63c0 .348.286.63.638.63zm2.699 0a.634.634 0 00.638-.63.634.634 0 00-.638-.63.634.634 0 00-.638.63c0 .348.286.63.638.63zm2.699 0a.634.634 0 00.638-.63.634.634 0 00-.638-.63.634.634 0 00-.638.63c0 .348.286.63.638.63zm-16.194 2.325a.634.634 0 00.638-.63.634.634 0 00-.638-.63.634.634 0 00-.638.63c0 .348.286.63.638.63zm2.7 0a.634.634 0 00.637-.63.634.634 0 00-.638-.63.634.634 0 00-.638.63c0 .348.286.63.639.63zm2.698 0a.634.634 0 00.638-.63.634.634 0 00-.638-.63.634.634 0 00-.638.63c0 .348.286.63.638.63zm2.7 0a.634.634 0 00.637-.63.634.634 0 00-.638-.63.634.634 0 00-.638.63c0 .348.286.63.638.63zm2.698 0a.634.634 0 00.638-.63.634.634 0 00-.638-.63.634.634 0 00-.638.63c0 .348.286.63.638.63zm2.699 0a.634.634 0 00.638-.63.634.634 0 00-.638-.63.634.634 0 00-.638.63c0 .348.286.63.638.63zm2.699 0a.634.634 0 00.638-.63.634.634 0 00-.638-.63.634.634 0 00-.638.63c0 .348.286.63.638.63z" fill="#EA923A"/></g><g clip-path="url(#tc)"><path d="M28.89 47.321l-4.218 11.945 14.7-11.945H28.89zm36.375 0H13.438c-2.84 0-5.178-2.29-5.178-5.16V10.695c0-2.83 2.297-5.16 5.178-5.16h51.827c2.84 0 5.178 2.288 5.178 5.16V42.16c0 2.872-2.338 5.161-5.178 5.161z" fill="#68A484"/><path d="M4.417 21.642V10.53m68.24 5.577v27.676c0 3.33-2.715 6.035-6.056 6.035H41.753M11.6 3.08h52.412" stroke="#68A484" stroke-width="2" stroke-miterlimit="10"/><path d="M41 31.755h-5.762v-2.83c0-1.04.125-1.79.376-2.33.25-.5.835-1.207 1.67-2.081l2.547-2.622c.376-.458.585-1.04.585-1.748s-.209-1.29-.584-1.79c-.418-.458-.92-.707-1.587-.707-.669 0-1.212.29-1.63.832-.459.583-.71 1.29-.793 2.247H29.81c.292-2.497 1.21-4.494 2.756-5.91 1.545-1.415 3.508-2.164 5.888-2.164 2.339 0 4.26.625 5.722 1.915 1.461 1.29 2.213 3.038 2.213 5.285 0 1-.125 1.748-.376 2.248-.25.5-.417.832-.543 1.04-.083.208-.334.541-.71.957-.376.417-.626.708-.751.833l-1.713 1.706c-.543.541-.918.957-1.085 1.29-.167.333-.251.833-.251 1.54v2.29h.042zm-5.178 7.159a3.198 3.198 0 01-.96-2.33 3.2 3.2 0 01.96-2.331 3.22 3.22 0 012.339-.958 3.22 3.22 0 012.339.958c.626.624.96 1.415.96 2.33 0 .916-.334 1.707-.96 2.33a3.22 3.22 0 01-2.339.958c-.919 0-1.67-.333-2.339-.957z" fill="#fff"/><path d="M18.032.416H55.91m-6.055 51.733H77m-39.883 9.947a2.251 2.251 0 002.255-2.248 2.251 2.251 0 00-2.255-2.247 2.251 2.251 0 00-2.255 2.247 2.251 2.251 0 002.255 2.248z" stroke="#68A484" stroke-width="2" stroke-miterlimit="10"/><path d="M53.697 59.307a.542.542 0 10.002-1.084.542.542 0 00-.002 1.084zm0 2.289a.542.542 0 10.002-1.084.542.542 0 00-.002 1.084zm0 2.289a.542.542 0 10.002-1.083.542.542 0 00-.002 1.083zm0 2.289a.542.542 0 10.002-1.083.542.542 0 00-.002 1.084zm0 2.289a.542.542 0 10.002-1.083.542.542 0 00-.002 1.084zm0 2.29a.542.542 0 10.002-1.084.542.542 0 00-.002 1.084zm0 2.289a.542.542 0 10.002-1.084.542.542 0 00-.002 1.084zm-1.963-13.735a.542.542 0 10.002-1.084.542.542 0 00-.002 1.084zm0 2.289a.542.542 0 10.002-1.084.542.542 0 00-.002 1.084zm0 2.289a.542.542 0 10.002-1.083.542.542 0 00-.002 1.083zm0 2.289a.542.542 0 10.002-1.083.542.542 0 00-.002 1.084zm0 2.289a.542.542 0 10.002-1.083.542.542 0 00-.002 1.084zm0 2.29a.542.542 0 10.002-1.084.542.542 0 00-.002 1.084zm0 2.289a.542.542 0 10.002-1.084.542.542 0 00-.002 1.084zm-2.005-13.735a.542.542 0 10.002-1.084.542.542 0 00-.002 1.084zm0 2.289a.542.542 0 10.002-1.084.542.542 0 00-.002 1.084zm0 2.289a.542.542 0 10.002-1.083.542.542 0 00-.002 1.083zm0 2.289a.542.542 0 10.002-1.083.542.542 0 00-.002 1.084zm0 2.289a.542.542 0 10.002-1.083.542.542 0 00-.002 1.084zm0 2.29a.542.542 0 10.002-1.084.542.542 0 00-.002 1.084zm0 2.289a.542.542 0 10.002-1.084.542.542 0 00-.002 1.084zm-2.005-13.735a.542.542 0 10.003-1.084.542.542 0 00-.002 1.084zm0 2.289a.542.542 0 10.002-1.084.542.542 0 00-.002 1.084zm0 2.289a.542.542 0 10.003-1.084.542.542 0 00-.002 1.084zm0 2.289a.542.542 0 10.003-1.083.542.542 0 00-.002 1.084zm0 2.289a.542.542 0 10.003-1.083.542.542 0 00-.002 1.084zm0 2.29a.542.542 0 10.002-1.085.542.542 0 00-.002 1.085zm0 2.289a.542.542 0 10.003-1.084.542.542 0 00-.002 1.084z" fill="#68A484"/></g><defs><clipPath id="ta"><path fill="#fff" transform="translate(0 156.882)" d="M0 0h118.696v111.765H0z"/></clipPath><clipPath id="tb"><path fill="#fff" transform="translate(52.53 63)" d="M0 0h99.471v95H0z"/></clipPath><clipPath id="tc"><path fill="#fff" transform="translate(4)" d="M0 0h73v73H0z"/></clipPath></defs></symbol><symbol fill="none" viewBox="0 0 320 130" id="question-5" xmlns="http://www.w3.org/2000/svg"><g clip-path="url(#ua)"><path d="M130.29 92.537l6.936 19.794-24.215-19.794h17.279zm56.789 0h-82.924c-5.45 0-9.908-4.454-9.908-9.897V33.279c0-5.444 4.459-9.897 9.908-9.897h82.862c5.45 0 9.909 4.453 9.909 9.897v49.36c.062 5.444-4.397 9.898-9.847 9.898z" fill="#86A2C0"/><path d="M148.311 66.743h-9.475v-4.701c0-1.732.247-2.97.681-3.835.433-.866 1.362-1.98 2.787-3.464l4.211-4.33c.619-.742.929-1.732.929-2.907 0-1.176-.31-2.165-.991-2.97-.681-.804-1.548-1.175-2.601-1.175s-1.982.495-2.725 1.423c-.743.928-1.177 2.165-1.362 3.711h-9.909c.433-4.144 1.982-7.422 4.583-9.773 2.601-2.35 5.821-3.526 9.723-3.526 3.901 0 7.06 1.052 9.475 3.155 2.415 2.103 3.654 5.072 3.654 8.783 0 1.67-.186 2.908-.62 3.712-.433.804-.681 1.423-.867 1.732-.185.37-.557.866-1.176 1.608-.619.68-.991 1.175-1.239 1.36-.991.99-1.92 1.918-2.849 2.784-.867.866-1.486 1.609-1.796 2.165-.309.557-.433 1.423-.433 2.536v3.712zm-8.546 11.876c-1.053-1.051-1.61-2.35-1.61-3.897 0-1.546.557-2.845 1.61-3.897 1.053-1.051 2.353-1.608 3.901-1.608 1.548 0 2.849.557 3.902 1.608 1.053 1.052 1.61 2.35 1.61 3.897 0 1.547-.557 2.846-1.61 3.897-1.053 1.052-2.354 1.608-3.902 1.608-1.486 0-2.787-.556-3.901-1.608z" fill="#fff"/><path d="M90.407 82.887V33.031c0-7.299 5.946-13.237 13.253-13.237h32.761m3.777 76.33h47.376c7.308 0 13.191-5.938 13.191-13.175V33.031m-66.883-22.516h72.086m-86.33 4.578h77.35M86.567 55.052v44.722m20.809 12.619a3.343 3.343 0 003.344-3.341 3.342 3.342 0 00-3.344-3.34 3.342 3.342 0 00-3.344 3.34 3.343 3.343 0 003.344 3.341z" stroke="#86A2C0" stroke-width="2" stroke-miterlimit="10"/><path d="M103.164 1.608a.805.805 0 10.002-1.61.805.805 0 00-.002 1.61zm3.407 0a.805.805 0 100-1.61.805.805 0 000 1.61zm3.406 0A.804.804 0 10109.978 0a.804.804 0 00-.001 1.608zm3.406 0a.805.805 0 100-1.61.805.805 0 000 1.61zm3.406 0A.804.804 0 10116.79 0a.804.804 0 00-.001 1.608zm3.406 0A.804.804 0 10120.196 0a.804.804 0 00-.001 1.608zm3.406 0a.805.805 0 10.002-1.61.805.805 0 00-.002 1.61zm-20.437 2.907a.805.805 0 10.002-1.61.805.805 0 00-.002 1.61zm3.407 0a.805.805 0 100-1.61.805.805 0 000 1.61zm3.406 0a.804.804 0 10.001-1.608.804.804 0 00-.001 1.608zm3.406 0a.805.805 0 100-1.61.805.805 0 000 1.61zm3.406 0a.804.804 0 10.001-1.608.804.804 0 00-.001 1.608zm3.406 0a.804.804 0 10.001-1.608.804.804 0 00-.001 1.608zm3.406 0a.805.805 0 10.002-1.61.805.805 0 00-.002 1.61zm-20.437 2.97a.805.805 0 10.002-1.61.805.805 0 00-.002 1.61zm3.407 0a.805.805 0 100-1.61.805.805 0 000 1.61zm3.406 0a.804.804 0 10.001-1.609.804.804 0 00-.001 1.609zm3.406 0a.805.805 0 100-1.61.805.805 0 000 1.61zm3.406 0a.804.804 0 10.001-1.609.804.804 0 00-.001 1.609zm3.406 0a.804.804 0 10.001-1.609.804.804 0 00-.001 1.609zm3.406 0a.805.805 0 10.002-1.61.805.805 0 00-.002 1.61zm-20.437 2.969a.805.805 0 10.002-1.61.805.805 0 00-.002 1.61zm3.407 0a.805.805 0 100-1.61.805.805 0 000 1.61zm3.406 0a.804.804 0 10.001-1.609.804.804 0 00-.001 1.609zm3.406 0a.805.805 0 100-1.61.805.805 0 000 1.61zm3.406 0a.804.804 0 10.001-1.609.804.804 0 00-.001 1.609zm3.406 0a.804.804 0 10.001-1.609.804.804 0 00-.001 1.609zm3.406 0a.805.805 0 10.002-1.61.805.805 0 00-.002 1.61z" fill="#86A2C0"/></g><g clip-path="url(#ub)"><path d="M305.908 48.907h-72.445c-4.367 0-7.94 3.527-7.94 7.838V99.85c0 4.311 3.573 7.838 7.94 7.838h8.286l-5.954 16.802 20.84-16.802h49.323c4.366 0 7.939-3.527 7.939-7.838V56.745c-.05-4.311-3.573-7.838-7.989-7.838z" fill="#EA923A"/><path d="M219.917 84.225v-29.44c0-6.417 5.259-11.61 11.759-11.61h23.173m-19.054 70.245h-4.119c-6.5 0-11.759-5.192-11.759-11.609m85.941 11.609h-52.399m13.646-70.244h40.639c6.501 0 11.76 5.192 11.76 11.61v47.025" stroke="#EA923A" stroke-width="2" stroke-miterlimit="10"/><path d="M223.191 65.61v-9.698c0-4.997 4.119-9.062 9.18-9.062h45.154m-39.745 62.896h-5.409c-5.061 0-9.18-4.066-9.18-9.062V75.016m57.907 34.73h-22.577m57.708-9.062c0 4.996-4.119 9.062-9.18 9.062h-21.833m10.272-62.896h11.561c5.062 0 9.18 4.065 9.18 9.062v34.926" stroke="#EA923A" stroke-width="2" stroke-miterlimit="10"/><path d="M272.018 85.744h-8.138v-3.968c0-1.47.198-2.547.546-3.233.397-.735 1.191-1.715 2.381-2.94l3.672-3.722c.546-.637.794-1.47.794-2.45 0-.98-.297-1.86-.843-2.498-.596-.685-1.34-1.028-2.233-1.028-.943 0-1.687.391-2.332 1.175-.645.784-.993 1.862-1.142 3.135h-8.584c.397-3.527 1.687-6.319 3.92-8.327 2.233-2.008 5.012-3.037 8.336-3.037 3.325 0 6.054.882 8.138 2.694 2.084 1.812 3.126 4.31 3.126 7.446 0 1.42-.198 2.449-.546 3.135l-.744 1.47c-.149.293-.496.734-.992 1.37-.497.589-.844.98-1.042 1.177l-2.432 2.4c-.794.734-1.29 1.371-1.538 1.812-.248.49-.397 1.176-.397 2.156v3.233h.05zm-7.295 10.09a4.554 4.554 0 01-1.389-3.33c0-1.323.447-2.4 1.389-3.332.894-.881 2.035-1.371 3.375-1.371 1.339 0 2.431.44 3.374 1.371a4.554 4.554 0 011.389 3.332c0 1.322-.446 2.4-1.389 3.33-.893.882-2.035 1.372-3.374 1.372-1.39 0-2.481-.44-3.375-1.371z" fill="#fff"/><path d="M285.217 34.211c1.479 0 2.679-1.184 2.679-2.645 0-1.46-1.2-2.645-2.679-2.645-1.48 0-2.68 1.184-2.68 2.645s1.2 2.645 2.68 2.645z" stroke="#EA923A" stroke-width="2" stroke-miterlimit="10"/><path d="M258.868 31.91a.641.641 0 00.645-.638.641.641 0 00-.645-.636.641.641 0 00-.645.636c0 .352.289.637.645.637zm2.729 0a.641.641 0 00.645-.638.641.641 0 00-.645-.636.641.641 0 00-.645.636c0 .352.289.637.645.637zm2.73 0a.641.641 0 00.645-.638.641.641 0 00-.645-.636.64.64 0 00-.645.636.64.64 0 00.645.637zm2.729 0a.641.641 0 00.645-.638.641.641 0 00-.645-.636.64.64 0 00-.645.636.64.64 0 00.645.637zm2.729 0a.641.641 0 00.645-.638.641.641 0 00-.645-.636.64.64 0 00-.645.636.64.64 0 00.645.637zm2.729 0a.641.641 0 00.645-.638.641.641 0 00-.645-.636.64.64 0 00-.645.636.64.64 0 00.645.637zm2.729 0a.641.641 0 00.645-.638.641.641 0 00-.645-.636.64.64 0 00-.645.636.64.64 0 00.645.637zm-16.375 2.301a.641.641 0 00.645-.636.641.641 0 00-.645-.637.641.641 0 00-.645.636c0 .352.289.637.645.637zm2.729 0a.641.641 0 00.645-.636.641.641 0 00-.645-.637.641.641 0 00-.645.636c0 .352.289.637.645.637zm2.73 0a.641.641 0 00.645-.636.641.641 0 00-.645-.637.64.64 0 00-.645.636.64.64 0 00.645.637zm2.729 0a.641.641 0 00.645-.636.641.641 0 00-.645-.637.64.64 0 00-.645.636.64.64 0 00.645.637zm2.729 0a.641.641 0 00.645-.636.641.641 0 00-.645-.637.64.64 0 00-.645.636.64.64 0 00.645.637zm2.729 0a.641.641 0 00.645-.636.641.641 0 00-.645-.637.64.64 0 00-.645.636.64.64 0 00.645.637zm2.729 0a.641.641 0 00.645-.636.641.641 0 00-.645-.637.64.64 0 00-.645.636.64.64 0 00.645.637zm-16.375 2.352a.641.641 0 00.645-.637.641.641 0 00-.645-.637.641.641 0 00-.645.637c0 .352.289.637.645.637zm2.729 0a.641.641 0 00.645-.637.641.641 0 00-.645-.637.641.641 0 00-.645.637c0 .352.289.637.645.637zm2.73 0a.641.641 0 00.645-.637.641.641 0 00-.645-.637.64.64 0 00-.645.637.64.64 0 00.645.637zm2.729 0a.641.641 0 00.645-.637.641.641 0 00-.645-.637.64.64 0 00-.645.637.64.64 0 00.645.637zm2.729 0a.641.641 0 00.645-.637.641.641 0 00-.645-.637.64.64 0 00-.645.637.64.64 0 00.645.637zm2.729 0a.641.641 0 00.645-.637.641.641 0 00-.645-.637.64.64 0 00-.645.637.64.64 0 00.645.637zm2.729 0a.641.641 0 00.645-.637.641.641 0 00-.645-.637.64.64 0 00-.645.637.64.64 0 00.645.637zm-16.375 2.351a.641.641 0 00.645-.637.641.641 0 00-.645-.637.641.641 0 00-.645.637c0 .352.289.637.645.637zm2.729 0a.641.641 0 00.645-.637.641.641 0 00-.645-.637.641.641 0 00-.645.637c0 .352.289.637.645.637zm2.73 0a.641.641 0 00.645-.637.641.641 0 00-.645-.637.64.64 0 00-.645.637.64.64 0 00.645.637zm2.729 0a.641.641 0 00.645-.637.641.641 0 00-.645-.637.64.64 0 00-.645.637.64.64 0 00.645.637zm2.729 0a.641.641 0 00.645-.637.641.641 0 00-.645-.637.64.64 0 00-.645.637.64.64 0 00.645.637zm2.729 0a.641.641 0 00.645-.637.641.641 0 00-.645-.637.64.64 0 00-.645.637.64.64 0 00.645.637zm2.729 0a.641.641 0 00.645-.637.641.641 0 00-.645-.637.64.64 0 00-.645.637.64.64 0 00.645.637z" fill="#EA923A"/></g><g clip-path="url(#uc)"><path d="M25.168 103.581l-4.265 12.078 14.864-12.078h-10.6zm36.78 0H9.543c-2.871 0-5.236-2.314-5.236-5.218V66.548a5.226 5.226 0 015.236-5.218h52.405c2.872 0 5.236 2.314 5.236 5.218v31.815c0 2.904-2.364 5.218-5.236 5.218z" fill="#68A484"/><path d="M.422 77.616V66.379m69 5.64v27.985c0 3.367-2.744 6.102-6.123 6.102H38.174M7.686 58.847H60.68" stroke="#68A484" stroke-width="2" stroke-miterlimit="10"/><path d="M37.414 87.842h-5.828V84.98c0-1.052.127-1.81.38-2.356.254-.505.845-1.22 1.69-2.105l2.575-2.65c.38-.464.591-1.053.591-1.768 0-.716-.21-1.305-.59-1.81-.423-.463-.93-.715-1.605-.715-.676 0-1.225.294-1.647.841-.465.59-.718 1.305-.802 2.273h-6.081c.295-2.525 1.224-4.545 2.787-5.976 1.562-1.43 3.547-2.188 5.954-2.188 2.365 0 4.307.63 5.785 1.936 1.478 1.304 2.238 3.072 2.238 5.344 0 1.01-.127 1.767-.38 2.273-.253.505-.422.841-.549 1.052-.084.21-.338.547-.718.968-.38.42-.633.715-.76.841l-1.731 1.726c-.55.547-.93.968-1.098 1.304-.17.337-.254.842-.254 1.557v2.315h.043zm-5.236 7.238a3.234 3.234 0 01-.972-2.356c0-.926.338-1.726.972-2.357a3.256 3.256 0 012.364-.968c.93 0 1.732.337 2.365.968.633.631.971 1.43.971 2.356 0 .926-.338 1.726-.971 2.357a3.256 3.256 0 01-2.365.968c-.929 0-1.689-.337-2.364-.968z" fill="#fff"/><path d="M14.188 56.153H52.49m-6.124 52.31h27.448m-40.327 10.058c1.26 0 2.28-1.018 2.28-2.273a2.276 2.276 0 00-2.28-2.272 2.276 2.276 0 00-2.28 2.272 2.277 2.277 0 002.28 2.273z" stroke="#68A484" stroke-width="2" stroke-miterlimit="10"/><path d="M50.251 115.701a.548.548 0 10.002-1.096.548.548 0 00-.002 1.096zm0 2.315a.548.548 0 10.002-1.096.548.548 0 00-.002 1.096zm0 2.314a.548.548 0 10.002-1.096.548.548 0 00-.002 1.096zm0 2.315a.548.548 0 10.002-1.096.548.548 0 00-.002 1.096zm0 2.314a.548.548 0 10.002-1.096.548.548 0 00-.002 1.096zm0 2.315a.548.548 0 10.002-1.096.548.548 0 00-.002 1.096zm0 2.315a.548.548 0 10.002-1.097.548.548 0 00-.002 1.097zm-1.985-13.888a.548.548 0 10.002-1.096.548.548 0 00-.002 1.096zm0 2.315a.548.548 0 10.002-1.096.548.548 0 00-.002 1.096zm0 2.314a.548.548 0 10.002-1.096.548.548 0 00-.002 1.096zm0 2.315a.548.548 0 10.002-1.096.548.548 0 00-.002 1.096zm0 2.314a.548.548 0 10.002-1.096.548.548 0 00-.002 1.096zm0 2.315a.548.548 0 10.002-1.096.548.548 0 00-.002 1.096zm0 2.315a.548.548 0 10.002-1.097.548.548 0 00-.002 1.097zm-2.026-13.888a.548.548 0 10.001-1.096.548.548 0 00-.002 1.096zm0 2.315a.548.548 0 10.001-1.096.548.548 0 00-.002 1.096zm0 2.314a.548.548 0 10.001-1.096.548.548 0 00-.002 1.096zm0 2.315a.548.548 0 10.001-1.096.548.548 0 00-.002 1.096zm0 2.314a.548.548 0 10.001-1.096.548.548 0 00-.002 1.096zm0 2.315a.548.548 0 10.001-1.096.548.548 0 00-.002 1.096zm0 2.315a.548.548 0 100-1.097.548.548 0 000 1.097zm-2.028-13.888a.548.548 0 10.002-1.096.548.548 0 00-.002 1.096zm0 2.315a.548.548 0 10.002-1.096.548.548 0 00-.002 1.096zm0 2.314a.548.548 0 10.002-1.096.548.548 0 00-.002 1.096zm0 2.315a.548.548 0 10.002-1.096.548.548 0 00-.002 1.096zm0 2.314a.548.548 0 10.002-1.096.548.548 0 00-.002 1.096zm0 2.315a.548.548 0 10.002-1.096.548.548 0 00-.002 1.096zm0 2.315a.548.548 0 10.002-1.097.548.548 0 00-.002 1.097z" fill="#68A484"/></g><defs><clipPath id="ua"><path fill="#fff" transform="translate(85.948)" d="M0 0h120.02v113.011H0z"/></clipPath><clipPath id="ub"><path fill="#fff" transform="translate(219.42 28.431)" d="M0 0h100.58v96.059H0z"/></clipPath><clipPath id="uc"><path fill="#fff" transform="translate(0 55.732)" d="M0 0h73.814v73.814H0z"/></clipPath></defs></symbol><symbol fill="none" viewBox="0 0 16 16" id="time" xmlns="http://www.w3.org/2000/svg"><path fill-rule="evenodd" clip-rule="evenodd" d="M8 1.778a6.222 6.222 0 100 12.444A6.222 6.222 0 008 1.778zM0 8a8 8 0 1116 0A8 8 0 010 8z" fill="#000"/><path fill-rule="evenodd" clip-rule="evenodd" d="M7.91 3c.501 0 .908.403.908.9v4.444c0 .143.058.28.16.381l1.756 1.739a.894.894 0 010 1.272.916.916 0 01-1.286 0L7.693 9.998A2.328 2.328 0 017 8.344V3.9c0-.497.407-.9.91-.9z" fill="#000"/></symbol><symbol fill="none" viewBox="0 0 26 26" id="time-white" xmlns="http://www.w3.org/2000/svg"><path fill-rule="evenodd" clip-rule="evenodd" d="M13 2.889C7.416 2.889 2.889 7.416 2.889 13c0 5.584 4.527 10.111 10.111 10.111 5.584 0 10.111-4.527 10.111-10.111 0-5.584-4.527-10.111-10.111-10.111zM0 13C0 5.82 5.82 0 13 0s13 5.82 13 13-5.82 13-13 13S0 20.18 0 13z" fill="#fff"/><path fill-rule="evenodd" clip-rule="evenodd" d="M12.852 4.875a1.47 1.47 0 011.477 1.463v7.22c0 .233.094.456.26.62l2.853 2.825a1.452 1.452 0 010 2.069 1.488 1.488 0 01-2.089 0L12.5 16.247a3.783 3.783 0 01-1.125-2.688V6.338a1.47 1.47 0 011.477-1.463z" fill="#fff"/></symbol><symbol fill="none" viewBox="0 0 25 20" id="tw" xmlns="http://www.w3.org/2000/svg"><path d="M22.484 4.828c.938-.703 1.782-1.547 2.438-2.531a9.226 9.226 0 01-2.813.75A4.809 4.809 0 0024.266.328c-.938.563-2.016.984-3.094 1.219A4.922 4.922 0 0017.562 0a4.921 4.921 0 00-4.921 4.922c0 .375.046.75.14 1.125A14.28 14.28 0 012.61.89c-.421.703-.656 1.546-.656 2.484 0 1.688.844 3.188 2.203 4.078-.797-.047-1.593-.234-2.25-.61v.048a4.929 4.929 0 003.938 4.828c-.375.094-.844.187-1.266.187-.328 0-.61-.047-.937-.094.609 1.97 2.437 3.376 4.593 3.422a9.896 9.896 0 01-6.093 2.11c-.422 0-.797-.047-1.172-.094 2.156 1.406 4.734 2.203 7.547 2.203 9.046 0 13.968-7.453 13.968-13.969v-.656z" fill="#6D8AA9"/></symbol><symbol fill="none" viewBox="0 0 101 91" id="warn" xmlns="http://www.w3.org/2000/svg"><g clip-path="url(#ya)"><path d="M101 83.39c0 2.356-.832 4.154-2.496 5.393-1.663 1.239-3.705 1.858-6.125 1.858H8.621c-2.42 0-4.462-.635-6.125-1.903C.832 87.468 0 85.686 0 83.39c0-1.813.544-3.656 1.633-5.53L43.467 4.986C45.464 1.662 47.823 0 50.545 0c2.723 0 5.022 1.662 6.897 4.985l41.925 72.966c1.089 1.934 1.633 3.747 1.633 5.439zM56.807 37.072V23.84H44.193v13.233c0 .846.06 1.647.182 2.402.12.756.287 1.602.499 2.538.212.937.378 1.737.499 2.402l2.36 14.684h5.353l2.45-14.684c.121-.604.303-1.39.545-2.357.242-.966.423-1.828.544-2.583.121-.755.182-1.556.182-2.402zm0 35.078c0-1.752-.62-3.233-1.86-4.441-1.24-1.209-2.738-1.813-4.492-1.813-1.694 0-3.161.604-4.401 1.813-1.24 1.208-1.86 2.689-1.86 4.441 0 1.753.62 3.248 1.86 4.487 1.24 1.239 2.707 1.858 4.4 1.858 1.755 0 3.252-.62 4.492-1.858 1.24-1.239 1.86-2.734 1.86-4.487z" fill="#F34550"/></g><defs><clipPath id="ya"><path fill="#fff" d="M0 0h101v90.641H0z"/></clipPath></defs></symbol><symbol id="icon-refresh" viewBox="0 0 20 20"><path d="M11 1.799c-4.445 0-8.061 3.562-8.169 7.996V10H.459l3.594 3.894L7.547 10H4.875v-.205C4.982 6.492 7.683 3.85 11 3.85c3.386 0 6.131 2.754 6.131 6.15 0 3.396-2.745 6.15-6.131 6.15a6.099 6.099 0 0 1-3.627-1.193L5.967 16.46A8.13 8.13 0 0 0 11 18.199c4.515 0 8.174-3.67 8.174-8.2 0-4.528-3.659-8.2-8.174-8.2Zm-1 3.2v5c.001.266.106.52.293.708l3.2 3.2c.283-.183.55-.39.787-.628L12 10.999V5h-2Z" fill="#294C68"/></symbol><symbol id="icon-pen" viewBox="0 0 20 20"><path d="M15.337 2.5c-.631-.63-1.731-.627-2.357.003l-1.487 1.493-1.838 1.838H5.833a.832.832 0 0 0-.782.548L1.718 15.55a.834.834 0 0 0 .193.874l1.667 1.667a.83.83 0 0 0 .874.193l9.166-3.333a.831.831 0 0 0 .549-.783v-3.821l1.839-1.84L17.5 7.008c.315-.315.488-.734.488-1.179 0-.446-.175-.865-.49-1.18L15.336 2.5Zm-2.593 6.912A.83.83 0 0 0 12.5 10v3.583l-7.707 2.803 3.892-3.893c.022 0 .043.007.065.007a1.25 1.25 0 1 0-1.25-1.25c0 .021.006.043.007.065l-3.893 3.892 2.803-7.707H10a.83.83 0 0 0 .59-.244l1.493-1.495 2.155 2.155-1.494 1.495Zm2.672-2.674L13.26 4.583l.899-.903 2.16 2.15-.904.908Z" fill="#294C68"/></symbol><symbol id="icon-comment" viewBox="0 0 20 20"><path d="m10.5 4 1.434 2.693L15 7.125l-2.25 1.966L13.5 12l-3-1.636L7.5 12l.75-2.91L6 7.126l3.15-.432L10.5 4Z" fill="#294C68"/><path d="M11.24 20 10 19.27l2.857-5.116h4.286a1.4 1.4 0 0 0 1.01-.428 1.462 1.462 0 0 0 .418-1.034V3.923a1.488 1.488 0 0 0-.417-1.034 1.425 1.425 0 0 0-1.011-.427H2.857a1.399 1.399 0 0 0-1.01.427 1.462 1.462 0 0 0-.418 1.034v8.77a1.49 1.49 0 0 0 .417 1.033 1.425 1.425 0 0 0 1.011.428h6.429v1.461H2.857a2.825 2.825 0 0 1-2.02-.856A2.957 2.957 0 0 1 0 12.692V3.923c0-.384.074-.764.217-1.119.144-.354.354-.677.62-.948.265-.272.58-.487.927-.634A2.8 2.8 0 0 1 2.857 1h14.286a2.8 2.8 0 0 1 1.093.222c.347.147.662.362.927.634.266.271.476.594.62.948.143.355.217.735.217 1.12v8.768c0 .776-.301 1.52-.837 2.067a2.825 2.825 0 0 1-2.02.856h-3.454L11.24 20Z" fill="#294C68"/></symbol></svg>
